<?xml version="1.0" encoding="utf-8"?>
<!-- Generator: Adobe Illustrator 17.0.0, SVG Export Plug-In . SVG Version: 6.00 Build 0)  -->
<!DOCTYPE svg PUBLIC "-//W3C//DTD SVG 1.1//EN" "http://www.w3.org/Graphics/SVG/1.1/DTD/svg11.dtd">
<svg version="1.1" id="Layer_1" xmlns="http://www.w3.org/2000/svg" xmlns:xlink="http://www.w3.org/1999/xlink" x="0px" y="0px"
	 width="842px" height="1191px" viewBox="0 0 842 1191" enable-background="new 0 0 842 1191" xml:space="preserve">
<rect fill="#912B88" width="842" height="1191"/>
<g>
	<g>
		<path fill="#FFFFFF" d="M206.737,115.554c-0.202-0.173-0.455-0.308-0.756-0.405c-0.302-0.096-0.652-0.145-1.05-0.145h-2.273v3.893
			h2.273c0.398,0,0.749-0.05,1.05-0.149s0.554-0.237,0.756-0.414s0.353-0.384,0.453-0.622s0.149-0.495,0.149-0.771
			c0-0.276-0.05-0.533-0.149-0.771S206.939,115.727,206.737,115.554z"/>
		<path fill="#FFFFFF" d="M169.698,116.161c-0.315-0.405-0.702-0.721-1.161-0.949c-0.459-0.228-0.991-0.342-1.595-0.342
			c-0.604,0-1.137,0.114-1.599,0.342s-0.85,0.544-1.161,0.949s-0.547,0.885-0.708,1.44s-0.241,1.158-0.241,1.807v0.077
			c0,0.655,0.08,1.259,0.241,1.812s0.396,1.031,0.708,1.436s0.699,0.721,1.161,0.949s0.996,0.342,1.599,0.342
			c0.604,0,1.135-0.114,1.595-0.342c0.459-0.228,0.846-0.544,1.161-0.949c0.314-0.405,0.552-0.883,0.713-1.436
			c0.16-0.552,0.241-1.156,0.241-1.812v-0.077c0-0.649-0.081-1.251-0.241-1.807C170.25,117.045,170.012,116.565,169.698,116.161z"/>
		<path fill="#FFFFFF" d="M123.409,116.228c-0.318-0.373-0.731-0.666-1.238-0.881s-1.121-0.323-1.84-0.323h-2.091v8.844h2.091
			c0.713,0,1.323-0.107,1.831-0.323c0.507-0.215,0.92-0.51,1.238-0.886s0.551-0.817,0.699-1.325c0.147-0.507,0.221-1.05,0.221-1.628
			v-0.53c0-0.584-0.072-1.129-0.217-1.633C123.958,117.039,123.727,116.601,123.409,116.228z"/>
		<path fill="#FFFFFF" d="M108,104v28h119v-28H108z M126.8,122.274c-0.279,0.851-0.697,1.579-1.252,2.182
			c-0.556,0.604-1.251,1.071-2.086,1.402c-0.835,0.331-1.811,0.496-2.929,0.496h-5.087v-13.816h5.087
			c1.118,0,2.094,0.166,2.929,0.496c0.835,0.331,1.53,0.798,2.086,1.402c0.556,0.604,0.973,1.332,1.252,2.182
			c0.279,0.852,0.419,1.794,0.419,2.828S127.079,121.423,126.8,122.274z M132.268,126.354h-2.794v-13.816h2.794V126.354z
			 M144.706,124.051c-0.289,0.533-0.671,0.988-1.146,1.363c-0.476,0.376-1.025,0.659-1.648,0.848
			c-0.623,0.189-1.271,0.284-1.946,0.284c-0.681,0-1.312-0.058-1.894-0.174c-0.581-0.115-1.108-0.279-1.58-0.491
			c-0.472-0.212-0.893-0.449-1.262-0.713c-0.37-0.263-0.692-0.546-0.968-0.848l1.821-1.85c0.18,0.206,0.398,0.408,0.655,0.607
			c0.257,0.199,0.541,0.377,0.853,0.535c0.312,0.158,0.65,0.283,1.017,0.376c0.366,0.093,0.761,0.14,1.185,0.14
			c0.79,0,1.395-0.165,1.816-0.496c0.42-0.331,0.631-0.734,0.631-1.209c0-0.495-0.185-0.871-0.554-1.127
			c-0.37-0.257-0.956-0.459-1.758-0.607l-0.434-0.077c-0.578-0.103-1.153-0.237-1.725-0.405c-0.572-0.167-1.089-0.408-1.551-0.723
			c-0.462-0.314-0.838-0.718-1.127-1.209s-0.434-1.113-0.434-1.864c0-0.437,0.096-0.894,0.289-1.373
			c0.192-0.478,0.499-0.918,0.92-1.32c0.42-0.401,0.963-0.73,1.628-0.987c0.665-0.257,1.469-0.386,2.413-0.386
			c1.118,0,2.115,0.185,2.992,0.554c0.877,0.37,1.585,0.856,2.125,1.459l-1.859,1.734c-0.379-0.417-0.866-0.745-1.46-0.983
			c-0.594-0.237-1.206-0.356-1.835-0.356c-0.726,0-1.292,0.138-1.7,0.415c-0.408,0.276-0.612,0.636-0.612,1.079
			c0,0.289,0.066,0.53,0.197,0.723c0.132,0.192,0.316,0.352,0.554,0.477c0.237,0.125,0.523,0.23,0.857,0.313s0.707,0.167,1.118,0.25
			l0.222,0.038c0.552,0.103,1.102,0.233,1.647,0.391c0.546,0.157,1.042,0.389,1.488,0.693c0.446,0.305,0.808,0.704,1.084,1.195
			c0.276,0.491,0.415,1.119,0.415,1.883C145.14,122.905,144.995,123.518,144.706,124.051z M149.903,121.156
			c0.138,0.543,0.352,1.026,0.641,1.45c0.289,0.424,0.66,0.766,1.113,1.026s0.997,0.39,1.633,0.39c0.424,0,0.808-0.071,1.151-0.212
			c0.344-0.141,0.644-0.323,0.901-0.544s0.469-0.467,0.636-0.737c0.167-0.27,0.289-0.533,0.366-0.79l2.688,0.886
			c-0.206,0.597-0.485,1.137-0.838,1.619c-0.354,0.481-0.775,0.895-1.267,1.238c-0.491,0.344-1.044,0.607-1.657,0.79
			s-1.28,0.275-1.999,0.275c-0.996,0-1.892-0.183-2.688-0.549s-1.474-0.87-2.033-1.513c-0.559-0.642-0.988-1.394-1.286-2.254
			c-0.299-0.861-0.448-1.789-0.448-2.784c0-0.989,0.149-1.916,0.448-2.78c0.298-0.864,0.727-1.615,1.286-2.254
			c0.559-0.639,1.236-1.143,2.033-1.513c0.796-0.369,1.692-0.554,2.688-0.554c0.719,0,1.386,0.093,1.999,0.28
			c0.613,0.186,1.166,0.45,1.657,0.79c0.492,0.34,0.914,0.751,1.267,1.233c0.353,0.482,0.632,1.021,0.838,1.619l-2.688,0.896
			c-0.077-0.257-0.199-0.521-0.366-0.795c-0.167-0.273-0.379-0.52-0.636-0.742s-0.557-0.403-0.901-0.544
			c-0.343-0.141-0.727-0.212-1.151-0.212c-0.636,0-1.181,0.13-1.633,0.39s-0.824,0.604-1.113,1.031
			c-0.289,0.427-0.502,0.913-0.641,1.455c-0.138,0.543-0.207,1.097-0.207,1.662v0.077
			C149.696,120.056,149.765,120.613,149.903,121.156z M173.084,122.23c-0.299,0.861-0.732,1.612-1.301,2.254
			c-0.568,0.643-1.26,1.146-2.076,1.513c-0.815,0.366-1.737,0.549-2.765,0.549c-1.034,0-1.958-0.183-2.77-0.549
			c-0.813-0.366-1.503-0.87-2.072-1.513c-0.568-0.642-1.002-1.394-1.3-2.254c-0.299-0.861-0.448-1.789-0.448-2.784
			c0-0.989,0.149-1.916,0.448-2.78c0.298-0.864,0.732-1.615,1.3-2.254s1.259-1.143,2.072-1.513c0.812-0.369,1.735-0.554,2.77-0.554
			c1.028,0,1.95,0.185,2.765,0.554c0.816,0.37,1.508,0.874,2.076,1.513c0.569,0.639,1.002,1.391,1.301,2.254s0.448,1.791,0.448,2.78
			C173.532,120.442,173.383,121.37,173.084,122.23z M182.299,126.354h-3.796l-3.902-13.816h3.131l2.669,10.386h0.096l2.611-10.386
			h3.093L182.299,126.354z M197.667,126.354h-9.683v-13.816h9.307v2.534h-6.513v2.939h6.002v2.524h-6.002v3.295h6.889V126.354z
			 M207.378,126.354l-2.505-4.971h-2.216v4.971h-2.794v-13.816h5.347c0.822,0,1.548,0.119,2.177,0.356
			c0.629,0.238,1.156,0.556,1.58,0.954c0.424,0.398,0.745,0.856,0.963,1.373c0.218,0.517,0.328,1.059,0.328,1.624
			c0,0.456-0.069,0.888-0.207,1.296c-0.138,0.408-0.328,0.777-0.568,1.108c-0.241,0.331-0.525,0.617-0.853,0.857
			s-0.681,0.429-1.06,0.563l3.025,5.685H207.378z M218.072,120.728v5.626h-2.823v-5.626l-4.615-8.189h3.218l2.804,5.328h0.039
			l2.861-5.328h3.131L218.072,120.728z"/>
	</g>
	<text transform="matrix(1 0 0 1 105.0005 167.5142)" fill="#FFFFFF" font-family="'GDSTransportWebsite'" font-size="29.1413">UC Digital Delivery Platform</text>
	<g>
		<path fill="#FFFFFF" d="M172.773,297.212h-36.024l-5.495,18.046h-20.896l31.818-97.286h25.848l32.293,97.286h-21.981
			L172.773,297.212z M142.04,279.844h25.441l-12.619-41.113h-0.271L142.04,279.844z"/>
		<path fill="#FFFFFF" d="M214.768,292.042c2.668,2.401,5.856,4.461,9.565,6.183c3.708,1.722,7.463,2.582,11.262,2.582
			c2.758,0,4.929-0.531,6.513-1.594c1.583-1.062,2.375-2.431,2.375-4.104c0-2.849-3.053-5.064-9.159-6.648l-5.292-1.425
			c-2.624-0.633-5.269-1.503-7.938-2.612c-2.669-1.107-5.122-2.566-7.361-4.376c-2.239-1.808-4.048-4.013-5.427-6.614
			c-1.38-2.601-2.069-5.801-2.069-9.6c0-3.029,0.667-5.913,2.001-8.65c1.333-2.736,3.233-5.144,5.699-7.225
			c2.464-2.08,5.461-3.731,8.989-4.953c3.528-1.221,7.462-1.832,11.804-1.832c6.196,0,11.725,0.973,16.588,2.917
			c4.861,1.945,8.694,4.138,11.499,6.581l-9.769,12.425c-2.307-1.676-5.032-3.115-8.175-4.314c-3.144-1.2-6.299-1.801-9.464-1.801
			c-2.94,0-5.224,0.536-6.852,1.604c-1.628,1.068-2.442,2.354-2.442,3.854c0,1.592,0.712,2.878,2.137,3.855
			c1.424,0.979,3.494,1.832,6.208,2.559l7.87,2.239c7.507,2.126,12.89,4.998,16.146,8.616c3.256,3.619,4.885,8.187,4.885,13.704
			c0,3.076-0.634,6.004-1.9,8.786c-1.267,2.781-3.121,5.258-5.563,7.429s-5.473,3.878-9.091,5.122
			c-3.619,1.243-7.734,1.866-12.347,1.866c-3.528,0-6.842-0.317-9.939-0.95c-3.099-0.633-5.97-1.503-8.616-2.612
			c-2.646-1.107-5.032-2.363-7.157-3.765c-2.126-1.401-3.935-2.804-5.427-4.206L214.768,292.042z"/>
		<path fill="#FFFFFF" d="M295.161,271.092l24.22-28.494h23.338l-26.255,29.715l27.001,42.944h-22.523l-18.114-29.579l-7.666,8.344
			v21.235h-18.725v-97.286h18.725V271.092z"/>
		<path fill="#FFFFFF" d="M439.598,291.513l8.887-48.915h19.811l-16.758,72.659h-22.252L418.43,268.04l-11.533,47.218h-21.913
			l-16.825-72.659h20.42l8.616,48.915l12.619-48.915h17.91L439.598,291.513z"/>
		<path fill="#FFFFFF" d="M478.878,217.972h18.725v30.868c0.994-0.994,2.113-1.956,3.358-2.883c1.243-0.926,2.611-1.74,4.104-2.442
			c1.492-0.701,3.154-1.266,4.986-1.696c1.831-0.429,3.855-0.645,6.071-0.645c3.936,0,7.463,0.645,10.584,1.934
			c3.12,1.289,5.755,3.064,7.903,5.326c2.147,2.262,3.788,4.908,4.919,7.938c1.13,3.031,1.696,6.309,1.696,9.837v49.05h-18.725
			v-42.266c0-2.578-0.295-4.76-0.882-6.547c-0.589-1.786-1.392-3.233-2.409-4.342c-1.018-1.107-2.216-1.921-3.596-2.442
			c-1.38-0.52-2.883-0.78-4.511-0.78c-1.9,0-3.676,0.339-5.326,1.018c-1.651,0.678-3.087,1.708-4.308,3.087
			c-1.222,1.38-2.171,3.11-2.85,5.19c-0.679,2.081-1.018,4.523-1.018,7.327v39.756h-18.725V217.972z"/>
		<path fill="#FFFFFF" d="M597.264,308.406c-0.771,0.86-1.708,1.775-2.816,2.748c-1.108,0.973-2.42,1.855-3.935,2.646
			c-1.516,0.792-3.29,1.458-5.325,2.001c-2.035,0.542-4.32,0.814-6.853,0.814c-3.619,0-6.954-0.577-10.007-1.73
			s-5.732-2.77-8.039-4.851c-2.307-2.08-4.116-4.488-5.428-7.226c-1.312-2.736-1.967-5.709-1.967-8.921
			c0-5.834,1.809-10.605,5.427-14.314c3.618-3.708,8.616-6.038,14.993-6.988l20.896-3.053v-1.357c0-3.256-0.995-5.834-2.984-7.734
			c-1.991-1.899-5.225-2.849-9.702-2.849c-1.854,0-3.731,0.215-5.631,0.645c-1.899,0.43-3.721,0.916-5.461,1.458
			c-1.742,0.543-3.358,1.165-4.851,1.866c-1.493,0.702-2.805,1.323-3.936,1.866l-7.326-14.315c4.16-2.307,8.785-4.206,13.873-5.699
			c5.089-1.493,10.368-2.239,15.842-2.239c3.347,0,6.727,0.351,10.143,1.052c3.414,0.702,6.513,1.979,9.294,3.833
			c2.781,1.855,5.055,4.376,6.818,7.564s2.646,7.249,2.646,12.178v29.851c0,2.126,0.554,3.697,1.662,4.715s2.635,1.957,4.58,2.815
			l-8.48,13.433c-3.438-0.363-6.197-1.255-8.277-2.68C600.338,312.51,598.62,310.668,597.264,308.406z M580.259,285.747
			c-2.314,0.362-4.175,1.165-5.581,2.408c-1.406,1.245-2.109,2.929-2.109,5.054c0,2.352,0.862,4.376,2.586,6.072
			c1.724,1.696,4.265,2.544,7.622,2.544c3.539,0,6.33-1.018,8.371-3.053c2.042-2.035,3.062-4.726,3.062-8.073v-7.327
			L580.259,285.747z"/>
		<path fill="#FFFFFF" d="M652.555,293.616c0,0.859,0.112,1.674,0.339,2.442c0.226,0.77,0.621,1.436,1.188,2.001
			c0.565,0.566,1.367,1.007,2.408,1.323c1.04,0.317,2.375,0.475,4.003,0.475c0.679,0,1.447-0.034,2.307-0.102
			c0.858-0.068,1.719-0.146,2.578-0.237c0.858-0.09,1.662-0.204,2.408-0.339s1.367-0.248,1.866-0.339l1.695,16.554
			c-1.764,0.226-3.596,0.429-5.495,0.61c-1.628,0.18-3.438,0.328-5.427,0.441c-1.991,0.113-4.003,0.17-6.038,0.17
			c-6.469,0-11.512-1.469-15.129-4.41c-3.619-2.939-5.428-7.621-5.428-14.043v-39.281h-13.094v-16.282h13.094v-20.556l18.725-5.021
			v25.577h19.063v16.282h-19.063V293.616z"/>
		<path fill="#FFFFFF" d="M135.799,504.918h-18.725v-95.59h18.725v6.241c2.035-2.125,4.545-3.935,7.53-5.427
			c2.985-1.493,6.603-2.239,10.855-2.239c4.793,0,9.147,0.961,13.06,2.883c3.912,1.923,7.27,4.569,10.075,7.938
			c2.804,3.37,4.975,7.361,6.513,11.974c1.537,4.613,2.307,9.611,2.307,14.993c0,5.383-0.792,10.38-2.375,14.993
			c-1.583,4.613-3.799,8.594-6.648,11.94c-2.849,3.348-6.265,5.97-10.244,7.87c-3.98,1.9-8.368,2.85-13.162,2.85
			c-2.126,0-4.06-0.193-5.8-0.577c-1.742-0.385-3.336-0.916-4.783-1.594c-1.448-0.679-2.781-1.481-4.002-2.409
			c-1.221-0.926-2.33-1.934-3.324-3.019V504.918z M135.256,452.408c0,1.945,0.35,3.743,1.052,5.393
			c0.701,1.652,1.707,3.087,3.019,4.308c1.311,1.221,2.883,2.171,4.715,2.85c1.832,0.678,3.901,1.018,6.208,1.018
			c2.668,0,5.031-0.485,7.09-1.458c2.058-0.972,3.788-2.341,5.19-4.104c1.401-1.764,2.464-3.855,3.188-6.275
			c0.723-2.419,1.085-5.077,1.085-7.972v-0.882c0-2.894-0.362-5.563-1.085-8.005c-0.724-2.442-1.787-4.556-3.188-6.343
			c-1.402-1.786-3.132-3.177-5.19-4.172c-2.059-0.995-4.421-1.493-7.09-1.493c-2.307,0-4.375,0.339-6.208,1.018
			c-1.832,0.679-3.404,1.628-4.715,2.85c-1.312,1.221-2.318,2.669-3.019,4.342c-0.702,1.674-1.052,3.483-1.052,5.427V452.408z"/>
		<path fill="#FFFFFF" d="M214.292,452.137c0.317,2.182,1.008,4.181,2.073,5.998c1.064,1.818,2.413,3.374,4.044,4.669
			s3.512,2.306,5.642,3.033c2.129,0.728,4.396,1.09,6.798,1.09c2.764,0,5.754-0.532,8.971-1.596
			c3.217-1.064,6.163-2.616,8.836-4.655l9.023,13.103c-3.396,2.85-7.561,5.156-12.497,6.92c-4.936,1.764-10.187,2.646-15.755,2.646
			c-5.026,0-9.757-0.86-14.194-2.578c-4.438-1.718-8.319-4.206-11.647-7.462c-3.328-3.257-5.954-7.214-7.878-11.873
			c-1.925-4.658-2.887-9.905-2.887-15.74c0-5.336,0.848-10.312,2.546-14.925s4.075-8.616,7.131-12.008
			c3.055-3.392,6.711-6.049,10.967-7.972c4.255-1.922,8.963-2.883,14.125-2.883c4.799,0,9.258,0.872,13.378,2.612
			c4.12,1.742,7.696,4.184,10.73,7.327c3.033,3.144,5.409,6.909,7.13,11.296c1.72,4.387,2.581,9.227,2.581,14.518v8.48H214.292z
			 M229.489,424.186c-4.026,0-7.429,1.346-10.21,4.037c-2.782,2.691-4.399,5.936-4.851,9.735h29.308
			c-0.091-3.844-1.493-7.1-4.206-9.769C236.816,425.52,233.468,424.186,229.489,424.186z"/>
		<path fill="#FFFFFF" d="M307.236,407.903c5.382,0,10.267,0.961,14.654,2.883c4.386,1.923,8.141,4.58,11.262,7.972
			s5.529,7.395,7.225,12.008c1.696,4.613,2.544,9.589,2.544,14.925c0,5.383-0.86,10.37-2.578,14.959
			c-1.72,4.591-4.139,8.56-7.259,11.906c-3.121,3.348-6.875,5.982-11.262,7.904c-4.388,1.922-9.25,2.883-14.586,2.883
			c-5.383,0-10.268-0.961-14.654-2.883c-4.388-1.922-8.141-4.556-11.262-7.904c-3.121-3.347-5.541-7.315-7.259-11.906
			c-1.719-4.59-2.578-9.576-2.578-14.959c0-5.336,0.848-10.312,2.544-14.925c1.696-4.613,4.104-8.616,7.225-12.008
			s6.886-6.049,11.296-7.972C296.958,408.865,301.854,407.903,307.236,407.903z M307.236,465.977c2.668,0,5.031-0.497,7.09-1.493
			c2.058-0.994,3.788-2.375,5.19-4.138c1.401-1.764,2.464-3.878,3.188-6.343c0.723-2.465,1.085-5.167,1.085-8.107v-0.475
			c0-2.939-0.362-5.642-1.085-8.107c-0.724-2.464-1.787-4.59-3.188-6.377c-1.402-1.786-3.132-3.177-5.19-4.172
			c-2.059-0.995-4.421-1.493-7.09-1.493c-2.669,0-5.032,0.498-7.089,1.493c-2.059,0.995-3.789,2.386-5.19,4.172
			c-1.402,1.787-2.466,3.913-3.188,6.377c-0.724,2.466-1.085,5.168-1.085,8.107v0.475c0,2.94,0.361,5.643,1.085,8.107
			c0.723,2.465,1.786,4.579,3.188,6.343c1.401,1.764,3.131,3.144,5.19,4.138C302.205,465.479,304.567,465.977,307.236,465.977z"/>
		<path fill="#FFFFFF" d="M374.062,504.918h-18.725v-95.59h18.725v6.241c2.035-2.125,4.545-3.935,7.53-5.427
			c2.985-1.493,6.603-2.239,10.855-2.239c4.793,0,9.147,0.961,13.06,2.883c3.912,1.923,7.27,4.569,10.075,7.938
			c2.804,3.37,4.975,7.361,6.513,11.974c1.537,4.613,2.307,9.611,2.307,14.993c0,5.383-0.792,10.38-2.374,14.993
			c-1.584,4.613-3.8,8.594-6.649,11.94c-2.849,3.348-6.265,5.97-10.244,7.87c-3.98,1.9-8.368,2.85-13.162,2.85
			c-2.126,0-4.06-0.193-5.8-0.577c-1.742-0.385-3.336-0.916-4.783-1.594c-1.448-0.679-2.781-1.481-4.002-2.409
			c-1.221-0.926-2.33-1.934-3.324-3.019V504.918z M373.519,452.408c0,1.945,0.35,3.743,1.052,5.393
			c0.701,1.652,1.707,3.087,3.019,4.308c1.311,1.221,2.883,2.171,4.715,2.85c1.832,0.678,3.901,1.018,6.208,1.018
			c2.668,0,5.031-0.485,7.09-1.458c2.058-0.972,3.788-2.341,5.19-4.104c1.401-1.764,2.464-3.855,3.188-6.275
			c0.723-2.419,1.085-5.077,1.085-7.972v-0.882c0-2.894-0.362-5.563-1.085-8.005c-0.724-2.442-1.787-4.556-3.188-6.343
			c-1.402-1.786-3.132-3.177-5.19-4.172c-2.059-0.995-4.421-1.493-7.09-1.493c-2.307,0-4.375,0.339-6.208,1.018
			c-1.832,0.679-3.404,1.628-4.715,2.85c-1.312,1.221-2.318,2.669-3.019,4.342c-0.702,1.674-1.052,3.483-1.052,5.427V452.408z"/>
		<path fill="#FFFFFF" d="M436.612,384.701h18.725v77.48c0,1.537,0.441,2.711,1.323,3.524c0.882,0.814,2.295,1.22,4.24,1.22
			c0.904,0,1.684-0.056,2.34-0.169c0.655-0.112,1.504-0.282,2.545-0.508l1.492,16.01c-1.267,0.18-2.624,0.361-4.07,0.542
			c-1.222,0.136-2.636,0.26-4.24,0.373c-1.606,0.113-3.269,0.17-4.986,0.17c-2.67,0-5.066-0.339-7.191-1.018
			c-2.127-0.679-3.947-1.685-5.462-3.019c-1.516-1.333-2.68-2.996-3.493-4.986c-0.814-1.99-1.222-4.296-1.222-6.92V384.701z"/>
		<path fill="#FFFFFF" d="M493.261,452.137c0.316,2.182,1.008,4.181,2.072,5.998c1.064,1.818,2.412,3.374,4.044,4.669
			c1.631,1.295,3.512,2.306,5.642,3.033c2.13,0.728,4.396,1.09,6.798,1.09c2.764,0,5.754-0.532,8.971-1.596
			c3.218-1.064,6.163-2.616,8.837-4.655l9.023,13.103c-3.396,2.85-7.562,5.156-12.497,6.92c-4.936,1.764-10.188,2.646-15.756,2.646
			c-5.025,0-9.756-0.86-14.193-2.578s-8.319-4.206-11.646-7.462c-3.329-3.257-5.954-7.214-7.879-11.873
			c-1.925-4.658-2.886-9.905-2.886-15.74c0-5.336,0.848-10.312,2.546-14.925s4.075-8.616,7.131-12.008
			c3.055-3.392,6.711-6.049,10.967-7.972c4.255-1.922,8.964-2.883,14.125-2.883c4.799,0,9.259,0.872,13.379,2.612
			c4.119,1.742,7.696,4.184,10.729,7.327c3.033,3.144,5.41,6.909,7.13,11.296c1.721,4.387,2.581,9.227,2.581,14.518v8.48H493.261z
			 M508.457,424.186c-4.025,0-7.429,1.346-10.21,4.037c-2.781,2.691-4.399,5.936-4.851,9.735h29.308
			c-0.091-3.844-1.492-7.1-4.206-9.769C515.784,425.52,512.437,424.186,508.457,424.186z"/>
		<path fill="#FFFFFF" d="M625.961,481.987v-6.242c-0.995,1.085-2.093,2.093-3.29,3.019c-1.199,0.928-2.534,1.73-4.003,2.409
			c-1.471,0.678-3.076,1.209-4.817,1.594c-1.741,0.384-3.675,0.577-5.8,0.577c-4.795,0-9.183-0.95-13.162-2.85
			c-3.98-1.899-7.395-4.522-10.244-7.87c-2.85-3.347-5.054-7.327-6.614-11.94s-2.341-9.61-2.341-14.993
			c0-5.382,0.769-10.38,2.307-14.993c1.537-4.613,3.697-8.604,6.479-11.974c2.781-3.369,6.14-6.015,10.074-7.938
			c3.935-1.922,8.299-2.883,13.094-2.883c4.251,0,7.857,0.736,10.82,2.205c2.962,1.47,5.462,3.29,7.497,5.461v-30.868h18.725v97.286
			H625.961z M626.504,438.907c0-1.944-0.351-3.753-1.05-5.427c-0.699-1.673-1.704-3.121-3.013-4.342
			c-1.31-1.221-2.878-2.171-4.705-2.85c-1.828-0.678-3.893-1.018-6.194-1.018c-2.663,0-5.021,0.498-7.073,1.493
			c-2.055,0.995-3.78,2.386-5.18,4.172c-1.399,1.787-2.459,3.901-3.181,6.343c-0.724,2.442-1.084,5.111-1.084,8.005v0.882
			c0,2.895,0.36,5.552,1.084,7.972c0.722,2.42,1.781,4.511,3.181,6.275c1.399,1.764,3.125,3.132,5.18,4.104
			c2.053,0.973,4.41,1.458,7.073,1.458c2.302,0,4.366-0.339,6.194-1.018c1.827-0.679,3.396-1.628,4.705-2.85
			c1.309-1.221,2.313-2.656,3.013-4.308c0.699-1.65,1.05-3.448,1.05-5.393V438.907z"/>
		<path fill="#FFFFFF" d="M692.785,407.903c5.382,0,10.267,0.961,14.653,2.883c4.387,1.923,8.142,4.58,11.262,7.972
			c3.121,3.392,5.529,7.395,7.226,12.008s2.544,9.589,2.544,14.925c0,5.383-0.859,10.37-2.578,14.959
			c-1.719,4.591-4.138,8.56-7.259,11.906c-3.121,3.348-6.875,5.982-11.262,7.904c-4.388,1.922-9.25,2.883-14.586,2.883
			c-5.383,0-10.268-0.961-14.654-2.883c-4.388-1.922-8.141-4.556-11.262-7.904c-3.121-3.347-5.541-7.315-7.259-11.906
			c-1.72-4.59-2.578-9.576-2.578-14.959c0-5.336,0.848-10.312,2.544-14.925s4.104-8.616,7.225-12.008
			c3.121-3.392,6.887-6.049,11.296-7.972C682.507,408.865,687.402,407.903,692.785,407.903z M692.785,465.977
			c2.668,0,5.03-0.497,7.089-1.493c2.058-0.994,3.788-2.375,5.19-4.138c1.401-1.764,2.465-3.878,3.188-6.343
			c0.723-2.465,1.086-5.167,1.086-8.107v-0.475c0-2.939-0.363-5.642-1.086-8.107c-0.724-2.464-1.787-4.59-3.188-6.377
			c-1.402-1.786-3.133-3.177-5.19-4.172c-2.059-0.995-4.421-1.493-7.089-1.493c-2.67,0-5.032,0.498-7.09,1.493
			c-2.059,0.995-3.788,2.386-5.189,4.172c-1.403,1.787-2.466,3.913-3.189,6.377c-0.724,2.466-1.085,5.168-1.085,8.107v0.475
			c0,2.94,0.361,5.643,1.085,8.107c0.724,2.465,1.786,4.579,3.189,6.343c1.401,1.764,3.131,3.144,5.189,4.138
			C687.753,465.479,690.115,465.977,692.785,465.977z"/>
	</g>
	<g>
		<path fill="#FFFFFF" d="M135.093,723.565v83.302h-11.696v-97.515h16.388l51.409,83.303v-83.303h11.696v97.515h-16.456
			L135.093,723.565z"/>
		<path fill="#FFFFFF" d="M253.008,736.01c4.805,0,9.18,0.896,13.124,2.686c3.944,1.792,7.31,4.284,10.098,7.48
			s4.953,7.004,6.494,11.424c1.541,4.421,2.312,9.282,2.312,14.587c0,5.214-0.771,10.03-2.312,14.45
			c-1.542,4.42-3.706,8.229-6.494,11.424c-2.788,3.196-6.154,5.69-10.098,7.48c-3.944,1.79-8.319,2.687-13.124,2.687
			c-4.806,0-9.17-0.896-13.09-2.687c-3.922-1.79-7.288-4.284-10.099-7.48c-2.811-3.195-4.987-7.004-6.528-11.424
			c-1.542-4.42-2.312-9.236-2.312-14.45c0-5.305,0.77-10.166,2.312-14.587c1.541-4.42,3.717-8.228,6.528-11.424
			c2.811-3.196,6.177-5.688,10.099-7.48C243.838,736.905,248.202,736.01,253.008,736.01z M253.008,798.231
			c3.309,0,6.222-0.691,8.738-2.074s4.625-3.253,6.324-5.61c1.7-2.356,2.98-5.089,3.842-8.194c0.86-3.104,1.292-6.358,1.292-9.758
			v-0.816c0-3.49-0.432-6.8-1.292-9.929c-0.862-3.128-2.142-5.858-3.842-8.193c-1.7-2.335-3.808-4.193-6.324-5.576
			s-5.429-2.074-8.738-2.074c-3.31,0-6.222,0.691-8.738,2.074s-4.625,3.241-6.324,5.576c-1.7,2.335-2.981,5.065-3.842,8.193
			c-0.862,3.129-1.292,6.438-1.292,9.929v0.816c0,3.399,0.43,6.653,1.292,9.758c0.861,3.105,2.142,5.838,3.842,8.194
			c1.7,2.357,3.808,4.228,6.324,5.61S249.698,798.231,253.008,798.231z"/>
		<path fill="#FFFFFF" d="M318.63,789.595c0,1.18,0.079,2.278,0.238,3.298c0.158,1.021,0.544,1.916,1.156,2.687
			c0.612,0.771,1.506,1.383,2.686,1.836c1.178,0.454,2.788,0.68,4.828,0.68c0.544,0,1.19-0.022,1.938-0.067s1.53-0.103,2.346-0.17
			c0.816-0.068,1.608-0.159,2.38-0.272c0.771-0.112,1.428-0.215,1.972-0.306l1.224,9.996c-1.315,0.181-2.676,0.34-4.08,0.476
			c-1.18,0.137-2.494,0.249-3.944,0.34c-1.451,0.091-2.902,0.137-4.352,0.137c-2.766,0-5.248-0.284-7.446-0.851
			c-2.199-0.566-4.069-1.484-5.61-2.754c-1.542-1.269-2.72-2.935-3.536-4.998c-0.816-2.062-1.224-4.566-1.224-7.515v-44.677h-13.125
			v-10.064h13.125v-22.712l11.424-4.013v26.725h19.312v10.064H318.63V789.595z"/>
		<path fill="#FFFFFF" d="M437.156,793.335l12.58-55.966h12.105l-17.002,69.498h-14.619l-14.077-55.693l-14.349,55.693h-14.076
			l-16.864-69.498h12.308l12.104,55.966l14.62-55.966h12.921L437.156,793.335z"/>
		<path fill="#FFFFFF" d="M476.598,709.353h11.424v35.974c2.356-3.219,5.271-5.576,8.738-7.072s7.332-2.244,11.595-2.244
			c3.853,0,7.23,0.635,10.132,1.903c2.9,1.271,5.326,2.992,7.276,5.169c1.948,2.176,3.41,4.691,4.386,7.548
			c0.975,2.856,1.462,5.871,1.462,9.044v47.193h-11.424v-43.589c0-3.037-0.374-5.633-1.122-7.786s-1.769-3.898-3.061-5.236
			c-1.292-1.337-2.812-2.312-4.556-2.924c-1.746-0.612-3.616-0.918-5.61-0.918c-2.176,0-4.33,0.397-6.46,1.189
			c-2.132,0.794-4.035,1.984-5.712,3.57c-1.678,1.588-3.038,3.582-4.08,5.984c-1.044,2.403-1.564,5.236-1.564,8.5v41.209h-11.424
			V709.353z"/>
		<path fill="#FFFFFF" d="M591.452,799.931c-2.04,2.358-4.794,4.33-8.263,5.916c-3.468,1.587-7.537,2.381-12.206,2.381
			c-3.445,0-6.642-0.488-9.588-1.462c-2.948-0.975-5.509-2.369-7.685-4.183c-2.176-1.812-3.876-4.012-5.1-6.596
			c-1.225-2.584-1.837-5.509-1.837-8.772c0-2.72,0.442-5.202,1.326-7.446c0.885-2.244,2.131-4.204,3.74-5.882
			c1.608-1.677,3.547-3.049,5.814-4.114c2.267-1.064,4.805-1.802,7.616-2.21l24.549-3.332v-4.421c0-2.628-0.408-4.838-1.225-6.63
			c-0.815-1.79-1.916-3.206-3.298-4.25c-1.384-1.042-3.016-1.79-4.896-2.244c-1.882-0.452-3.91-0.68-6.086-0.68
			c-3.899,0-7.537,0.544-10.914,1.632c-3.378,1.088-6.427,2.357-9.146,3.809l-4.284-9.045c3.989-2.267,8.171-3.898,12.547-4.896
			c4.374-0.997,8.692-1.496,12.954-1.496c8.477,0,14.893,1.915,19.244,5.746c4.353,3.831,6.528,9.418,6.528,16.762v32.029
			c0,2.312,0.453,4.25,1.36,5.814c0.906,1.563,2.356,2.8,4.352,3.706l-6.46,8.16c-2.176-0.544-4.046-1.507-5.61-2.891
			c-1.563-1.382-2.663-3.048-3.298-4.998L591.452,799.931z M571.119,775.927c-1.903,0.271-3.638,0.657-5.202,1.155
			c-1.563,0.5-2.89,1.168-3.978,2.007s-1.938,1.87-2.551,3.094c-0.611,1.224-0.918,2.72-0.918,4.488c0,2.04,0.385,3.854,1.156,5.439
			c0.771,1.588,1.812,2.925,3.128,4.013c1.314,1.088,2.845,1.916,4.591,2.482c1.744,0.567,3.569,0.85,5.474,0.85
			c2.131,0,4.216-0.294,6.256-0.884c2.04-0.589,3.854-1.438,5.44-2.551c1.587-1.11,2.867-2.458,3.842-4.046
			c0.975-1.586,1.463-3.399,1.463-5.439v-13.396L571.119,775.927z"/>
		<path fill="#FFFFFF" d="M639.938,789.595c0,1.18,0.078,2.278,0.238,3.298c0.158,1.021,0.544,1.916,1.155,2.687
			c0.612,0.771,1.507,1.383,2.687,1.836c1.179,0.454,2.788,0.68,4.828,0.68c0.544,0,1.189-0.022,1.938-0.067s1.53-0.103,2.347-0.17
			c0.815-0.068,1.608-0.159,2.38-0.272c0.771-0.112,1.428-0.215,1.972-0.306l1.225,9.996c-1.315,0.181-2.676,0.34-4.08,0.476
			c-1.18,0.137-2.494,0.249-3.944,0.34c-1.451,0.091-2.901,0.137-4.353,0.137c-2.766,0-5.247-0.284-7.445-0.851
			c-2.2-0.566-4.07-1.484-5.61-2.754c-1.542-1.269-2.721-2.935-3.536-4.998c-0.816-2.062-1.225-4.566-1.225-7.515v-44.677h-13.124
			v-10.064h13.124v-22.712l11.425-4.013v26.725h19.312v10.064h-19.312V789.595z"/>
		<path fill="#FFFFFF" d="M138.425,956.716c0,1.18,0.079,2.278,0.238,3.298c0.158,1.021,0.544,1.916,1.156,2.687
			c0.612,0.771,1.506,1.383,2.686,1.836c1.178,0.454,2.788,0.68,4.828,0.68c0.544,0,1.19-0.022,1.938-0.067s1.53-0.103,2.346-0.17
			c0.816-0.068,1.608-0.159,2.38-0.272c0.771-0.112,1.428-0.215,1.972-0.306l1.224,9.996c-1.315,0.181-2.676,0.34-4.08,0.476
			c-1.18,0.137-2.494,0.249-3.944,0.34c-1.451,0.091-2.902,0.137-4.352,0.137c-2.766,0-5.248-0.284-7.446-0.851
			c-2.199-0.566-4.069-1.484-5.61-2.754c-1.542-1.269-2.72-2.935-3.536-4.998c-0.816-2.062-1.224-4.566-1.224-7.515v-44.677h-13.125
			V904.49h13.125v-22.712l11.424-4.013v26.725h19.312v10.064h-19.312V956.716z"/>
		<path fill="#FFFFFF" d="M171.882,876.474h11.424v35.974c2.357-3.219,5.27-5.576,8.738-7.072s7.333-2.244,11.594-2.244
			c3.853,0,7.23,0.635,10.132,1.903c2.901,1.271,5.326,2.992,7.276,5.169c1.949,2.176,3.411,4.691,4.386,7.548
			c0.975,2.856,1.462,5.871,1.462,9.044v47.193h-11.424v-43.589c0-3.037-0.374-5.633-1.122-7.786s-1.768-3.898-3.06-5.236
			c-1.292-1.337-2.812-2.312-4.556-2.924c-1.746-0.612-3.616-0.918-5.61-0.918c-2.176,0-4.33,0.397-6.46,1.189
			c-2.131,0.794-4.036,1.984-5.712,3.57c-1.678,1.588-3.038,3.582-4.08,5.984c-1.043,2.403-1.564,5.236-1.564,8.5v41.209h-11.424
			V876.474z"/>
		<path fill="#FFFFFF" d="M254.98,942.775c0.226,3.265,0.884,6.279,1.972,9.044c1.088,2.767,2.573,5.158,4.454,7.175
			c1.881,2.018,4.103,3.582,6.665,4.691c2.561,1.112,5.406,1.667,8.534,1.667c3.853,0,7.242-0.646,10.166-1.938
			c2.924-1.292,5.61-2.912,8.058-4.862l5.848,8.229c-3.128,2.493-6.744,4.545-10.846,6.154c-4.104,1.608-8.693,2.414-13.77,2.414
			c-5.032,0-9.588-0.896-13.668-2.687s-7.56-4.284-10.438-7.48c-2.879-3.195-5.089-7.004-6.63-11.424
			c-1.542-4.42-2.312-9.236-2.312-14.45c0-5.305,0.758-10.166,2.278-14.587c1.519-4.42,3.661-8.228,6.426-11.424
			c2.765-3.196,6.074-5.688,9.928-7.48c3.853-1.79,8.137-2.686,12.852-2.686c4.579,0,8.705,0.896,12.376,2.686
			c3.672,1.792,6.8,4.284,9.384,7.48s4.567,7.004,5.95,11.424c1.382,4.421,2.074,9.238,2.074,14.451v3.604H254.98z M274.088,913.127
			c-2.902,0-5.486,0.567-7.752,1.7c-2.267,1.134-4.206,2.651-5.814,4.556c-1.61,1.904-2.879,4.092-3.808,6.562
			c-0.93,2.472-1.462,5.021-1.598,7.65h36.789c-0.091-2.675-0.556-5.247-1.394-7.719c-0.839-2.47-2.018-4.646-3.536-6.528
			c-1.52-1.88-3.355-3.388-5.508-4.521C279.312,913.694,276.853,913.127,274.088,913.127z"/>
		<path fill="#FFFFFF" d="M311.693,904.49h12.92l17.136,57.394l16.32-57.394h12.785l-25.297,79.971
			c-0.771,2.447-1.768,4.454-2.992,6.018c-1.224,1.564-2.618,2.811-4.182,3.74c-1.564,0.929-3.298,1.574-5.202,1.938
			c-1.904,0.362-3.921,0.544-6.052,0.544c-1.904,0-3.876-0.103-5.917-0.307s-4.193-0.487-6.46-0.85l1.7-9.996
			c0.906,0.181,1.88,0.34,2.924,0.476c0.861,0.136,1.836,0.249,2.924,0.34c1.088,0.091,2.198,0.137,3.332,0.137
			c2.493,0,4.431-0.544,5.814-1.633c1.382-1.088,2.369-2.855,2.958-5.304l0.68-3.196L311.693,904.49z"/>
		<path fill="#FFFFFF" d="M466.397,960.456l12.58-55.966h12.104l-17.001,69.498h-14.62l-14.076-55.693l-14.349,55.693H416.96
			l-16.864-69.498h12.308l12.104,55.966l14.621-55.966h12.92L466.397,960.456z"/>
		<path fill="#FFFFFF" d="M545.348,967.052c-2.04,2.358-4.794,4.33-8.263,5.916c-3.468,1.587-7.537,2.381-12.206,2.381
			c-3.445,0-6.642-0.488-9.588-1.462c-2.948-0.975-5.509-2.369-7.685-4.183c-2.176-1.812-3.876-4.012-5.1-6.596
			c-1.225-2.584-1.837-5.509-1.837-8.772c0-2.72,0.442-5.202,1.326-7.446c0.885-2.244,2.131-4.204,3.74-5.882
			c1.608-1.677,3.547-3.049,5.814-4.114c2.267-1.064,4.805-1.802,7.616-2.21l24.549-3.332v-4.421c0-2.628-0.408-4.838-1.225-6.63
			c-0.815-1.79-1.916-3.206-3.298-4.25c-1.384-1.042-3.016-1.79-4.896-2.244c-1.882-0.452-3.91-0.68-6.086-0.68
			c-3.899,0-7.537,0.544-10.914,1.632c-3.378,1.088-6.427,2.357-9.146,3.809l-4.284-9.045c3.989-2.267,8.171-3.898,12.547-4.896
			c4.374-0.997,8.692-1.496,12.954-1.496c8.477,0,14.893,1.915,19.244,5.746c4.353,3.831,6.528,9.418,6.528,16.762v32.029
			c0,2.312,0.453,4.25,1.36,5.814c0.906,1.563,2.356,2.8,4.352,3.706l-6.46,8.16c-2.176-0.544-4.046-1.507-5.61-2.891
			c-1.563-1.382-2.663-3.048-3.298-4.998L545.348,967.052z M525.015,943.048c-1.903,0.271-3.638,0.657-5.202,1.155
			c-1.563,0.5-2.89,1.168-3.978,2.007s-1.938,1.87-2.551,3.094c-0.611,1.224-0.918,2.72-0.918,4.488c0,2.04,0.385,3.854,1.156,5.439
			c0.771,1.588,1.812,2.925,3.128,4.013c1.314,1.088,2.845,1.916,4.591,2.482c1.744,0.567,3.569,0.85,5.474,0.85
			c2.131,0,4.216-0.294,6.256-0.884c2.04-0.589,3.854-1.438,5.44-2.551c1.587-1.11,2.867-2.458,3.842-4.046
			c0.975-1.586,1.463-3.399,1.463-5.439V940.26L525.015,943.048z"/>
		<path fill="#FFFFFF" d="M575.88,904.49h11.424v7.957c2.356-3.219,5.271-5.576,8.738-7.072s7.332-2.244,11.595-2.244
			c3.853,0,7.23,0.635,10.132,1.903c2.9,1.271,5.326,2.992,7.276,5.169c1.948,2.176,3.41,4.691,4.386,7.548
			c0.975,2.856,1.462,5.871,1.462,9.044v47.193h-11.424v-43.589c0-3.037-0.374-5.633-1.122-7.786s-1.769-3.898-3.061-5.236
			c-1.292-1.337-2.812-2.312-4.556-2.924c-1.746-0.612-3.616-0.918-5.61-0.918c-2.176,0-4.318,0.397-6.426,1.189
			c-2.108,0.794-4.013,1.984-5.713,3.57c-1.699,1.588-3.071,3.582-4.113,5.984c-1.044,2.403-1.564,5.236-1.564,8.5v41.209H575.88
			V904.49z"/>
		<path fill="#FFFFFF" d="M669.179,956.716c0,1.18,0.078,2.278,0.238,3.298c0.158,1.021,0.544,1.916,1.155,2.687
			c0.612,0.771,1.507,1.383,2.687,1.836c1.179,0.454,2.788,0.68,4.828,0.68c0.544,0,1.189-0.022,1.938-0.067s1.53-0.103,2.347-0.17
			c0.815-0.068,1.608-0.159,2.38-0.272c0.771-0.112,1.428-0.215,1.972-0.306l1.225,9.996c-1.315,0.181-2.676,0.34-4.08,0.476
			c-1.18,0.137-2.494,0.249-3.944,0.34c-1.451,0.091-2.901,0.137-4.353,0.137c-2.766,0-5.247-0.284-7.445-0.851
			c-2.2-0.566-4.07-1.484-5.61-2.754c-1.542-1.269-2.721-2.935-3.536-4.998c-0.816-2.062-1.225-4.566-1.225-7.515v-44.677H644.63
			V904.49h13.124v-22.712l11.425-4.013v26.725h19.312v10.064h-19.312V956.716z"/>
	</g>
</g>
</svg>
