<?xml version="1.0" encoding="utf-8"?>
<!-- Generator: Adobe Illustrator 18.0.0, SVG Export Plug-In . SVG Version: 6.00 Build 0)  -->
<!DOCTYPE svg PUBLIC "-//W3C//DTD SVG 1.1//EN" "http://www.w3.org/Graphics/SVG/1.1/DTD/svg11.dtd">
<svg version="1.1" id="Layer_1" xmlns="http://www.w3.org/2000/svg" xmlns:xlink="http://www.w3.org/1999/xlink" x="0px" y="0px"
	 viewBox="0 0 858.6 864" enable-background="new 0 0 858.6 864" xml:space="preserve">
<g>
	<circle fill="#775F4C" cx="429.5" cy="429.1" r="429.1"/>
	<g>
		<path fill="#FFFFFF" d="M78.6,277.5c-5.4-2.5-9.1-5.8-11.1-9.8c-1.8-3.6-2-7-0.5-10.2c1.5-3.2,4.2-5.2,8.2-6.1
			c4.4-1,9.3-0.2,14.9,2.4c5.5,2.6,9.3,5.9,11.3,9.9c1.8,3.6,2,7,0.5,10.2c-1.5,3.2-4.2,5.2-8.2,6.1C89.2,281,84.2,280.2,78.6,277.5
			z M80.9,272.5c3.7,1.8,7.2,2.6,10.2,2.5c3-0.1,5-1.2,6-3.2c0.9-2,0.5-4.2-1.3-6.7c-1.8-2.4-4.5-4.5-8.2-6.3
			c-3.7-1.7-7-2.5-10.1-2.4c-3,0.2-5,1.2-6,3.2c-0.9,2-0.5,4.2,1.3,6.6C74.7,268.7,77.4,270.8,80.9,272.5z"/>
		<path fill="#FFFFFF" d="M92.3,248.9c-5.1-3-8.6-6.5-10.2-10.7c-1.5-3.7-1.4-7.1,0.3-10.2c1.8-3.1,4.7-4.8,8.7-5.4
			c4.5-0.6,9.3,0.6,14.6,3.6c5.3,3,8.7,6.6,10.4,10.8c1.5,3.7,1.4,7.1-0.3,10.2c-1.8,3-4.6,4.8-8.7,5.4
			C102.6,253.2,97.7,252,92.3,248.9z M95.1,244.1c3.6,2.1,6.9,3.2,10,3.3c3,0.1,5.1-0.8,6.2-2.7c1.1-1.9,0.9-4.2-0.8-6.8
			c-1.6-2.6-4.1-4.9-7.7-6.9c-3.5-2-6.8-3.1-9.9-3.2c-3-0.1-5.1,0.8-6.2,2.7c-1.1,1.9-0.8,4.1,0.7,6.7
			C89.2,239.8,91.7,242.1,95.1,244.1z"/>
		<path fill="#FFFFFF" d="M106.8,200.8L96.4,216l-4.4-3l15.7-22.9l18.5,41.2l-4.9,2.1L106.8,200.8z"/>
		<path fill="#FFFFFF" d="M136.5,190.3l21.4-24.1l3.5,3.1l-21.4,24.1L136.5,190.3z"/>
		<path fill="#FFFFFF" d="M184,135.5l11.7-10l0.8,0.9c1.8,2.1,3.2,4.2,4.1,6.3c0.8,1.9,1.2,4.1,1.1,6.4c-0.1,5.2-2.2,9.5-6.3,13
			c-4,3.4-8.6,4.8-13.9,4.4c-5.3-0.5-9.6-2.7-13.1-6.8c-3.5-4.1-5-8.8-4.6-14.2c0.4-5.3,2.7-9.8,6.9-13.3c2.2-1.9,4.7-3.2,7.4-3.9
			c2.6-0.7,5.7-0.7,9.2-0.2l-0.6,5.5c-5-1.1-9.1-0.3-12.5,2.6c-3,2.6-4.7,5.7-4.9,9.5c-0.3,3.8,0.8,7.2,3.4,10.3
			c2.7,3.2,6,4.8,10,4.9c3.7,0.1,6.8-0.9,9.3-3c2.1-1.8,3.4-4.1,3.9-7c0.5-2.9,0-5.4-1.5-7.5l-7.1,6L184,135.5z"/>
		<path fill="#FFFFFF" d="M200.3,122.7c-2.9-4.4-3.8-9.2-2.8-14.4c1.1-5.3,3.8-9.4,8.3-12.4c4.4-3,9.2-3.9,14.5-2.9
			c5.3,1,9.4,3.7,12.4,8.2c3,4.4,3.9,9.3,2.8,14.5c-1.1,5.3-3.9,9.4-8.4,12.4c-4,2.7-8.5,3.7-13.5,3.1
			C208.1,130.5,203.7,127.7,200.3,122.7z M205.1,119.6c2.3,3.4,5.3,5.5,9.1,6.1c3.8,0.7,7.1,0,10.1-2c3.2-2.2,5.2-5.1,5.9-8.9
			c0.7-3.8,0-7.3-2.2-10.5c-2.2-3.3-5.2-5.3-8.9-6.1c-3.7-0.8-7.2-0.1-10.4,2.1c-3.2,2.2-5.2,5.1-5.9,8.8
			C202.2,112.9,202.9,116.4,205.1,119.6z"/>
		<path fill="#FFFFFF" d="M230.2,81.4l21.4,17.8l-3.1-27.7l5.4-2.9l4.4,43.2l-33.5-27.5L230.2,81.4z"/>
		<path fill="#FFFFFF" d="M268.6,100.2c-0.4-0.8-0.4-1.7-0.1-2.5c0.3-0.9,0.9-1.5,1.7-1.9c0.8-0.4,1.7-0.4,2.6-0.1
			c0.9,0.3,1.5,0.9,1.9,1.7c0.4,0.8,0.5,1.7,0.1,2.6c-0.3,0.9-0.9,1.5-1.7,1.9c-0.9,0.4-1.7,0.5-2.6,0.2
			C269.7,101.7,269.1,101.1,268.6,100.2z"/>
		<path fill="#FFFFFF" d="M271.7,60.7l8.4,20.8c1.2,3,2.6,4.9,4.1,5.9c2.3,1.4,4.7,1.6,7.3,0.5c2.6-1.1,4.3-2.9,4.9-5.5
			c0.4-1.7,0-4.1-1.2-7.1l-8.4-20.8l5.2-2.1l9,22.2c1.5,3.6,1.6,7.1,0.3,10.4c-1.5,3.7-4.1,6.2-7.8,7.8c-3.7,1.5-7.4,1.5-11-0.1
			c-3.2-1.4-5.6-4-7.1-7.6l-9-22.2L271.7,60.7z"/>
		<path fill="#FFFFFF" d="M311.9,61.6l9.6-18.4l7.2-2.2l-11.2,21l22.1,14.6l-7.2,2.2l-17.7-12l-0.8,1.4l4.5,14.8l-5.4,1.6L302.2,49
			l5.4-1.6L311.9,61.6z"/>
		<path fill="#FFFFFF" d="M361.8,39.5l-6.4,1.1l2.2-5.7l8.9-1.5l6.2,36.8l-5.5,0.9L361.8,39.5z"/>
		<path fill="#FFFFFF" d="M395.3,35.1L377,36.9l-0.5-5.3l27.6-2.8l-19.5,40.7l-4.7-2.4L395.3,35.1z"/>
		<path fill="#FFFFFF" d="M428,46.4c0.2-5.2,2.4-9.7,6.4-13.2c4-3.6,8.7-5.2,14.1-5c5.3,0.3,9.8,2.4,13.4,6.3
			c3.6,4,5.3,8.6,5.1,13.9c-0.3,5.4-2.4,9.8-6.4,13.4c-4,3.6-8.7,5.2-14.2,5c-4.8-0.2-9-2.1-12.7-5.6
			C429.6,57.2,427.7,52.3,428,46.4z M433.7,46.7c-0.2,4.1,1,7.6,3.7,10.3c2.6,2.8,5.7,4.3,9.3,4.4c3.9,0.2,7.3-1,10.1-3.6
			c2.8-2.6,4.3-5.9,4.5-9.8c0.2-4-1-7.4-3.5-10.2c-2.5-2.8-5.7-4.3-9.6-4.5c-3.9-0.2-7.2,1-10,3.6C435.3,39.5,433.9,42.8,433.7,46.7
			z"/>
		<path fill="#FFFFFF" d="M503.7,37.1l-1,6.6c-2.8-3.2-5.9-5-9.4-5.5c-3.8-0.6-7.2,0.3-10.2,2.6c-3,2.3-4.8,5.4-5.4,9.3
			c-0.6,3.9,0.2,7.3,2.4,10.4c2.2,3.1,5.2,4.9,9,5.4c2,0.3,3.7,0.2,5.1-0.2c0.8-0.2,1.7-0.5,2.6-0.9c0.9-0.4,1.9-0.9,2.9-1.6l-1,6.7
			c-3.5,1.3-6.9,1.7-10.4,1.2c-5.3-0.8-9.5-3.3-12.7-7.6c-3.1-4.3-4.3-9-3.5-14.3c0.7-4.7,2.9-8.6,6.6-11.9
			c4.5-3.9,9.8-5.4,15.8-4.5C497.8,33.4,500.8,34.8,503.7,37.1z"/>
		<path fill="#FFFFFF" d="M522,44.6l-7.2,31.2l-5.5-1.3l7.2-31.2l-8.3-1.9l1.2-5.1l22.2,5.1l-1.2,5.1L522,44.6z"/>
		<path fill="#FFFFFF" d="M529,59.5c1.6-5,4.8-8.7,9.7-11.1c4.8-2.4,9.8-2.8,14.9-1.1c5.1,1.6,8.8,4.8,11.2,9.6
			c2.5,4.8,2.9,9.7,1.2,14.8c-1.7,5.1-4.9,8.8-9.7,11.2c-4.8,2.4-9.8,2.7-15,1.1c-4.6-1.5-8.2-4.4-10.8-8.7
			C527.6,70.4,527.1,65.2,529,59.5z M534.3,61.3c-1.3,3.9-1,7.6,0.8,10.9c1.8,3.4,4.4,5.6,7.8,6.7c3.7,1.2,7.3,0.9,10.7-0.8
			c3.4-1.8,5.7-4.5,6.9-8.3c1.2-3.8,1-7.4-0.7-10.7c-1.7-3.4-4.4-5.7-8.1-6.9c-3.7-1.2-7.2-0.9-10.6,0.8
			C537.8,54.8,535.6,57.6,534.3,61.3z"/>
		<path fill="#FFFFFF" d="M565.1,91.7L580,57.5l5.1,2.2c2.3,1,4,2,5.2,2.9c1.2,0.9,2.1,2.1,2.7,3.3c0.6,1.3,0.9,2.7,0.9,4.2
			c0,1.6-0.3,3-0.9,4.4c-1.1,2.5-2.9,4.1-5.5,5c1.5,1.4,2.5,3.1,2.9,5.1c0.4,2,0.2,4-0.7,6.1c-1.2,2.7-3.1,4.5-5.8,5.5
			c-1.6,0.6-3.2,0.9-4.9,0.7c-1.7-0.2-3.8-0.9-6.1-1.9L565.1,91.7z M572.4,89.1l3.2,1.4c2.3,1,4.2,1.3,5.7,0.9
			c1.6-0.5,2.7-1.5,3.4-3c0.6-1.5,0.6-3,0-4.4c-0.6-1.5-2.4-2.8-5.1-4l-2.6-1.1L572.4,89.1z M578.8,74.4l1.6,0.7
			c1.9,0.8,3.5,1,4.8,0.6c1.3-0.5,2.3-1.5,3-3.2c0.7-1.6,0.8-3,0.2-4.3c-0.6-1.2-1.7-2.2-3.4-3l-1.8-0.8L578.8,74.4z"/>
		<path fill="#FFFFFF" d="M623.4,84.2l-13.2-6.9l-4.2,7.9l12.8,6.7l-2.5,4.7l-12.8-6.7l-5.8,11l13.2,6.9l-2.5,4.7l-18.2-9.6l17.3-33
			l18.2,9.6L623.4,84.2z"/>
		<path fill="#FFFFFF" d="M632.9,108.8l1.3,19.6l-5.8-3.7l-0.9-18.6l-0.9-0.5l-8.1,12.9l-4.8-3L633.6,84l5.6,3.5
			c4.2,2.6,6.7,5.3,7.6,8c1,3,0.5,6-1.3,8.8c-1.4,2.2-3.2,3.8-5.5,4.6C637.6,109.7,635.3,109.7,632.9,108.8z M629.3,101.5l1.5,0.9
			c4.5,2.8,7.9,2.5,10-0.9c2-3.2,0.8-6.2-3.5-9l-1.7-1.1L629.3,101.5z"/>
		<path fill="#FFFFFF" d="M670.1,135.7l-1,19.6l-5.3-4.3l1.3-18.6l-0.8-0.6l-9.6,11.8l-4.4-3.5l23.5-28.9l5.1,4.2
			c3.8,3.1,6,6.1,6.5,8.9c0.6,3.1-0.2,6-2.3,8.6c-1.7,2-3.7,3.3-6.1,3.9C674.7,137.1,672.3,136.8,670.1,135.7z M667.3,128l1.4,1.1
			c4.1,3.4,7.5,3.5,10.1,0.3c2.4-3,1.6-6.1-2.4-9.3l-1.6-1.3L667.3,128z"/>
		<path fill="#FFFFFF" d="M708.6,148.7l-10.9-10.3l-6.1,6.5l10.6,10l-3.6,3.8l-10.6-10l-8.5,9.1l10.9,10.3l-3.6,3.8l-15-14.1
			l25.6-27.1l15,14.1L708.6,148.7z"/>
		<path fill="#FFFFFF" d="M722,155.2l-23.4,21.8l7.5,8l-3.9,3.6l-11.3-12.1l27.3-25.4L722,155.2z"/>
		<path fill="#FFFFFF" d="M742.4,187l-9.5-11.6l-6.9,5.7l9.2,11.2l-4.1,3.3l-9.2-11.2l-9.6,7.9l9.5,11.6l-4.1,3.3l-13-15.9
			l28.9-23.6l13,15.9L742.4,187z"/>
		<path fill="#FFFFFF" d="M741.6,225.6l-9-13.2l-9.8,1.6l-3.4-5l43.1-7l-22.8,37l-3.5-5.1L741.6,225.6z M744.7,220.8l7.4-11.7
			l-13.7,2.3L744.7,220.8z"/>
		<path fill="#FFFFFF" d="M778.8,243.9l-4.6-2.6c0.9-1.5,1.3-2.7,1.3-3.6c0.1-1-0.2-2-0.9-3.1c-0.8-1.4-1.8-2.3-3.1-2.7
			c-1.3-0.5-2.5-0.4-3.6,0.3c-1.6,0.9-2.2,2.8-1.8,5.7l0.5,4c0.4,3.2,0.2,5.9-0.6,8c-0.8,2.1-2.4,3.8-4.6,5c-3,1.7-6,2.1-9.1,1.2
			c-3.1-0.9-5.5-2.8-7.2-5.8c-1.6-2.8-2.1-5.6-1.4-8.4c0.6-2.8,2.4-5.2,5.1-7.4l3.9,4.3c-1.8,1.3-2.9,2.4-3.3,3.4
			c-0.8,1.8-0.7,3.7,0.4,5.6c0.9,1.5,2.1,2.5,3.7,2.9c1.6,0.4,3.2,0.2,4.7-0.7c0.6-0.4,1.2-0.8,1.6-1.2c0.4-0.5,0.8-1,1-1.6
			c0.2-0.6,0.4-1.3,0.4-2.1c0.1-0.8,0-1.7-0.1-2.7l-0.5-3.9c-0.6-5.5,0.8-9.3,4.4-11.3c2.4-1.4,5-1.6,7.7-0.7
			c2.7,0.9,4.8,2.8,6.4,5.5C781.4,235.8,781.2,239.7,778.8,243.9z"/>
		<path fill="#FFFFFF" d="M791.7,270.1l-6.4-13.5l-8.1,3.8l6.2,13.1l-4.8,2.3l-6.2-13.1l-11.3,5.3l6.4,13.5l-4.8,2.3l-8.8-18.6
			l33.7-16l8.8,18.6L791.7,270.1z"/>
	</g>
	<circle cx="428.4" cy="428.9" r="339.2"/>
	<g>
		<path fill="#E2D1BF" d="M232.5,509c-10.2,2-20.6,1-30.1-2.9c-9.1-3.6-16.8-9.6-22.4-17.2c-4.7-6.4-7.6-13.8-8.2-21.3
			c-0.8-8.2,1-16.3,5.2-24c6-11.1,15.6-20.9,24.9-30.4c17.1-17.4,33.2-33.9,27.7-56.5c-4.8-19.8-19.6-32.4-39.7-33.9
			c-18.8-1.4-42.2,7.8-51.8,31.6l-11.9-4.8c5.3-13.1,14.7-23.8,27-30.9c11.4-6.6,24.8-9.6,37.7-8.7c11.9,0.9,22.9,5.1,31.7,12.1
			c9.6,7.7,16.4,18.6,19.6,31.7c3.2,13.4,1.2,26.1-6.4,39c-6.3,10.8-15.6,20.3-24.6,29.5c-9.1,9.3-17.7,18.1-22.8,27.6
			c-5.7,10.4-4.9,21.9,2.2,31.5c8.8,12,24.4,17.9,39.7,15L232.5,509L232.5,509z"/>
		<path fill="#F9BE20" d="M147,351.7c-2.7,13.9-33,28.5-33,28.5s-2.6-37.1,11.9-43.8C135.9,331.9,149.1,340.9,147,351.7z"/>
	</g>
	<g>
		<defs>
			<circle id="SVGID_1_" cx="429.5" cy="429.1" r="429.1"/>
		</defs>
		<clipPath id="SVGID_2_">
			<use xlink:href="#SVGID_1_"  overflow="visible"/>
		</clipPath>
		<rect x="0" y="662.1" clip-path="url(#SVGID_2_)" fill="#775F4C" width="833.1" height="201.9"/>
	</g>
	<g>
		<path fill="#FFFFFF" d="M219.3,720.8v25.4h-4.5v-25.4H208v-4.2h18.1v4.2H219.3z"/>
		<path fill="#FFFFFF" d="M239.4,733.6l9.2,12.6h-5.5l-8.5-12.1h-0.8v12.1h-4.5v-29.6h5.2c3.9,0,6.7,0.7,8.5,2.2
			c1.9,1.6,2.9,3.8,2.9,6.5c0,2.1-0.6,3.9-1.8,5.4C242.9,732.2,241.3,733.2,239.4,733.6z M233.8,730.2h1.4c4.2,0,6.3-1.6,6.3-4.8
			c0-3-2.1-4.5-6.2-4.5h-1.6V730.2z"/>
		<path fill="#FFFFFF" d="M255.9,716.6v17.8c0,2.5,0.4,4.4,1.2,5.6c1.2,1.7,3,2.5,5.2,2.5c2.3,0,4-0.8,5.3-2.5
			c0.8-1.1,1.2-3,1.2-5.6v-17.8h4.5v19c0,3.1-1,5.7-2.9,7.7c-2.2,2.2-4.9,3.4-8,3.4s-5.9-1.1-8-3.4c-1.9-2-2.9-4.6-2.9-7.7v-19
			H255.9z"/>
		<path fill="#FFFFFF" d="M295.9,721l-3.6,2.1c-0.7-1.2-1.3-1.9-1.9-2.3c-0.6-0.4-1.5-0.6-2.5-0.6c-1.2,0-2.3,0.4-3.1,1.1
			c-0.8,0.7-1.2,1.6-1.2,2.6c0,1.4,1.1,2.6,3.2,3.5l3,1.2c2.4,1,4.2,2.2,5.3,3.6c1.1,1.4,1.7,3.1,1.7,5.1c0,2.7-0.9,5-2.7,6.8
			c-1.8,1.8-4.1,2.7-6.8,2.7c-2.6,0-4.7-0.8-6.4-2.3c-1.6-1.5-2.7-3.7-3.1-6.4l4.5-1c0.2,1.7,0.6,2.9,1.1,3.6c0.9,1.3,2.3,1.9,4,1.9
			c1.4,0,2.5-0.5,3.5-1.4c0.9-0.9,1.4-2.1,1.4-3.5c0-0.6-0.1-1.1-0.2-1.6c-0.2-0.5-0.4-0.9-0.7-1.3c-0.3-0.4-0.8-0.8-1.3-1.1
			c-0.5-0.4-1.2-0.7-1.9-1l-2.9-1.2c-4-1.7-6.1-4.2-6.1-7.5c0-2.2,0.8-4.1,2.5-5.6c1.7-1.5,3.8-2.3,6.3-2.3
			C291.3,716.1,294,717.7,295.9,721z"/>
		<path fill="#FFFFFF" d="M310,720.8v25.4h-4.5v-25.4h-6.8v-4.2h18.1v4.2H310z"/>
		<path fill="#FFFFFF" d="M317.6,744.1c0-0.7,0.3-1.3,0.8-1.9c0.5-0.5,1.1-0.8,1.9-0.8s1.4,0.3,1.9,0.8c0.5,0.5,0.8,1.1,0.8,1.9
			c0,0.7-0.3,1.4-0.8,1.9c-0.5,0.5-1.1,0.8-1.9,0.8c-0.8,0-1.4-0.3-1.9-0.8C317.9,745.5,317.6,744.8,317.6,744.1z"/>
		<path fill="#FFFFFF" d="M346.5,716.6v17.8c0,2.5,0.4,4.4,1.2,5.6c1.2,1.7,3,2.5,5.2,2.5c2.3,0,4-0.8,5.3-2.5
			c0.8-1.1,1.2-3,1.2-5.6v-17.8h4.5v19c0,3.1-1,5.7-2.9,7.7c-2.2,2.2-4.9,3.4-8,3.4s-5.9-1.1-8-3.4c-1.9-2-2.9-4.6-2.9-7.7v-19
			H346.5z"/>
		<path fill="#FFFFFF" d="M386.5,721l-3.6,2.1c-0.7-1.2-1.3-1.9-1.9-2.3c-0.6-0.4-1.5-0.6-2.5-0.6c-1.2,0-2.3,0.4-3.1,1.1
			c-0.8,0.7-1.2,1.6-1.2,2.6c0,1.4,1.1,2.6,3.2,3.5l3,1.2c2.4,1,4.2,2.2,5.3,3.6c1.1,1.4,1.7,3.1,1.7,5.1c0,2.7-0.9,5-2.7,6.8
			c-1.8,1.8-4.1,2.7-6.8,2.7c-2.6,0-4.7-0.8-6.4-2.3c-1.6-1.5-2.7-3.7-3.1-6.4l4.5-1c0.2,1.7,0.6,2.9,1.1,3.6c0.9,1.3,2.3,1.9,4,1.9
			c1.4,0,2.5-0.5,3.5-1.4c0.9-0.9,1.4-2.1,1.4-3.5c0-0.6-0.1-1.1-0.2-1.6c-0.2-0.5-0.4-0.9-0.7-1.3c-0.3-0.4-0.8-0.8-1.3-1.1
			c-0.5-0.4-1.2-0.7-1.9-1l-2.9-1.2c-4-1.7-6.1-4.2-6.1-7.5c0-2.2,0.8-4.1,2.5-5.6c1.7-1.5,3.8-2.3,6.3-2.3
			C381.9,716.1,384.5,717.7,386.5,721z"/>
		<path fill="#FFFFFF" d="M408.3,720.8h-11.9v7.1H408v4.2h-11.5v9.9h11.9v4.2H392v-29.6h16.3V720.8z"/>
		<path fill="#FFFFFF" d="M423.6,733.6l9.2,12.6h-5.5l-8.5-12.1h-0.8v12.1h-4.5v-29.6h5.2c3.9,0,6.7,0.7,8.5,2.2
			c1.9,1.6,2.9,3.8,2.9,6.5c0,2.1-0.6,3.9-1.8,5.4C427.2,732.2,425.6,733.2,423.6,733.6z M418.1,730.2h1.4c4.2,0,6.3-1.6,6.3-4.8
			c0-3-2.1-4.5-6.2-4.5h-1.6V730.2z"/>
		<path fill="#FFFFFF" d="M452.3,721l-3.6,2.1c-0.7-1.2-1.3-1.9-1.9-2.3c-0.6-0.4-1.5-0.6-2.5-0.6c-1.2,0-2.3,0.4-3.1,1.1
			c-0.8,0.7-1.2,1.6-1.2,2.6c0,1.4,1.1,2.6,3.2,3.5l3,1.2c2.4,1,4.2,2.2,5.3,3.6c1.1,1.4,1.7,3.1,1.7,5.1c0,2.7-0.9,5-2.7,6.8
			c-1.8,1.8-4.1,2.7-6.8,2.7c-2.6,0-4.7-0.8-6.4-2.3c-1.6-1.5-2.7-3.7-3.1-6.4l4.5-1c0.2,1.7,0.6,2.9,1.1,3.6c0.9,1.3,2.3,1.9,4,1.9
			c1.4,0,2.5-0.5,3.5-1.4c0.9-0.9,1.4-2.1,1.4-3.5c0-0.6-0.1-1.1-0.2-1.6c-0.2-0.5-0.4-0.9-0.7-1.3c-0.3-0.4-0.8-0.8-1.3-1.1
			c-0.5-0.4-1.2-0.7-1.9-1l-2.9-1.2c-4-1.7-6.1-4.2-6.1-7.5c0-2.2,0.8-4.1,2.5-5.6c1.7-1.5,3.8-2.3,6.3-2.3
			C447.8,716.1,450.4,717.7,452.3,721z"/>
		<path fill="#FFFFFF" d="M457.3,744.1c0-0.7,0.3-1.3,0.8-1.9c0.5-0.5,1.2-0.8,1.9-0.8c0.7,0,1.4,0.3,1.9,0.8
			c0.5,0.5,0.8,1.1,0.8,1.9c0,0.7-0.3,1.4-0.8,1.9c-0.5,0.5-1.1,0.8-1.9,0.8c-0.8,0-1.4-0.3-1.9-0.8
			C457.5,745.5,457.3,744.8,457.3,744.1z"/>
		<path fill="#FFFFFF" d="M481.7,746.2v-29.6h6.2c3,0,5.3,0.3,7.1,0.9c1.9,0.6,3.5,1.6,5,2.9c3.1,2.8,4.6,6.4,4.6,11
			c0,4.5-1.6,8.2-4.8,11c-1.6,1.4-3.3,2.4-5,2.9c-1.6,0.5-4,0.8-7,0.8H481.7z M486.1,742h2c2,0,3.7-0.2,5-0.6
			c1.3-0.4,2.5-1.2,3.6-2.1c2.2-2,3.3-4.6,3.3-7.8c0-3.2-1.1-5.9-3.3-7.9c-2-1.8-4.8-2.7-8.6-2.7h-2V742z"/>
		<path fill="#FFFFFF" d="M525.8,720.8H514v7.1h11.5v4.2H514v9.9h11.9v4.2h-16.3v-29.6h16.3V720.8z"/>
		<path fill="#FFFFFF" d="M535.6,716.6V742h8.7v4.2h-13.2v-29.6H535.6z"/>
		<path fill="#FFFFFF" d="M552.1,716.6v29.6h-4.5v-29.6H552.1z"/>
		<path fill="#FFFFFF" d="M560,716.6l8.2,20.5l8.3-20.5h4.9l-13.3,31.8l-13-31.8H560z"/>
		<path fill="#FFFFFF" d="M600.7,720.8h-11.9v7.1h11.5v4.2h-11.5v9.9h11.9v4.2h-16.3v-29.6h16.3V720.8z"/>
		<path fill="#FFFFFF" d="M616,733.6l9.2,12.6h-5.5l-8.5-12.1h-0.8v12.1H606v-29.6h5.2c3.9,0,6.7,0.7,8.5,2.2
			c1.9,1.6,2.9,3.8,2.9,6.5c0,2.1-0.6,3.9-1.8,5.4C619.6,732.2,618,733.2,616,733.6z M610.5,730.2h1.4c4.2,0,6.3-1.6,6.3-4.8
			c0-3-2.1-4.5-6.2-4.5h-1.6V730.2z"/>
		<path fill="#FFFFFF" d="M633.5,733.4l-9.7-16.8h5.1l6.8,11.8l6.8-11.8h5.1l-9.7,16.8v12.8h-4.5V733.4z"/>
		<path fill="#FFFFFF" d="M646.8,744.1c0-0.7,0.3-1.3,0.8-1.9c0.5-0.5,1.1-0.8,1.9-0.8c0.7,0,1.4,0.3,1.9,0.8
			c0.5,0.5,0.8,1.1,0.8,1.9c0,0.7-0.3,1.4-0.8,1.9c-0.5,0.5-1.1,0.8-1.9,0.8c-0.8,0-1.4-0.3-1.9-0.8
			C647.1,745.5,646.8,744.8,646.8,744.1z"/>
	</g>
	<path fill="#A39081" d="M749.6,404.4c-5.3-9.3-20.8-8.8-33.8-9.9c-9.2-0.8-19.9,0.1-29.1,1.1c-5.6,0.7-10.4,1.2-12.7,1.5
		c-11.5,1.3-21.4,2.5-25.1,2.6c-27.7,0.6-54,3.1-81.1,10.1c-19.5,5-54.9,13-57.6,32.7c-3.2,23.1,6.1,49.5,35.7,41.3
		c38.8-10.7,104.1-33.6,140.2-50.3c2-0.9,4.1-1.9,6.1-2.7c1.1-0.5,5-1.9,10.6-1.9c5.5,4.9,4.2,9.2,3.8,16.7c5.6-3.8,7-8,9.2-15.5
		c1.9,7.1,1.7,13,0,18.6c6.2-3.1,9.9-11,14.1-16.9c1,5.9,0.6,12.1-1.1,18C741.4,444.9,756.9,417.4,749.6,404.4z"/>
	<g>
		<path fill="none" d="M600.3,196.9l11.8-10C607.5,189.1,603.4,192.1,600.3,196.9z"/>
		
			<line fill="none" stroke="#C2C2C1" stroke-width="0" stroke-linecap="round" stroke-linejoin="round" x1="340.4" y1="676.7" x2="340.6" y2="676.7"/>
		<g>
			<path fill="none" d="M600.3,196.9l11.8-10C607.5,189.1,603.4,192.1,600.3,196.9z"/>
			<g>
				<path fill="none" d="M600.3,196.9l11.8-10C607.5,189.1,603.4,192.1,600.3,196.9z"/>
				<path fill="#E2D1BF" d="M619.3,209.8c11.8-6,22.3-27.8,22.9-40c-7.1,10.8-19.7,12-30.1,17.1l-11.8,10c3.1-4.8,7.2-7.8,11.8-10
					c6.1-9.5,9.2-21.8,9.2-30c-9.3,16-31.1,13-40.3,29.3v0.2c0,0-71.5,1.2-66.7,23.3c0,0-0.1,0-0.1,0c0.4,1.5,2.9,9.9,12.6,15.3
					c23.1,12.9,31.5,30.6,32.1,51.1c0,1.3,0,2.1,0,3.5c0,0,0.1,0,0.1,0c-0.2,41.6-33.5,60.3-33.5,60.3c-8.7,5.6-26.3,13.4-48.5,22
					L331.8,417c-34.4,11.2-59.3,18.9-59.3,18.9c-36.2,12.5-55.5,48.7-55.5,87.4c0,44.7,20.5,59.5,20.5,59.5s40,32.5,40,49.5
					c0,9.5-7.1,16.9-7.1,24.9c0,8,3.3,19.6,32.3,19.6c12.8,0,6.4,0,17.5,0c9-0.1,22.1,2.8,23.5,12.3c0.4-8.7,1.4-11.6-1.3-19.7
					c4.1,6.1,9.7,7.9,11.5,16.8c3.6-6.6,2.1-16.1,2.3-23.9c4.5,4.7,8,10.6,10.1,17c5.4-12.5,7.5-41.2-8.6-43.1
					c-9.8-1.2-7.2-0.2-22.6-0.2c-6.6,0-13.7-5.3-13.7-11.9c0-1.2,0.3-2.4,0.5-3.6c1.5-6,6.6-9.9,15.3-24.4
					c8.7-14.6,12.9-23.7,12.9-40.7c0-3.1-0.2-6.1-0.5-9.1c17.4,0,57.6-7.2,102.9-23.1c20.7-6.4,55-25.5,80.5-40.6
					c19.1-11.3,33.3-20.4,33.3-20.4c3.2-2.2,6.4-4.4,9.5-6.7l0.4-0.3l0,0c7.2-5.3,14.2-10.8,20.9-16.6
					c19.3-16.7,33.7-39.1,42.5-64.5c6.8-19.6,10.3-41,10.3-62.9C650.1,273.1,638.8,238.2,619.3,209.8z"/>
			</g>
		</g>
	</g>
	<g>
		<defs>
			<path id="SVGID_3_" d="M566.4,462.4c3.2-2.2,6.4-4.4,9.5-6.7l0.4-0.3l0,0c7.2-5.3,14.2-10.8,20.9-16.6
				c34.2-29.5,52.8-76.9,52.8-127.4c0-38-11.3-72.8-30.8-101.3c11.8-6,22.3-27.8,22.9-40c-7.1,10.8-19.7,12-30.1,17.1
				c6.1-9.5,9.2-21.8,9.2-30c-9.3,16-31.1,13-40.3,29.3v0.2c0,0-71.5,1.2-66.7,23.3c0,0-0.1,0-0.1,0c0.4,1.5,2.9,9.9,12.6,15.3
				c23.1,12.9,31.5,30.6,32.1,51.1c0,1.3,0,2.1,0,3.5c0,0,0.1,0,0.1,0c-0.2,41.6-33.5,60.3-33.5,60.3c-8.7,5.6-26.3,13.4-48.5,22"/>
		</defs>
		<clipPath id="SVGID_4_">
			<use xlink:href="#SVGID_3_"  overflow="visible"/>
		</clipPath>
		<path clip-path="url(#SVGID_4_)" fill="#FFFFFF" d="M554.7,326.7c11,2,21.8-0.1,29.7-6.1c-3.3,9.4-1.9,20.4,3.5,30.2
			c11,2,21.8-0.1,29.7-6.1c-3.3,9.4-1.9,20.4,3.5,30.2c14.2,2.6,28.1-1.7,35.9-12.4l40.2-55.6l19.6-27.1l-33.3-24l-2.1-1.5
			L670.7,227l-4-79l-30.5-18.5l-148.8,49.7l67.9,109.5v0C547.4,299.5,547.8,314.1,554.7,326.7z"/>
	</g>
	<g>
		<defs>
			<circle id="SVGID_5_" cx="429.5" cy="429.1" r="429.1"/>
		</defs>
		<clipPath id="SVGID_6_">
			<use xlink:href="#SVGID_5_"  overflow="visible"/>
		</clipPath>
	</g>
	<g>
		<path fill="#F16E21" d="M76.9,478c0.6,0.6,1.5,1.3,2.5,1.2c0.7-0.1,1.1-0.6,1.1-1.3c0-0.2-0.5-0.1-0.5,0.1c0,0.6-0.3,1.1-1,0.9
			c-0.6-0.2-1.2-0.6-1.6-1.1C77.2,477.7,76.8,477.9,76.9,478L76.9,478z"/>
	</g>
	<g>
		<path fill="#F16E21" d="M439.8,327.6c-0.8-0.8-2-1.5-3.2-1.6c-0.1,0-0.6,0.2-0.3,0.2c1.1,0,2.2,0.7,3,1.5
			C439.5,327.8,439.9,327.7,439.8,327.6L439.8,327.6z"/>
	</g>
	<polygon fill="#B2B1B2" points="734.2,422.2 734.2,422.2 734.2,422.2 	"/>
	<path fill="none" stroke="#000000" stroke-width="0.7746" d="M325.8,429.1"/>
	<path fill="none" stroke="#000000" stroke-width="0.7746" d="M313,422.3"/>
	<path fill="none" stroke="#000000" stroke-width="0.7746" d="M621.3,156.9"/>
	<path fill="none" stroke="#000000" stroke-width="0.7746" d="M480.4,246.6"/>
	<path fill="#FFFFFF" stroke="#000000" stroke-width="0.7746" d="M234.6,582.7"/>
	<path fill="none" stroke="#000000" stroke-width="2.0656" stroke-linecap="round" d="M325.5,499.1c14.2,9.9,23.1,26.4,25.4,47.7"/>
	<g>
		<path fill="#C2C2C1" d="M612.1,186.9"/>
		<path fill="#F9BE20" d="M558.9,276.1c-0.6-20.5-9-38.1-32.1-51.1c-9.8-5.5-12.2-13.9-12.6-15.3c-19.4,4.3-33.8,19.2-33.8,36.9
			c0,14.8,9.5,27.4,24.2,33.8c0-31.5,35.3-18.7,35.3-18.7c-6.9,3.6-12.5,8.3-16.6,13.2c5.4-3.5,15.7-7,23.3-8.4
			c0,0-6.9,9.5-10.2,19.5c0,0,5-6.4,22.4-6.5C558.9,278.2,558.9,277.4,558.9,276.1z"/>
	</g>
	<circle cx="538.3" cy="214.9" r="2.9"/>
	<path d="M537.3,213.6c-0.3,0-0.5-0.1-0.7-0.4c-0.2-0.4-0.1-0.8,0.3-1.1c5.5-3.2,11.9-4.3,18.1-3.3c0.4,0.1,0.7,0.5,0.6,0.9
		c-0.1,0.4-0.5,0.7-0.9,0.6c-5.9-1-12,0.1-17.1,3.1C537.6,213.6,537.4,213.6,537.3,213.6L537.3,213.6z"/>
	<g>
		<defs>
			<path id="SVGID_7_" d="M335.2,635.8c-6.6,0-11.1-5.3-11.1-11.9c0-1.2,0.3-2.4,0.5-3.6c1.5-6,4-9.9,12.7-24.4
				c8.7-14.6,12.9-23.7,12.9-40.7c0-3.1-0.2-6.1-0.5-9.1c17.4,0,57.6-7.2,102.9-23.1c36.3-11.3,113.8-61,113.8-61
				c3.2-2.2,6.4-4.4,9.5-6.7l0.4-0.3l0,0c7.2-5.3,14.2-10.8,20.9-16.6c34.2-29.5,52.8-76.9,52.8-127.4c0-38-11.3-72.8-30.8-101.3
				c11.8-6,22.3-27.8,22.9-40c-7.1,10.8-19.7,12-30.1,17.1c6.1-9.5,9.2-21.8,9.2-30c-9.3,16-31.1,13-40.3,29.3v0.2
				c0,0-4.9,0.1-12.1,0.6V49.5H195v400.7h52.6c-20,17.3-30.5,44.5-30.5,73c0,44.7,20.5,59.5,20.5,59.5s40,32.5,40,49.5
				c0,9.5-7.1,16.9-7.1,24.9c0,8,3.3,19.6,32.3,19.6c12.8,0,26.4,0,37.6,0c9-0.1,22.1,2.8,23.5,12.3c0.4-8.7,1.4-11.6-1.3-19.7
				c4.1,6.1,9.7,7.9,11.5,16.8c3.6-6.6,2.1-16.1,2.3-23.9c4.5,4.7,8,10.6,10.1,17"/>
		</defs>
		<clipPath id="SVGID_8_">
			<use xlink:href="#SVGID_7_"  overflow="visible"/>
		</clipPath>
		<g clip-path="url(#SVGID_8_)">
			<defs>
				<path id="SVGID_9_" d="M320.3,425.5c0,0,73.5,43.4,105.3,102.4c0,0,13.9,27,33.2,42.4c16.5,13.1,37.3,21.2,60.1,21.2
					c52.8,0,95.7-42.8,95.7-95.7c0-13.6-3.3-26.3-7.9-38.2c-26.9-68.7-133.4-144.1-162.3-178.7c-14.4-17.2-24.3-38.7-24.3-62.9
					c0-36.2,20.6-67.7,50.7-83.3l0,0c-122.9-17.8-222.6,71.6-222.6,161.4C248.1,348.1,276.5,395.9,320.3,425.5"/>
			</defs>
			<use xlink:href="#SVGID_9_"  overflow="visible" fill="#FFFFFF"/>
			<clipPath id="SVGID_10_">
				<use xlink:href="#SVGID_9_"  overflow="visible"/>
			</clipPath>
			<path clip-path="url(#SVGID_10_)" fill="#F9BE20" d="M425.8,298.3c-6.3,16.9-6,34.6,1.4,48.9c-14-7.8-31.8-8.6-48.8-2.9
				c-6.3,16.9-6,34.6,1.4,48.9c-14-7.8-31.8-8.6-48.8-2.9c-8.1,21.8-5.2,45,9.7,60.4L455,568.6l47.4-46l3-2.9l44.4-43.1l3-2.9
				l47.4-46L485.9,309.8C471,294.5,447.9,290.9,425.8,298.3z"/>
			<path clip-path="url(#SVGID_10_)" fill="#C9A150" d="M463.3,337c-6.3,16.9-6,34.6,1.4,48.9c-14-7.8-31.8-8.6-48.8-2.9
				c-6.3,16.9-6,34.6,1.4,48.9c-14-7.8-31.8-8.6-48.8-2.9c-8.1,21.8-5.2,45,9.7,60.4l114.3,117.9l47.4-46l3-2.9l44.4-43.1l3-2.9
				l47.4-46L523.4,348.5C508.5,333.2,485.4,329.6,463.3,337z"/>
			<path clip-path="url(#SVGID_10_)" fill="#A39081" d="M500.9,375.7c-6.3,16.9-6,34.6,1.4,48.9c-14-7.8-31.8-8.6-48.8-2.9
				c-6.3,16.9-6,34.6,1.4,48.9c-14-7.8-31.8-8.6-48.8-2.9c-8.1,21.8-5.2,45,9.7,60.4L546,670.5l55.2-46l3-2.9l44.4-43.1l3-2.9
				l47.4-46L560.9,387.2C546,371.9,522.9,368.3,500.9,375.7z"/>
		</g>
	</g>
	<g>
		<linearGradient id="SVGID_11_" gradientUnits="userSpaceOnUse" x1="612.1068" y1="465.5996" x2="580.1402" y2="433.6329">
			<stop  offset="0" style="stop-color:#E2D1BF"/>
			<stop  offset="0.3317" style="stop-color:#DFCDBA"/>
			<stop  offset="0.7183" style="stop-color:#D5C2AC"/>
			<stop  offset="1" style="stop-color:#CBB79D"/>
		</linearGradient>
		<path fill="url(#SVGID_11_)" d="M639.8,374c-8.8,25.4-23.2,47.8-42.5,64.5c-6.7,5.8-13.7,11.3-20.9,16.6l0,0l-0.4,0.3
			c-3.1,2.3-6.3,4.5-9.5,6.7c0,0-3.6,2.3-9.5,6c0.9,4.3,1.3,8.7,1.4,13.2c0.2,14.8-2.7,29.1-6.6,43.2c0.6,0,1.3-0.2,1.9-0.6
			c4.2-2.5,8.9-21.7,9.2-26.9c1.8,3.7,2.2,8.4,2.4,12.6c6.7-7.7,9.5-20.5,11.4-30.8c2.2,3.2,4.9,7.9,5.7,11.9
			c4.4-9.2,7.8-17.9,11.6-27.4c1.9,3.1,4,8.8,6.9,10.4c6.3-12.8,13.6-25.3,16.8-39.3c0.8,3.4,1.6,6.9,2.1,10.4
			c4.9-8.1,7.4-21,9.4-30.4c1.3,3.4,1.8,7.4,2.9,10.8c3.1-7.7,6-16.7,6.6-25.1C639.2,391.1,638.5,382.3,639.8,374z"/>
		<path fill="#E2D1BF" d="M565.3,638.4c-7.9-1.9-10.2,1.1-19.6,0.1c-13.8-1.6-20.2-5.8-19.7-12.8c1.6-21.7,11.5-50.8,13.3-58
			c3.6-14.5,8.5-28.7,12.4-43.1c3.9-14.2,6.8-28.5,6.6-43.2c-0.1-4.5-0.5-8.9-1.4-13.2c-3.3-16.3-12.5-30.5-30-36.6
			c-25.9-9.1-54.7,6.3-61.2,33.1c-10.6,44.2,8.4,96.3,16.7,139.2c1.6,8.2,3.2,16,3.2,25.7c0,10.2-6.1,18-6.1,26.6
			c0,8.6,8.8,17.7,40.1,17.7c13.9,0,2.8,0.1,14.8,0.1c0,0,6.5-0.7,11.2,1.7c3.2,1.6,5,4.1,7.7,9c3.8-7.5,2-11.1-0.1-16
			c5.5,6.2,8.4,9,12.4,18.1c6-10,5.3-12.1,3.7-20.6c4.9,5.1,6.3,6.6,9.6,13.1C590.4,660.7,577.5,641.4,565.3,638.4z"/>
	</g>
</g>
</svg>
