<?xml version="1.0" encoding="UTF-8" standalone="no"?><!DOCTYPE svg PUBLIC "-//W3C//DTD SVG 1.1//EN" "http://www.w3.org/Graphics/SVG/1.1/DTD/svg11.dtd"><svg width="100%" height="100%" viewBox="0 0 460 460" version="1.1" xmlns="http://www.w3.org/2000/svg" xmlns:xlink="http://www.w3.org/1999/xlink" xml:space="preserve" style="fill-rule:evenodd;clip-rule:evenodd;stroke-linejoin:round;stroke-miterlimit:1.41421;"><rect id="Artboard1" x="0" y="0" width="460" height="460" style="fill:none;"/><path d="M460,229.998c0,127.027 -102.975,230.002 -229.998,230.002c-127.027,0 -230.002,-102.975 -230.002,-230.002c0,-127.026 102.975,-229.998 230.002,-229.998c127.023,0 229.998,102.972 229.998,229.998" style="fill-rule:nonzero;"/><path d="M392.09,229.998c0,89.52 -72.568,162.089 -162.088,162.089c-89.52,0 -162.092,-72.569 -162.092,-162.089c0,-89.52 72.572,-162.088 162.092,-162.088c89.52,0 162.088,72.568 162.088,162.088" style="fill:#ff77da;fill-rule:nonzero;"/><path d="M230,74.67c-85.649,0 -155.327,69.678 -155.327,155.327c0,85.649 69.678,155.331 155.327,155.331c85.649,0 155.327,-69.682 155.327,-155.331c0,-85.649 -69.678,-155.327 -155.327,-155.327m0,324.181c-93.107,0 -168.85,-75.747 -168.85,-168.854c0,-93.103 75.743,-168.85 168.85,-168.85c93.107,0 168.85,75.747 168.85,168.85c0,93.107 -75.743,168.854 -168.85,168.854" style="fill:#fff;fill-rule:nonzero;"/><g><clipPath id="_clip1"><path d="M72.186,228.775c0,85.584 69.877,154.968 156.081,154.968c86.2,0 156.077,-69.384 156.077,-154.968c0,-85.585 -69.877,-154.969 -156.077,-154.969c-86.204,0 -156.081,69.384 -156.081,154.969Z"/></clipPath><g clip-path="url(#_clip1)"><path d="M74.118,302.366l0,-2.59c0.423,-2.228 0.308,-4.496 0.511,-6.741c0.774,-8.611 4.246,-16.089 9.564,-22.75c7.999,-10.017 18.642,-15.981 30.728,-19.632c1.048,-0.318 2.14,-0.632 3.252,-0.182c0.19,0.047 0.362,0.135 0.514,0.257c2.573,4.226 3.996,8.962 5.964,13.459c2.116,4.841 4.094,9.746 6.119,14.628c0.507,1.231 0.531,2.674 1.579,3.672c1.721,4.53 3.682,8.962 5.697,13.817c2.332,-4.906 3.938,-9.72 6.122,-14.284c1.4,-3.455 2.766,-6.92 4.209,-10.355c2.587,-6.16 5.18,-12.316 7.692,-18.51c0.348,-0.859 0.882,-1.606 1.372,-2.383c0.146,-0.136 0.311,-0.23 0.501,-0.288c1.24,-0.493 2.44,-0.101 3.607,0.254c10.839,3.313 20.589,8.496 28.256,17.019c7.205,8.005 11.681,17.231 11.908,28.239c0.033,1.714 0.145,3.435 0.152,5.156c-0.105,0.483 0.284,1.139 -0.487,1.386c-42.189,0.027 -84.378,0.007 -126.563,0.01c-0.254,0.014 -0.484,-0.047 -0.697,-0.182" style="fill:#536e7b;fill-rule:nonzero;"/><path d="M74.467,302.421c0.862,-0.017 1.724,-0.054 2.587,-0.054c40.67,0 81.341,0 122.012,-0.004c0.862,0 1.724,-0.023 2.586,-0.037c0.213,0.122 0.224,0.257 0.031,0.409l-127.195,0c-0.109,-0.064 -0.149,-0.132 -0.119,-0.203c0.031,-0.074 0.064,-0.111 0.098,-0.111" style="fill:#c0cace;fill-rule:nonzero;"/><path d="M201.682,302.736c-0.011,-0.136 -0.021,-0.274 -0.031,-0.409c0.031,-0.484 0.064,-0.964 0.095,-1.447c0.101,-0.007 0.203,-0.004 0.304,0.006c-0.243,0.592 0.47,1.376 -0.368,1.85" style="fill:#eef1f2;fill-rule:nonzero;"/><path d="M74.467,302.421c0.014,0.105 0.021,0.209 0.021,0.314c-0.318,0.071 -0.44,-0.05 -0.369,-0.368c0.118,0 0.233,0.017 0.348,0.054" style="fill:#edeff0;fill-rule:nonzero;"/><path d="M102.242,199.711c1.234,0.983 2.464,1.964 3.736,2.978c0.463,-0.673 0.263,-1.298 0.263,-1.876c0.021,-5.416 0.031,-10.836 -0.003,-16.252c-0.004,-0.95 0.135,-1.562 1.193,-1.91c13.513,-19.815 31.546,-26.576 45.31,-15.088c0.973,-0.325 1.578,-0.109 2.268,0.588c4.632,4.682 9.287,9.344 13.98,13.966c0.733,0.723 0.943,1.477 0.936,2.451c-0.027,5.967 -0.013,11.938 -0.013,18.077c1.697,-0.652 2.606,-2.154 4.016,-2.941c0.805,0.412 0.788,1.183 0.818,1.92c0.058,1.535 0.044,3.073 0.024,4.611c-0.024,1.542 -0.01,3.067 0.727,4.48c-1.623,0.057 -1.931,1.133 -2.171,2.498c-1.66,9.483 -6.423,17.077 -14.172,22.77c-0.872,0.639 -1.102,1.312 -1.102,2.309c0.003,4.185 -0.061,8.371 -0.102,12.556l-0.118,0.092c-0.128,0.189 -0.301,0.24 -0.51,0.152c-0.65,-0.589 -0.437,-1.373 -0.443,-2.086c-0.024,-2.894 0.02,-5.792 -0.021,-8.685c-0.02,-1.569 -0.179,-1.616 -1.555,-0.937c-11.474,5.659 -22.959,5.653 -34.433,0.003c-1.376,-0.676 -1.538,-0.625 -1.559,0.944c-0.04,2.894 0.004,5.791 -0.023,8.685c-0.004,0.71 0.213,1.501 -0.453,2.079c-0.213,0.074 -0.389,0.02 -0.524,-0.159l-0.061,-0.057c-0.044,-4.169 -0.129,-8.341 -0.108,-12.513c0.006,-1.092 -0.315,-1.774 -1.211,-2.434c-7.711,-5.69 -12.431,-13.276 -14.108,-22.715c-0.24,-1.366 -0.524,-2.438 -2.143,-2.505c1.234,-2.698 0.51,-5.565 0.73,-8.351c0.071,-0.936 -0.247,-2.018 0.832,-2.65" style="fill:#f9d29c;fill-rule:nonzero;"/><path d="M144.682,282.538c-2.102,5.112 -4.209,10.227 -6.311,15.338c-0.18,0.034 -0.359,0.068 -0.538,0.098c-2.069,-5.071 -4.138,-10.145 -6.207,-15.216c-0.883,-3.347 0.297,-6.556 0.676,-9.815c0.085,-0.723 0.135,-1.467 0.338,-2.177c0.673,-2.353 0.443,-4.344 -1.646,-6.062c-1.515,-1.244 -1.451,-2.427 -0.068,-3.776c2.187,-2.137 4.027,-4.649 6.721,-6.241c1.116,-0.186 1.873,0.5 2.573,1.173c1.683,1.626 3.354,3.269 4.963,4.97c1.366,1.45 1.528,2.586 0.054,3.803c-2.144,1.772 -2.269,3.787 -1.718,6.255c0.565,2.511 0.805,5.094 1.251,7.637c0.237,1.355 0,2.677 -0.088,4.013" style="fill:#d42d28;fill-rule:nonzero;"/><path d="M144.682,282.538c-0.835,-5.014 -1.663,-10.031 -2.508,-15.045c-0.227,-1.328 0.913,-1.788 1.589,-2.491c2.251,-2.34 2.279,-2.313 -0.007,-4.602c-1.521,-1.518 -3.029,-3.052 -4.571,-4.55c-0.409,-0.402 -0.703,-1.079 -1.484,-0.876c-0.088,-0.216 -0.057,-0.416 0.091,-0.598c0.433,-0.477 1.018,-0.683 1.62,-0.798c5.23,-1.018 10.436,-2.14 15.68,-3.1c0.791,-0.146 1.585,-0.332 2.204,0.419c0.179,0.014 0.359,0.03 0.538,0.044c-4.385,10.531 -8.767,21.066 -13.152,31.597" style="fill:#fefefe;fill-rule:nonzero;"/><path d="M137.716,254.79l-0.014,0.183c-2.234,2.279 -4.445,4.584 -6.717,6.822c-0.663,0.656 -0.866,1.177 -0.02,1.731c2.944,1.931 3.238,4.51 2.464,7.769c-0.889,3.753 -1.224,7.634 -1.802,11.461c-3.269,-7.762 -6.545,-15.521 -9.807,-23.287c-1.19,-2.836 -2.34,-5.686 -3.51,-8.533c0.19,-0.013 0.376,-0.03 0.565,-0.047c0.564,-0.67 1.285,-0.582 2.035,-0.443c4.956,0.916 9.896,1.917 14.825,2.962c0.852,0.179 1.724,0.348 1.981,1.382" style="fill:#fefefe;fill-rule:nonzero;"/><path d="M175.495,210.716c-1.318,0.061 -1.602,-0.656 -1.579,-1.846c0.061,-3.053 0.017,-6.109 0.014,-9.165c1.346,-1.173 2.691,-2.35 4.037,-3.523c3.12,2.099 4.415,5.048 3.729,8.506c-0.595,3.019 -3.013,5.365 -6.201,6.028" style="fill:#f6bc8a;fill-rule:nonzero;"/><path d="M102.242,199.711c-0.004,3.052 -0.051,6.105 0.01,9.158c0.024,1.18 -0.244,1.91 -1.572,1.843c-3.374,-0.66 -5.389,-2.793 -6.163,-6.025c-0.808,-3.391 0.581,-6.373 3.688,-8.496c1.346,1.173 2.691,2.346 4.037,3.52" style="fill:#f6bc8a;fill-rule:nonzero;"/><path d="M137.716,254.79c-5.501,-1.146 -11.001,-2.295 -16.502,-3.441c-0.777,-0.163 -1.558,-0.308 -2.339,-0.46c-0.315,-0.484 -0.392,-1.018 -0.392,-1.582c0.006,-3.98 0.003,-7.955 0.003,-12.178c13.097,7.492 25.981,7.529 38.862,0.176c0.534,0.25 0.348,0.74 0.352,1.129c0.013,3.506 0.003,7.012 0.01,10.514c0,0.683 0,1.359 -0.412,1.948c-6.529,1.298 -13.054,2.596 -19.582,3.894" style="fill:#f6bc8a;fill-rule:nonzero;"/><g><g opacity="0.699997"><clipPath id="_clip2"><rect x="118.189" y="199.03" width="8.003" height="7.936"/></clipPath><g clip-path="url(#_clip2)"><path d="M126.192,203.069c-0.044,2.167 -1.934,3.959 -4.115,3.894c-2.103,-0.061 -3.878,-1.859 -3.888,-3.938c-0.013,-2.147 1.863,-4.01 4.023,-3.996c2.161,0.013 4.024,1.903 3.98,4.04" style="fill:#020100;fill-rule:nonzero;"/></g></g></g><g><g opacity="0.699997"><clipPath id="_clip3"><rect x="150.008" y="199.029" width="7.993" height="7.935"/></clipPath><g clip-path="url(#_clip3)"><path d="M158.001,202.97c0.023,2.163 -1.823,4.002 -4.01,3.992c-2.18,-0.006 -4.013,-1.856 -3.982,-4.026c0.03,-2.076 1.829,-3.868 3.921,-3.905c2.177,-0.041 4.047,1.772 4.071,3.939" style="fill:#020100;fill-rule:nonzero;"/></g></g></g><g><g opacity="0.199997"><clipPath id="_clip4"><rect x="127.89" y="219.292" width="21.803" height="8.118"/></clipPath><g clip-path="url(#_clip4)"><path d="M138.972,227.41c-4.155,-0.297 -7.725,-1.717 -10.271,-5.132c-0.605,-0.811 -1.379,-1.89 -0.189,-2.738c0.997,-0.71 1.738,0.267 2.33,0.936c3.492,3.929 7.545,5.254 12.478,2.85c1.504,-0.733 2.529,-2.021 3.709,-3.134c0.595,-0.564 1.271,-1.271 2.106,-0.645c0.994,0.747 0.463,1.717 -0.064,2.478c-2.445,3.516 -6.005,4.956 -10.099,5.385" style="fill-rule:nonzero;"/></g></g></g><path d="M296.123,327.158l0,-2.59c0.423,-2.228 0.308,-4.496 0.511,-6.741c0.774,-8.611 4.246,-16.089 9.564,-22.749c7.999,-10.017 18.642,-15.981 30.728,-19.632c1.048,-0.318 2.14,-0.633 3.252,-0.183c0.19,0.047 0.362,0.135 0.514,0.257c2.573,4.226 3.996,8.962 5.964,13.459c2.116,4.841 4.094,9.747 6.119,14.629c0.507,1.23 0.531,2.674 1.579,3.671c1.721,4.53 3.682,8.963 5.697,13.817c2.332,-4.905 3.938,-9.719 6.122,-14.284c1.4,-3.455 2.766,-6.92 4.209,-10.355c2.587,-6.16 5.18,-12.316 7.692,-18.51c0.348,-0.858 0.882,-1.606 1.372,-2.383c0.146,-0.135 0.311,-0.23 0.501,-0.287c1.24,-0.494 2.441,-0.102 3.607,0.253c10.839,3.313 20.589,8.496 28.257,17.019c7.204,8.006 11.68,17.232 11.907,28.24c0.034,1.714 0.145,3.435 0.152,5.155c-0.105,0.484 0.284,1.14 -0.487,1.386c-42.189,0.028 -84.378,0.007 -126.563,0.011c-0.254,0.013 -0.484,-0.048 -0.697,-0.183" style="fill:#536e7b;fill-rule:nonzero;"/><path d="M320.209,220.984c0.129,-5.775 -0.094,-11.549 0.653,-17.317c2.143,-16.505 13.161,-29.882 28.304,-34.156c2.373,-0.669 4.797,-1.027 7.241,-1.311c0.386,-0.044 0.896,0.179 1.096,-0.403l1.849,0c2.911,0.409 5.842,0.068 8.76,0.19c1.274,0.05 2.559,-0.166 3.827,0.135c1.152,2.231 2.322,4.452 3.451,6.697c0.376,0.741 0.775,1.278 1.698,1.484c12.752,2.833 19.571,11.15 21.853,23.683c1.268,6.957 0.892,13.983 1.031,20.988c-0.341,2.248 -2.414,2.88 -3.844,4.111c-0.909,0.47 -1.217,1.555 -2.093,2.048c-0.682,0.382 -1.345,1.048 -2.194,0.565c-0.73,-0.416 -0.723,-1.234 -0.733,-1.981c-0.048,-3.939 0.017,-7.881 -0.027,-11.819c-0.082,-6.938 0.767,-4.73 -3.963,-9.575c-3.225,-3.306 -6.555,-6.508 -9.77,-9.821c-1.082,-1.116 -2.12,-1.362 -3.614,-0.862c-14.183,4.736 -28.355,9.503 -42.561,14.169c-1.552,0.51 -2.123,1.342 -2.103,2.945c0.061,4.8 0.048,9.604 0.007,14.408c-0.01,0.95 0.247,2.171 -0.913,2.583c-1.126,0.399 -1.927,-0.537 -2.708,-1.22c-0.504,-0.44 -0.73,-1.156 -1.399,-1.437c-1.431,-1.231 -3.496,-1.866 -3.848,-4.104" style="fill:#424242;fill-rule:nonzero;"/><path d="M296.472,327.213c0.862,-0.017 1.725,-0.054 2.587,-0.054c40.671,0 81.341,0 122.012,-0.003c0.862,0 1.724,-0.024 2.587,-0.037c0.213,0.121 0.223,0.256 0.03,0.409l-127.195,0c-0.109,-0.065 -0.149,-0.132 -0.119,-0.203c0.031,-0.075 0.065,-0.112 0.098,-0.112" style="fill:#c0cace;fill-rule:nonzero;"/><path d="M371.939,168.122c-3.827,0.013 -7.658,0.034 -11.485,0.034c-0.388,0 -0.879,0.186 -1.105,-0.359l12.573,0c0.02,0.108 0.027,0.217 0.017,0.325" style="fill:#ccc;fill-rule:nonzero;"/><path d="M296.472,327.213c0.014,0.105 0.021,0.21 0.021,0.315c-0.318,0.071 -0.44,-0.051 -0.369,-0.369c0.118,0 0.233,0.017 0.348,0.054" style="fill:#edeff0;fill-rule:nonzero;"/><path d="M324.247,224.503c1.234,0.984 2.464,1.964 3.735,2.979c0.463,-0.673 0.264,-1.299 0.264,-1.877c0.02,-5.419 0.03,-10.835 -0.003,-16.251c-0.004,-0.95 0.135,-1.562 1.193,-1.91c15.116,-4.997 30.218,-10.031 45.309,-15.089c0.974,-0.324 1.579,-0.108 2.269,0.589c4.632,4.682 9.287,9.344 13.979,13.966c0.734,0.723 0.944,1.477 0.937,2.451c-0.027,5.967 -0.014,11.937 -0.014,18.077c1.698,-0.653 2.607,-2.154 4.017,-2.942c0.804,0.413 0.787,1.184 0.815,1.921c0.06,1.535 0.047,3.073 0.027,4.611c-0.024,1.542 -0.011,3.066 0.726,4.48c-1.622,0.057 -1.93,1.132 -2.17,2.498c-1.66,9.483 -6.424,17.076 -14.172,22.77c-0.873,0.639 -1.102,1.311 -1.102,2.309c0.003,4.185 -0.061,8.371 -0.102,12.556l-0.118,0.091c-0.129,0.19 -0.301,0.24 -0.511,0.152c-0.649,-0.588 -0.436,-1.372 -0.443,-2.086c-0.023,-2.894 0.021,-5.791 -0.02,-8.685c-0.02,-1.568 -0.179,-1.616 -1.555,-0.936c-11.474,5.659 -22.959,5.652 -34.433,0.003c-1.376,-0.676 -1.539,-0.625 -1.559,0.943c-0.04,2.894 0.004,5.792 -0.024,8.686c-0.003,0.71 0.213,1.501 -0.453,2.079c-0.213,0.074 -0.388,0.02 -0.524,-0.159l-0.06,-0.058c-0.044,-4.168 -0.129,-8.34 -0.109,-12.512c0.007,-1.092 -0.314,-1.775 -1.21,-2.434c-7.712,-5.69 -12.431,-13.276 -14.108,-22.716c-0.24,-1.365 -0.524,-2.437 -2.143,-2.505c1.234,-2.698 0.51,-5.565 0.73,-8.35c0.071,-0.937 -0.247,-2.019 0.832,-2.651" style="fill:#f9d29c;fill-rule:nonzero;"/><path d="M366.688,307.33c-2.103,5.112 -4.21,10.227 -6.312,15.339c-0.18,0.034 -0.359,0.067 -0.538,0.098c-2.069,-5.071 -4.138,-10.146 -6.207,-15.217c-0.882,-3.347 0.297,-6.556 0.676,-9.815c0.085,-0.723 0.135,-1.467 0.338,-2.177c0.673,-2.353 0.443,-4.344 -1.646,-6.062c-1.515,-1.244 -1.451,-2.427 -0.068,-3.776c2.188,-2.137 4.027,-4.648 6.721,-6.241c1.116,-0.186 1.873,0.501 2.573,1.173c1.684,1.626 3.354,3.27 4.963,4.97c1.366,1.45 1.528,2.586 0.054,3.803c-2.143,1.772 -2.268,3.787 -1.717,6.255c0.564,2.512 0.804,5.095 1.25,7.637c0.237,1.356 0,2.678 -0.087,4.013" style="fill:#d42d28;fill-rule:nonzero;"/><path d="M366.688,307.33c-0.835,-5.017 -1.664,-10.031 -2.509,-15.044c-0.226,-1.329 0.913,-1.789 1.589,-2.492c2.252,-2.34 2.279,-2.313 -0.007,-4.601c-1.521,-1.518 -3.029,-3.053 -4.571,-4.551c-0.409,-0.402 -0.703,-1.078 -1.484,-0.875c-0.088,-0.217 -0.057,-0.416 0.092,-0.599c0.432,-0.477 1.017,-0.683 1.619,-0.798c5.23,-1.017 10.436,-2.14 15.68,-3.1c0.791,-0.145 1.586,-0.331 2.204,0.419c0.179,0.014 0.359,0.031 0.538,0.044c-4.385,10.531 -8.767,21.066 -13.151,31.597" style="fill:#fefefe;fill-rule:nonzero;"/><path d="M359.721,279.583l-0.014,0.182c-2.234,2.279 -4.445,4.585 -6.717,6.823c-0.663,0.655 -0.866,1.176 -0.021,1.731c2.945,1.93 3.239,4.51 2.465,7.769c-0.889,3.752 -1.224,7.633 -1.802,11.46c-3.269,-7.762 -6.545,-15.521 -9.808,-23.286c-1.19,-2.837 -2.339,-5.687 -3.509,-8.533c0.189,-0.014 0.375,-0.031 0.565,-0.048c0.564,-0.669 1.284,-0.581 2.035,-0.443c4.956,0.917 9.895,1.917 14.825,2.962c0.852,0.179 1.724,0.348 1.981,1.383" style="fill:#fefefe;fill-rule:nonzero;"/><path d="M324.247,224.503c-0.004,3.053 -0.051,6.106 0.01,9.159c0.023,1.18 -0.244,1.91 -1.572,1.842c-3.374,-0.659 -5.389,-2.792 -6.164,-6.024c-0.808,-3.391 0.582,-6.373 3.689,-8.496c1.345,1.173 2.691,2.346 4.037,3.519" style="fill:#f6bc8a;fill-rule:nonzero;"/><path d="M359.721,279.583c-5.501,-1.146 -11.001,-2.296 -16.502,-3.442c-0.777,-0.162 -1.558,-0.308 -2.339,-0.46c-0.315,-0.483 -0.393,-1.017 -0.393,-1.582c0.007,-3.979 0.004,-7.955 0.004,-12.178c13.097,7.492 25.981,7.529 38.862,0.18c0.534,0.246 0.348,0.737 0.352,1.125c0.013,3.506 0.003,7.012 0.01,10.515c0,0.683 0,1.359 -0.413,1.947c-6.528,1.298 -13.053,2.596 -19.581,3.895" style="fill:#f6bc8a;fill-rule:nonzero;"/><g><g opacity="0.699997"><clipPath id="_clip5"><rect x="340.194" y="223.822" width="8.002" height="7.936"/></clipPath><g clip-path="url(#_clip5)"><path d="M348.197,227.861c-0.044,2.167 -1.934,3.959 -4.115,3.895c-2.103,-0.061 -3.877,-1.86 -3.888,-3.939c-0.013,-2.147 1.863,-4.01 4.024,-3.996c2.16,0.013 4.023,1.903 3.979,4.04" style="fill:#020100;fill-rule:nonzero;"/></g></g></g><g><g opacity="0.699997"><clipPath id="_clip6"><rect x="372.014" y="223.822" width="7.992" height="7.935"/></clipPath><g clip-path="url(#_clip6)"><path d="M380.006,227.762c0.023,2.164 -1.823,4.003 -4.01,3.993c-2.181,-0.007 -4.013,-1.856 -3.983,-4.027c0.031,-2.076 1.829,-3.868 3.922,-3.905c2.177,-0.04 4.047,1.772 4.071,3.939" style="fill:#020100;fill-rule:nonzero;"/></g></g></g><g><g opacity="0.199997"><clipPath id="_clip7"><rect x="349.894" y="244.085" width="21.803" height="8.118"/></clipPath><g clip-path="url(#_clip7)"><path d="M360.977,252.203c-4.155,-0.298 -7.725,-1.717 -10.27,-5.132c-0.606,-0.811 -1.38,-1.89 -0.19,-2.738c0.998,-0.71 1.738,0.267 2.33,0.936c3.492,3.928 7.546,5.254 12.478,2.85c1.505,-0.734 2.529,-2.022 3.709,-3.134c0.595,-0.565 1.271,-1.271 2.106,-0.646c0.994,0.747 0.463,1.718 -0.064,2.478c-2.444,3.516 -6.004,4.957 -10.099,5.386" style="fill-rule:nonzero;"/></g></g></g><path d="M146.499,302.537c3.025,-5.068 6.998,-9.273 12.779,-10.812c15.548,-4.141 31.188,-7.944 46.79,-11.88c5.616,1.694 8.192,7.063 12.452,10.433c17.316,13.696 33.723,13.152 49.518,-2.187c3.202,-3.104 5.957,-6.792 10.47,-8.242c15.538,3.921 31.087,7.789 46.604,11.795c4.47,1.153 7.729,4.294 10.856,7.512c0.369,0.991 0.74,1.982 1.109,2.975c-0.216,19.602 -0.216,19.602 -20.221,19.602c-53.916,111.566 -113.699,-0.003 -170.547,-0.003c0.065,-6.397 0.125,-12.796 0.19,-19.193" style="fill:#464560;fill-rule:nonzero;"/><path d="M203.428,213.573c-7.272,-17.232 -2.553,-32.885 13.195,-43.757c7.752,-9.257 25.991,-14.545 36.249,-10.505c18.232,3.844 27.824,15.048 29.582,34.836c0.351,3.939 0.101,7.928 0.128,11.894c-3.6,3.779 -4.605,-0.365 -5.639,-2.211c-2.698,-4.798 -5.477,-9.517 -9.115,-13.642c-6.795,-7.708 -10.612,-7.928 -18.601,-1.525c-5.396,4.324 -11.552,7.235 -18.51,7.012c-11.988,-0.382 -21.109,3.124 -24.622,15.751c-0.341,1.224 -1.166,2.194 -2.667,2.147" style="fill:#fefefe;fill-rule:nonzero;"/><path d="M216.926,257.061c-5.128,-9.493 -8.046,-19.767 -10.453,-30.194c-0.396,-1.724 -1.812,-4.412 0.541,-5.331c2.911,-1.143 2.843,2.011 3.32,3.688c1.737,6.096 5.395,9.991 11.836,10.849c7.241,0.964 13.344,-0.794 17.238,-7.542c0.839,-0.879 1.819,-0.923 2.877,-0.501c2.215,1.643 0.994,4.635 2.583,6.339c-0.175,1.19 1.43,0.298 0.43,0.322c-0.22,0.006 -0.237,-0.22 -0.234,-0.677c0,-1.345 -0.551,-3.039 1.873,-2.664c6.109,4.794 12.78,6.512 20.234,3.591c4.335,-1.694 6.421,-5.328 7.817,-9.477c0.639,-1.886 -0.085,-5.409 3.465,-4.168c3.009,1.048 1.095,3.827 0.649,5.794c-2.502,10.975 -6.339,21.475 -11.542,31.469c-5.639,12.15 -16.157,15.038 -28.077,13.79c-9.919,-1.034 -19.257,-3.989 -22.557,-15.288" style="fill:#f2cda1;fill-rule:nonzero;"/><path d="M203.428,213.573c6.011,-16.938 8.715,-18.865 26.951,-19.666c7.746,-0.341 14.967,-2.664 19.913,-8.79c4.175,-5.173 7.965,-4.496 12.776,-1.454c7.059,4.466 10.974,11.326 14.974,18.25c0.98,1.7 0.449,5.656 4.54,4.128c-0.155,1.704 -0.412,3.401 -0.453,5.105c-0.179,7.627 -4.551,7.563 -9.797,5.159c-7.705,-3.533 -15.457,-3.489 -23.264,-0.747c-4.161,1.463 -8.313,1.812 -12.363,0.253c-8.111,-3.124 -15.971,-2.772 -23.994,0.419c-3.435,1.37 -7.846,3.925 -9.283,-2.657" style="fill:#f2cda1;fill-rule:nonzero;"/><path d="M278.507,279.848c-0.419,0.608 -0.791,1.257 -1.268,1.819c-23.706,27.796 -48.68,27.154 -71.172,-1.823c4.29,-1.643 8.557,-3.316 10.852,-7.752c1.687,-2.258 -1.119,-6.204 1.846,-7.353c2.958,-1.143 4.463,2.559 6.488,4.175c12.258,9.815 21.955,10.004 34.301,0.406c6.684,-5.2 6.779,-5.166 8.094,2.779c2.302,4.432 6.542,6.143 10.859,7.749" style="fill:#e6c099;fill-rule:nonzero;"/><path d="M267.647,272.1c-1.808,-1.086 -0.936,-3.253 -2.17,-5.166c-6.816,5.686 -13.442,11.386 -23.243,11.363c-10.146,-0.021 -16.373,-6.082 -22.841,-12.597c-2.302,1.562 0.048,4.993 -2.474,6.393c0.003,-5.011 0.006,-10.021 0.006,-15.031c13.426,17.817 31.824,18.361 50.638,1.494c0.027,4.517 0.057,9.03 0.084,13.544" style="fill:#cea983;fill-rule:nonzero;"/><path d="M252.87,159.311c-13.229,-0.456 -25.211,3.395 -36.249,10.505c1.518,-8.469 4.747,-15.691 13.675,-18.767c8.49,-2.925 15.961,-0.193 22.574,8.262" style="fill:#dbe2e8;fill-rule:nonzero;"/><path d="M228.778,217.785c3.347,0.858 8.039,-0.095 7.603,5.781c-0.412,5.575 -5.132,9.466 -11.518,9.27c-5.96,-0.186 -10.021,-3.006 -10.974,-9.088c-0.93,-5.926 4.097,-4.919 7.373,-5.859c0.535,0.406 0.94,0.913 1.248,1.501c0.571,1.038 0.838,2.742 2.238,2.58c2.383,-0.281 1.271,-2.874 2.228,-4.189c0.602,-0.443 1.203,-0.416 1.802,0.004" style="fill:#eeca9f;fill-rule:nonzero;"/><path d="M261.903,218.123c3.53,-0.392 7.435,-0.497 8.899,3.239c1.213,3.09 -0.301,6.474 -2.952,8.665c-4.243,3.513 -9.101,3.719 -13.969,1.464c-3.739,-1.738 -5.595,-5.125 -5.43,-9.05c0.193,-4.5 4.206,-3.898 7.232,-4.385c2.052,2.048 4.067,7.414 6.22,0.067" style="fill:#edc99f;fill-rule:nonzero;"/><path d="M246.939,231.351c-2.928,2.576 4.186,7.289 -0.571,7.776c-3.736,0.378 -3.54,-5.501 -4.152,-9.013c-0.084,-0.491 -0.067,-0.998 -0.098,-1.498c-1.886,-1.748 0.298,-4.29 -1.193,-6.119c1.981,-2.482 2.863,-0.477 3.462,1.031c1.01,2.546 1.717,5.21 2.552,7.823" style="fill:#bb875f;fill-rule:nonzero;"/><path d="M261.903,218.123c1.015,1.927 2.594,3.848 0.17,5.856c-0.974,0.808 -2.053,1.379 -3.391,0.926c-3.5,-1.19 -2.719,-4.249 -2.999,-6.849c2.082,-0.835 4.178,-2.898 6.22,0.067" style="fill:#363330;fill-rule:nonzero;"/><path d="M228.778,217.785l-0.348,0.385l-0.518,-0.051c-1.849,1.417 -3.817,2.292 -6.176,1.339l-0.474,-1.569c2.475,-2.072 4.984,-2.021 7.516,-0.104" style="fill:#4f4841;fill-rule:nonzero;"/><path d="M240.925,222.498c2.18,1.69 1.227,3.993 1.196,6.119c-0.906,-0.027 -1.808,-0.057 -2.711,-0.084c0.504,-2.012 1.011,-4.023 1.515,-6.035" style="fill:#d2ae88;fill-rule:nonzero;"/><path d="M234.949,252.343c4.432,0 7.644,-0.03 10.856,0.014c1.467,0.02 2.934,0.182 4.564,0.291c-4.324,6.234 -9.436,6.389 -15.42,-0.305" style="fill:#a5715e;fill-rule:nonzero;"/><path d="M271.994,210.573c-8.817,-1.292 -15.724,-1.251 -21.979,2.315c-0.176,0.099 -1.396,-0.902 -1.345,-1.288c0.111,-0.868 0.534,-1.862 1.153,-2.474c4.364,-4.324 14.804,-4.321 22.171,1.447" style="fill:#d09d74;fill-rule:nonzero;"/><path d="M223.044,204.481c1.481,0.007 3.006,-0.216 4.439,0.051c3.155,0.588 6.843,1.349 8.03,4.405c0.902,2.319 -1.342,2.495 -3.212,1.325c-1.251,-0.781 -2.529,-1.589 -3.905,-2.082c-3.141,-1.129 -6.268,-0.822 -9.422,0.253c-1.532,0.524 -3.942,1.342 -4.395,-0.882c-0.544,-2.668 2.099,-2.833 4.02,-3.043c1.467,-0.162 2.961,-0.034 4.445,-0.027" style="fill:#cf9b72;fill-rule:nonzero;"/><path d="M221.734,219.458c1.843,-1.441 3.939,-1.714 6.177,-1.336c1.278,3.128 1.406,6.295 -2.674,6.725c-3.361,0.351 -4.757,-2.002 -3.503,-5.389" style="fill:#363330;fill-rule:nonzero;"/><path d="M53.402,310.933c-5.971,-4.835 -7.597,-11.657 -8.428,-18.767c-1.955,-16.654 -2.282,-33.318 1.595,-49.742c4.588,-19.419 17.219,-29.74 37.111,-30.782c11.569,-0.608 22.58,1.069 31.783,8.915c7.701,6.569 11.461,15.363 13.209,25.028c2.934,16.211 2.911,32.507 0.578,48.802c-0.96,6.704 -3.236,12.752 -8.729,17.154c-2.867,4.196 -7.272,4.72 -11.799,4.953c-1.194,-0.118 -2.323,-0.48 -3.439,-0.906c-3.989,-1.602 -5.219,-5.71 -7.802,-8.594c-0.426,-0.423 -0.91,-0.771 -1.407,-1.109c-0.717,-0.564 -1.596,-0.974 -1.896,-1.947c0.081,-0.511 0.392,-0.866 0.794,-1.156c11.059,-6.448 15.656,-17.063 18.537,-28.774c0.865,-3.516 1.166,-7.063 0.318,-10.643c-1.288,-5.45 -4.524,-9.236 -9.838,-10.961c-5.812,-1.883 -11.387,-4.09 -15.684,-8.651c-0.886,-0.936 -1.477,-0.561 -2.194,0.186c-4.091,4.256 -9.334,6.42 -14.818,8.181c-4.226,1.356 -7.583,3.79 -9.341,8.047c-1.853,3.891 -2.042,7.995 -1.268,12.12c1.39,7.411 3.864,14.422 8.297,20.629c0.706,0.994 1.538,1.931 1.717,3.205c-0.565,3.439 0.034,4.115 3.83,4.318c2.015,0.818 4.139,1.535 4.017,4.33c-0.301,0.65 -0.812,1.011 -1.522,1.099c-1.707,-0.47 -3.465,-0.595 -5.192,-1.2c-1.748,-0.615 -2.955,1.623 -1.809,3.759c1.173,2.195 0.744,4.196 0.182,6.323c-5.203,3.34 -13.594,1.433 -16.802,-3.817" style="fill:#2e3233;fill-rule:nonzero;"/><path d="M53.402,310.933c4.483,3.252 9.135,5.889 14.984,4.03c0.615,-0.197 1.159,-0.606 1.737,-0.917c2.032,-2.904 3.138,-6.569 6.738,-8.181c0.828,-0.014 1.626,0.108 2.377,0.48c4.067,2.65 8.557,2.725 13.155,2.14c3.668,3.347 8.222,4.933 12.826,6.407c1.096,0.267 2.191,0.534 3.29,0.801c3.817,0.605 7.718,0.669 11.461,1.758c0.534,0.534 0.618,1.197 0.564,1.907c-0.149,0.814 -0.348,1.626 -0.426,2.457c-0.108,0.998 -0.581,1.921 -0.547,2.945c-0.034,0.876 -0.061,1.751 -0.19,2.624c-0.422,3.319 -0.96,6.599 -0.605,10c0.436,4.168 -0.818,5.703 -4.905,6.525c-5.596,1.122 -11.049,2.786 -16.563,4.219c-2.681,-0.003 -5.362,0.108 -8.046,0.088c-6.867,0.46 -13.598,-0.22 -20.187,-2.262c-2.884,-0.896 -5.849,-1.467 -8.82,-2.001c-1.975,-0.355 -3.696,-1.079 -3.841,-3.489c-0.013,-0.561 -0.017,-1.123 -0.01,-1.684c-0.003,-0.72 0,-1.443 -0.034,-2.164c-0.044,-0.916 -0.49,-1.747 -0.578,-2.653c-0.193,-6.049 -1.383,-11.948 -2.566,-17.854c-0.301,-1.495 -0.899,-3.046 0.118,-4.527c0.034,-0.217 0.058,-0.433 0.068,-0.649" style="fill:#e8c49c;fill-rule:nonzero;"/><path d="M53.333,311.582c1.468,7.593 3.594,15.092 3.344,22.938c-0.761,1.894 -1.511,3.787 0.666,5.312c-0.044,1.403 0.013,2.498 1.913,2.843c10.129,1.836 19.937,5.74 30.515,4.591c0.68,1.329 0.835,2.772 0.781,4.219c-0.047,1.234 0.426,1.971 1.637,2.056c1.349,0.091 2.978,1.555 3.992,-0.075c1.025,-1.643 2.769,-3.451 0.917,-5.669c0.104,-0.582 0.334,-1.021 0.987,-1.173c5.182,-1.214 10.355,-2.465 15.538,-3.658c3.604,-0.829 4.973,-2.681 4.202,-6.255c-0.73,-3.367 0.051,-6.545 0.774,-9.76c3.084,-1.363 3.04,-4.94 5.021,-7.09c2.39,-0.345 4.145,0.7 5.548,2.522c0.825,2.161 0.246,4.206 -0.521,6.235c-1.724,1.24 -2.319,2.65 -0.642,4.401c0.696,2.817 -0.031,5.511 -0.703,8.206c-0.396,1.044 -1.434,0.855 -2.222,1.183c-1.328,0.551 -2.326,1.579 -1.95,3.049c0.243,0.947 0.743,2.265 2.17,2.134c1.359,-0.122 2.671,-0.457 2.782,-2.266c0.044,-0.74 0.085,-1.636 1.224,-1.639c3.753,2.258 5.413,8.398 3.499,12.914c-1.207,0 -2.413,0 -3.62,0c-1.755,-0.104 -3.354,-1.399 -5.203,-0.662c-0.683,0.659 -1.082,1.592 -1.971,2.045c-14.886,1.481 -29.795,2.634 -44.765,1.958c-3.043,-0.136 -6.157,0.696 -9.152,-0.443c0.203,-0.474 0.612,-0.707 1.058,-0.893c1.251,-0.345 1.846,-1.112 0.751,-2.089c-0.842,-0.747 -2.036,-1.647 -3.189,-0.332c-0.804,0.92 -1.23,2.103 -1.896,3.128c-6.035,-0.66 -12.07,-1.305 -18.104,-1.985c-1.643,-0.182 -3.276,-0.47 -4.916,-0.71c-1.876,-4.229 -0.859,-9.862 2.63,-12.739c1.873,-1.548 2.451,-3.127 2.056,-5.493c-0.416,-2.502 -0.555,-5.078 -0.129,-7.627c0.261,-0.639 0.66,-1.211 1.353,-1.37c1.433,-0.331 2.464,-0.767 2.136,-2.654c-0.267,-1.538 -0.02,-3.096 -2.248,-3.401c-1.051,-0.142 -2.028,-0.872 -2.769,-1.754c-0.98,-2.397 -1.484,-4.943 -2.319,-7.387c3.607,-0.869 7.218,-1.741 10.825,-2.61" style="fill:#f3e8d5;fill-rule:nonzero;"/><path d="M132.058,314.194c7.934,2.292 15.325,5.413 18.317,14.024c1.829,5.263 2.829,10.761 3.198,16.342c0.111,1.67 -0.2,3.439 0.24,5.001c0.767,2.721 0.02,3.82 -2.793,4.097c-3.644,0.358 -7.251,1.062 -10.876,1.616c-1.467,-1.751 -1.609,-3.915 -1.629,-6.014c-0.051,-5.082 -1.19,-9.953 -2.482,-14.812c-0.852,-3.198 -2.322,-6.048 -4.709,-8.354c-1.335,-1.288 -2.16,-2.816 -2.644,-4.574c-0.443,-1.947 0.146,-3.786 0.73,-5.578c0.379,-1.16 0.974,-2.37 2.648,-1.748" style="fill:#ddb58b;fill-rule:nonzero;"/><path d="M129.338,321.639c0.037,0.831 0.405,1.514 1.028,2.031c7.018,5.812 7.873,14.2 8.959,22.324c0.405,3.039 0.737,6.17 0.818,9.28c-2.445,0.443 -4.892,0.886 -7.337,1.325c-0.25,-2.66 -0.466,-5.324 -0.757,-7.978c-0.24,-2.181 -1.575,-3.635 -3.367,-4.74c-1.474,0.216 -2.566,0.023 -2.025,-1.904c0.23,-3.157 0.46,-6.312 0.689,-9.466c-1.01,-1.389 -0.821,-2.549 0.67,-3.455c-0.064,-2.268 1.051,-4.419 0.673,-6.718c-0.234,-0.652 0.088,-0.787 0.649,-0.699" style="fill:#e8c49c;fill-rule:nonzero;"/><path d="M129.338,321.639c-0.217,0.233 -0.433,0.466 -0.649,0.699c-1.85,-0.733 -3.428,-2.261 -5.64,-1.954c-1.105,0.027 -2.457,1.082 -3.117,-0.747c-0.013,-0.673 -0.027,-1.345 -0.04,-2.018c-1.2,-2.313 -0.23,-4.172 1.244,-5.923c3.641,0.831 7.282,1.666 10.92,2.498c-3.066,1.694 -2.018,4.889 -2.718,7.445" style="fill:#ece0cf;fill-rule:nonzero;"/><path d="M121.136,311.694c-0.416,1.974 -0.829,3.949 -1.245,5.927c-4.04,0.794 -7.657,-0.886 -11.383,-1.928c4.51,0.088 8.348,-1.781 12.012,-4.151c0.213,0.013 0.42,0.064 0.616,0.152" style="fill:#dcb48a;fill-rule:nonzero;"/><path d="M123.26,355.261c2.373,-1.315 4.239,-0.392 5.926,1.339c-1.339,1.082 -2.944,0.669 -4.452,0.811c-2.33,0.541 -1.785,-0.882 -1.474,-2.15" style="fill:#42821d;fill-rule:nonzero;"/><path d="M123.26,355.261c0.057,1.014 0.132,2.015 1.474,2.15c-0.808,0.66 -1.779,0.555 -2.725,0.572c0.419,-0.906 0.835,-1.816 1.251,-2.722" style="fill:#e78681;fill-rule:nonzero;"/><path d="M78.218,304.877c0.131,-2.685 -2.854,-2.509 -3.831,-4.176c-2.093,-0.679 -3.641,-1.9 -4.155,-4.158c-5.463,-7.346 -9.155,-15.474 -10.551,-24.548c-0.649,-4.209 -0.747,-8.428 1.535,-12.306c2.674,-4.304 6.579,-6.762 11.4,-8.185c5.067,-1.498 9.855,-3.678 13.394,-7.867c0.839,-0.987 1.518,-0.97 2.441,0.024c3.76,4.047 8.503,6.457 13.75,7.961c1.075,0.308 2.153,0.623 3.174,1.062c4.01,1.728 6.373,4.236 6.204,9.196c-0.412,12.177 -2.096,23.878 -9.29,34.176c-2.019,2.884 -4.334,5.416 -7.252,7.387l-0.44,0.622c-1.193,2.57 -3.742,3.428 -5.95,4.727c-3.607,0.686 -6.748,-0.653 -9.828,-2.255c-0.835,-0.325 -1.186,-0.825 -0.601,-1.66" style="fill:#e8c49c;fill-rule:nonzero;"/><path d="M95.036,303.444c7.38,-7.661 12.499,-16.542 14.274,-27.121c0.977,-5.825 1.379,-11.718 1.203,-17.637c-0.054,-1.792 -1.099,-2.82 -2.448,-3.74c-2.64,-1.798 -5.716,-2.495 -8.675,-3.482c-4.767,-1.592 -8.803,-4.26 -12.208,-8.124c-3.404,4.311 -7.965,6.961 -13.171,8.415c-5.078,1.417 -9.365,3.942 -12.796,7.931c1.886,-4.99 5.997,-7.312 10.734,-8.769c5.997,-1.846 11.457,-4.477 15.298,-9.906c3.935,5.477 9.483,8.11 15.592,9.98c7.765,2.377 12.509,7.945 12.259,15.7c-0.437,13.51 -5.254,25.285 -15.745,34.302c-1.257,1.082 -2.603,2.12 -4.317,2.451" style="fill:#dcb48a;fill-rule:nonzero;"/><path d="M76.874,306.188c-2.928,2.038 -3.55,6.055 -6.748,7.857c-0.447,-2.505 -0.998,-5.001 -1.282,-7.526c-0.088,-0.794 -0.764,-2.333 0.704,-2.454c1.416,-0.122 3.198,-2.083 4.347,0.331c0.734,1.545 2.532,-0.274 3.175,1.193c0.135,0.264 0.061,0.46 -0.196,0.599" style="fill:#303233;fill-rule:nonzero;"/><path d="M105.22,314.892c-5.075,-0.331 -9.72,-1.582 -12.881,-6.011c1.18,-2.066 3.026,-2.799 5.311,-2.654c3.06,2.421 4.057,6.64 7.57,8.665" style="fill:#dcb48a;fill-rule:nonzero;"/><path d="M97.65,306.226c-1.772,0.886 -3.54,1.771 -5.311,2.654c-4.825,1.592 -9.341,1.119 -13.459,-2.015c-0.24,-0.139 -0.321,-0.281 -0.244,-0.423c0.078,-0.142 0.159,-0.213 0.237,-0.213c3.235,1.309 6.515,2.37 10.082,1.951c2.451,-1.102 4.743,-2.63 7.529,-2.85c0.388,0.298 0.777,0.595 1.166,0.896" style="fill:#cea480;fill-rule:nonzero;"/><path d="M70.23,296.544c1.387,1.386 2.773,2.772 4.159,4.155c-0.801,-0.294 -0.203,2.056 -1.511,0.801c-0.393,-0.378 -0.815,-1.112 -1.17,-1.082c-5.169,0.447 -2.259,-2.109 -1.478,-3.874" style="fill:#303233;fill-rule:nonzero;"/><path d="M96.484,305.328c-2.12,1.978 -4.832,2.394 -7.529,2.85c1.548,-1.829 3.735,-2.779 5.642,-4.111c0.629,0.42 1.258,0.842 1.887,1.261" style="fill:#d8b087;fill-rule:nonzero;"/><path d="M78.874,306.23c0.003,0.213 0.003,0.423 0.003,0.636c-0.666,-0.227 -1.335,-0.453 -2.005,-0.677c0.061,-0.202 0.125,-0.402 0.196,-0.601c0.382,-0.237 0.768,-0.474 1.15,-0.71c0.22,0.449 0.436,0.902 0.656,1.352" style="fill:#cd9f7d;fill-rule:nonzero;"/><path d="M97.099,347.796c2.177,0.679 3.806,1.636 1.234,3.756c-0.751,0.618 -0.707,1.193 -0.822,1.947c-0.189,1.237 -1.055,2.235 -2.296,1.924c-1.619,-0.406 -3.167,-1.048 -4.858,-1.271c-0.618,-0.085 -1.396,-0.988 -1.075,-1.481c1.153,-1.772 -0.49,-3.699 0.49,-5.406c2.424,0.446 4.984,-1.021 7.327,0.531" style="fill:#42821d;fill-rule:nonzero;"/><path d="M119.934,319.636c1.007,0.386 2.285,-0.368 3.117,0.751c-0.122,0.848 -0.551,1.802 -0.308,2.525c0.744,2.184 0.362,3.188 -2.164,3.006c-0.632,-0.044 -1.318,0.669 -1.977,1.034c0.044,-0.886 0.084,-1.768 0.128,-2.654c0.683,-0.808 1.633,-1.562 0.551,-2.728c-0.013,-0.724 -0.142,-1.484 0.653,-1.934" style="fill:#42821d;fill-rule:nonzero;"/><path d="M119.282,321.571c0.693,0.135 1.318,0.385 1.258,1.234c-0.085,1.085 -0.798,1.491 -1.809,1.494c0.182,-0.909 0.368,-1.819 0.551,-2.728" style="fill:#f2ac14;fill-rule:nonzero;"/><path d="M126.656,341.976c0.108,1.241 1.146,1.488 2.028,1.907c0.541,3.594 -0.48,5.109 -3.928,4.973c-1.992,-0.077 -2.607,-2.332 -2.921,-3.793c-0.497,-2.326 2.63,-4.158 4.821,-3.087" style="fill:#42821d;fill-rule:nonzero;"/><path d="M78.724,348.182c0.443,0.105 0.926,1.569 1.284,2.492c0.46,1.18 -1.284,2.082 -2.035,2.059c-1.116,-0.037 -2.488,-0.592 -2.522,-2.37c-0.03,-1.664 0.906,-2.086 3.273,-2.181" style="fill:#42821d;fill-rule:nonzero;"/><path d="M128.016,329.055c-0.71,1.059 -0.629,2.269 -0.669,3.456c-1.434,-0.007 -1.954,-1.106 -1.866,-2.147c0.118,-1.417 1.433,-1.342 2.535,-1.309" style="fill:#42821d;fill-rule:nonzero;"/><path d="M108.496,356.656c-0.97,0.061 -1.406,-0.206 -1.132,-1.332c0.334,-1.362 0.994,-2.066 2.444,-1.819c0.984,1.643 0.186,2.543 -1.312,3.151" style="fill:#42821d;fill-rule:nonzero;"/><path d="M108.496,356.656c0.545,-1.007 1.596,-1.802 1.312,-3.151c0.774,0.707 1.846,1.251 1.001,2.63c-0.636,1.038 -1.299,1.424 -2.313,0.521" style="fill:#e36e66;fill-rule:nonzero;"/><path d="M93.776,351.957c-1.001,-0.03 -1.884,-0.338 -1.836,-1.45c0.044,-1.058 0.632,-1.887 1.866,-1.89c1.004,-0.003 1.755,0.45 1.809,1.504c0.064,1.221 -0.734,1.741 -1.839,1.836" style="fill:#f2a819;fill-rule:nonzero;"/><path d="M126.556,345.141c-0.159,0.717 -0.547,1.254 -1.328,1.207c-0.774,-0.048 -1.157,-0.605 -1.143,-1.356c0.014,-0.835 0.575,-1.133 1.325,-1.122c0.812,0.013 1.211,0.436 1.146,1.271" style="fill:#f2aa16;fill-rule:nonzero;"/><path d="M78.261,350.222c-0.226,0.312 -0.361,0.704 -0.578,0.758c-0.568,0.142 -0.76,-0.318 -0.696,-0.761c0.034,-0.226 0.368,-0.558 0.578,-0.568c0.206,-0.01 0.429,0.335 0.696,0.571" style="fill:#f0a21f;fill-rule:nonzero;"/><g><g opacity="0.5"><clipPath id="_clip8"><rect x="93.566" y="260.395" width="6.117" height="6.18"/></clipPath><g clip-path="url(#_clip8)"><path d="M96.62,260.395c1.883,0.246 3.083,1.24 3.063,3.184c-0.02,1.806 -1.129,2.931 -2.921,2.992c-1.927,0.068 -3.141,-1.058 -3.195,-2.978c-0.054,-1.941 1.173,-2.938 3.053,-3.198" style="fill-rule:nonzero;"/></g></g></g><g><g opacity="0.5"><clipPath id="_clip9"><rect x="72.333" y="260.464" width="6.117" height="6.177"/></clipPath><g clip-path="url(#_clip9)"><path d="M75.4,266.64c-1.887,-0.24 -3.094,-1.227 -3.067,-3.174c0.027,-1.795 1.129,-2.938 2.921,-2.999c1.921,-0.064 3.138,1.058 3.195,2.982c0.054,1.944 -1.163,2.941 -3.049,3.191" style="fill-rule:nonzero;"/></g></g></g><g><g opacity="0.199997"><clipPath id="_clip10"><rect x="75.13" y="280.926" width="22.189" height="8.262"/></clipPath><g clip-path="url(#_clip10)"><path d="M86.409,289.188c-4.23,-0.304 -7.861,-1.748 -10.45,-5.223c-0.619,-0.828 -1.407,-1.924 -0.197,-2.786c1.018,-0.723 1.769,0.274 2.37,0.95c3.554,3.999 7.681,5.348 12.699,2.904c1.534,-0.747 2.576,-2.059 3.776,-3.191c0.605,-0.575 1.295,-1.295 2.143,-0.656c1.011,0.76 0.474,1.748 -0.067,2.522c-2.485,3.577 -6.109,5.044 -10.274,5.48" style="fill-rule:nonzero;"/></g></g></g><g><g opacity="0.0500031"><clipPath id="_clip11"><rect x="84.192" y="276.072" width="4.244" height="2.605"/></clipPath><g clip-path="url(#_clip11)"><path d="M88.436,277.245c-0.436,1.065 -1.281,1.505 -2.353,1.424c-0.919,-0.075 -1.971,-0.534 -1.886,-1.484c0.149,-1.684 1.66,-0.933 2.613,-1.015c0.707,-0.06 1.626,-0.091 1.626,1.075" style="fill-rule:nonzero;"/></g></g></g><g><g opacity="0.199997"><clipPath id="_clip12"><rect x="367.433" y="-124.531" width="325.269" height="235.556"/></clipPath><g clip-path="url(#_clip12)"><path d="M692.702,2.594l-128.649,108.432l-196.62,-152.217l145.374,-83.34l42.804,30.248l93.273,0.179l4.577,68.969l39.241,27.729Z" style="fill-rule:nonzero;"/></g></g></g><path d="M198.984,343.418c11.755,3.729 21.982,9.825 30.376,19.01c4.443,4.862 7.289,10.612 10.258,16.339c0.199,2.556 -1.738,3.577 -3.469,4.632c-12.942,7.884 -26.674,13.304 -42.101,13.439c-1.058,0.01 -2.197,-0.355 -3.175,0.399l-22.33,0c-3.313,-0.825 -6.738,-0.842 -10.101,-1.109c-12.83,-1.014 -23.872,-6.667 -34.691,-12.955c-1.643,-0.954 -3.35,-2.042 -3.12,-4.406c7.965,-18.046 21.83,-29.335 40.397,-35.234c0.182,0.091 0.365,0.182 0.548,0.267c1.308,1.386 0.912,2.995 0.764,4.665c-0.687,7.732 2.346,13.76 8.918,17.78c6.079,3.716 12.381,3.58 18.307,-0.375c6.4,-4.267 9.311,-10.332 8.175,-18.074c-0.206,-1.403 -0.2,-2.721 0.189,-4.06c0.277,-0.352 0.629,-0.457 1.055,-0.318" style="fill:#2b66fe;fill-rule:nonzero;"/><path d="M198.984,343.418c-0.237,0.017 -0.463,0.078 -0.676,0.179c-0.703,2.316 -2.34,4.23 -2.708,6.718c-0.156,1.065 -1.062,1.883 -2.401,1.666c-1.896,-3.218 -4.543,-3.505 -8.036,-2.758c-3.468,0.744 -7.241,0.825 -10.676,-0.085c-3.395,-0.899 -5.504,0.085 -7.262,2.762c-1.535,0.423 -2.444,-0.547 -2.634,-1.734c-0.419,-2.617 -2.021,-4.588 -3.208,-6.792l-0.355,0.159c-0.365,-0.365 -0.673,-0.828 -1.106,-1.085c-13.012,-7.807 -19.693,-19.19 -19.544,-34.454c-1.332,-1.183 -1.792,-2.718 -1.809,-4.442c-0.054,-4.815 -0.358,-9.636 0.305,-14.429c-0.251,-3.702 -0.497,-7.415 -0.264,-11.137c0.105,-1.663 0.139,-3.452 2.011,-4.182c1.64,-0.635 2.84,0.467 4.088,1.363c15.065,10.791 31.867,10.568 46.256,-0.565c3.002,-2.323 5.101,-5.372 7.072,-8.536c2.681,-4.311 4.706,-4.879 8.669,-1.968c4.212,3.093 8.279,6.39 12.377,9.642c2.627,2.086 2.525,5 2.627,7.908c0.084,2.488 -0.294,4.946 -0.338,7.431c0.659,4.851 0.365,9.713 0.3,14.571c-0.02,1.69 -0.507,3.184 -1.805,4.344c0.267,16.069 -7.411,27.455 -20.883,35.424" style="fill:#f9d29c;fill-rule:nonzero;"/><path d="M219.866,287.991c1.562,-8.432 -1.704,-14.331 -9.128,-18.452c-3.074,-1.708 -5.656,-4.294 -8.51,-6.515c-9.973,21.542 -38.517,30.768 -61.848,11.586l0,13.378c-1.724,1.964 -3.381,4.107 -6.461,2.356c0.014,-10.041 -0.618,-20.095 0.382,-30.126c1.992,-19.981 26.097,-37.75 46.76,-34.748c7.901,1.15 15.832,2.441 23.764,0.22c1.707,-0.48 2.248,0.375 2.562,1.734c0.541,2.326 0.639,4.764 -0.047,6.961c-0.832,2.661 0.264,3.939 2.191,5.413c11.582,8.874 17.786,20.349 16.944,35.265c-0.287,5.081 -0.111,10.186 -0.149,15.284c-3.076,1.748 -4.736,-0.395 -6.46,-2.356" style="fill:#252447;fill-rule:nonzero;"/><path d="M219.866,287.991c2.403,0.098 4.473,1.112 6.46,2.356c6.309,8.121 3.445,15.944 -6.457,17.645c0,-6.667 -0.003,-13.334 -0.003,-20.001" style="fill:#f6bc8a;fill-rule:nonzero;"/><path d="M133.919,290.345c1.992,-1.23 4.051,-2.275 6.461,-2.359c0,6.67 0,13.337 -0.003,20.007c-9.903,-1.707 -12.763,-9.517 -6.458,-17.648" style="fill:#f6bc8a;fill-rule:nonzero;"/><path d="M162.151,341.692c6.058,0.432 4.76,5.51 5.771,9.131c2.099,0.46 2.356,2.455 3.167,3.929c2.475,4.493 6.16,7.11 11.329,7.025c4.977,-0.078 8.513,-2.688 10.89,-7.022c0.811,-1.474 1.075,-3.469 3.175,-3.928c0.206,-0.971 0.689,-1.982 0.564,-2.911c-0.48,-3.624 1.366,-5.305 4.608,-5.984c3.601,8.303 1.518,17.492 -5.362,23.672c-6.67,5.994 -16.332,7.1 -24.26,2.779c-7.834,-4.273 -12.303,-13.317 -10.822,-21.935c0.274,-1.592 0.625,-3.171 0.94,-4.756" style="fill:#fefefe;fill-rule:nonzero;"/><path d="M196.482,350.828c-1.051,7.823 -7.001,13.185 -14.507,13.074c-7.346,-0.112 -13.036,-5.409 -14.054,-13.077c0.058,-1.021 0.166,-2.042 0.163,-3.06c-0.014,-2.444 0.943,-3.533 3.516,-2.86c7.062,1.846 14.087,1.572 21.224,0.091c5.507,-1.142 2.637,3.736 3.658,5.832" style="fill:#f6bc8a;fill-rule:nonzero;"/><path d="M180.327,332.792c-4.916,-0.355 -9.138,-2.032 -12.147,-6.072c-0.717,-0.96 -1.633,-2.235 -0.227,-3.239c1.18,-0.842 2.056,0.318 2.755,1.106c4.132,4.652 8.926,6.217 14.761,3.374c1.782,-0.869 2.992,-2.391 4.385,-3.709c0.706,-0.666 1.508,-1.505 2.491,-0.761c1.177,0.883 0.552,2.032 -0.074,2.931c-2.89,4.159 -7.103,5.863 -11.944,6.37" style="fill:#f4b18a;fill-rule:nonzero;"/><path d="M198.311,291.354c3.008,0.396 4.925,1.981 4.892,5.085c-0.034,2.884 -1.806,4.682 -4.669,4.78c-3.077,0.105 -5.011,-1.693 -5.099,-4.76c-0.087,-3.1 1.873,-4.689 4.876,-5.105" style="fill:#272648;fill-rule:nonzero;"/><path d="M161.938,301.329c-3.013,-0.383 -4.943,-1.958 -4.896,-5.072c0.041,-2.867 1.802,-4.692 4.666,-4.787c3.066,-0.105 5.01,1.691 5.098,4.76c0.088,3.104 -1.856,4.703 -4.868,5.099" style="fill:#272648;fill-rule:nonzero;"/><path d="M182.767,315.919c-0.538,1.311 -1.575,1.849 -2.891,1.748c-1.132,-0.092 -2.42,-0.656 -2.319,-1.823c0.183,-2.069 2.039,-1.146 3.215,-1.247c0.866,-0.075 1.995,-0.112 1.995,1.322" style="fill:#f6bd8a;fill-rule:nonzero;"/><path d="M343.705,337.318l0.382,-73.836c0,0 2.282,-43.768 -45.674,-45.671c0,0 -43.007,-4.568 -50.617,33.493l-2.286,87.918l98.195,-1.904Z" style="fill-rule:nonzero;"/><path d="M343.768,332.347c0.379,0.047 0.758,0.095 1.136,0.139c0.572,-0.264 1.16,-0.322 1.772,-0.183c3.401,1.214 6.592,3.06 10.085,3.922c5.73,1.409 8.57,5.233 9.895,10.602c1.403,5.69 3.665,11.224 3.178,17.262c-0.602,1.721 -1.738,3.222 -1.886,4.95c0.818,-0.362 -0.054,-2.005 1.264,-2.296c3.083,1.376 1.731,4.581 2.823,6.785c0.233,0.849 0.365,1.711 0.416,2.59c0.182,1.504 -0.43,2.867 -0.785,4.273c-0.463,2.563 -2.123,3.986 -4.51,4.703c-1.734,1.555 -3.468,3.114 -5.203,4.669c-2.045,1.599 -3.617,3.999 -6.653,3.932c-0.805,-0.234 -1.396,-0.737 -1.836,-1.434c-0.317,-1.65 -0.76,-3.225 -2.424,-4.087c-0.821,-2.495 0.42,-4.794 0.72,-7.877c-1.504,6.031 -3.62,11.244 -3.032,16.961c-0.102,0.943 -0.984,1.197 -1.535,1.741l-0.051,0.024c-1.095,0.588 -2.025,1.491 -3.306,1.71c-1.586,1.721 -3.631,2.468 -5.886,2.769l0.02,-0.006c-2.644,2.363 -6.204,2.224 -9.28,3.407c-9.99,2.637 -19.991,5.176 -30.475,4.338c-1.119,-1.684 -1.054,-3.597 -1.01,-5.48c0.459,-18.699 0.027,-37.405 0.26,-56.104c0.037,-2.83 -0.879,-6.191 2.634,-7.962c1.731,1.876 0.517,4.121 0.77,6.183c0,19.829 0.004,39.657 0.017,59.485c0.021,-19.216 0.021,-38.433 0.021,-57.642c0.05,-2.739 -0.058,-5.508 0.96,-8.141c8.168,-4.595 14.378,-11.329 20.146,-18.547c2.921,-0.619 5.358,0.804 7.887,1.849c1.893,0.906 3.506,2.34 5.572,2.921c3.12,0.866 6.146,1.914 8.296,4.544" style="fill:#e7193b;fill-rule:nonzero;"/><path d="M220.334,370.258c-0.081,-2.38 -0.119,-4.756 1.065,-6.944c0.77,0.342 0.426,1.231 0.872,1.785c-0.416,-1.254 0.253,-2.637 -0.632,-3.766c1.338,-5.48 -0.308,-11.738 4.263,-16.38c1.146,0.193 2.157,0.078 2.64,-1.197c0.517,-1.352 -0.25,-2.998 0.987,-4.158c4.392,-1.724 8.402,-4.503 13.341,-4.743c1.122,-0.054 1.224,-1.207 1.528,-2.049c0.311,-0.399 0.636,-0.781 0.977,-1.156c2.018,-1.579 4.507,-2.15 6.785,-3.171c2.282,-0.974 4.46,-2.164 6.698,-3.236c0.456,-0.22 0.929,-0.389 1.413,-0.544c1.738,-0.453 3.31,-1.349 5.01,-1.914c1.082,-0.246 2.137,-0.209 3.158,0.267c2.268,1.758 3.114,4.311 3.837,6.924c0.22,1.532 -2.329,4.869 2.313,3.506c5.077,2.225 9.838,5.159 15.206,6.718c0.406,0.365 0.609,0.825 0.609,1.372c-0.379,1.011 -1.261,1.508 -2.069,2.059c-1.295,2.134 1.798,3.128 1.332,5.058c0.02,0.622 -0.051,1.214 -0.193,1.815c-0.277,16.353 -0.061,32.693 -0.101,49.029c-0.004,1.328 0.027,2.664 0.561,3.918c0.47,0.926 0.926,1.853 1.176,2.867c0,6.018 -0.179,6.16 -6.758,5.321c-1.241,-0.368 -2.485,-0.733 -3.725,-1.102c0.338,-0.774 1.227,-0.436 1.788,-0.882c-1.258,0.429 -2.664,-0.281 -3.773,0.676c-3.411,-0.443 -6.819,-0.889 -10.23,-1.336c-2.698,-0.649 -5.778,0.142 -8.033,-2.157c-4.75,-0.645 -8.648,-3.184 -12.576,-5.656c-0.447,-0.997 -0.748,-2.265 -2.279,-1.21c-1.579,0.703 -2.319,-0.7 -3.367,-1.339c-1.312,-7.319 -4.253,-14.294 -4.625,-21.785c-0.027,-0.734 0.676,-0.159 -0.004,-0.497c-0.047,-0.024 -0.02,0.02 -0.02,0.023c0.007,1.224 -0.01,2.451 0.041,3.682c0.277,8.712 -0.379,9.737 -7.036,11.001c-3.11,-1.893 -5.25,-5.051 -8.837,-6.413c-2.059,-0.781 -2.641,-2.942 -2.63,-5.112l0.429,0.037c0.5,-0.876 0.294,-1.924 0.696,-2.826c0.927,-2.14 -0.953,-4.351 0.163,-6.485" style="fill:#e7193b;fill-rule:nonzero;"/><path d="M271.587,330.494c-1.082,-2.407 -2.16,-4.814 -3.242,-7.218c0.761,-3.121 3.218,-3.831 5.933,-4.182c0.886,0.057 1.694,0.324 2.39,0.886c6.248,11.275 14.818,15.125 25.174,11.268c3.644,-1.359 6.633,-3.564 8.797,-6.873c1.119,-1.714 1.869,-3.78 3.942,-4.713c2.454,-0.406 4.351,0.892 6.301,2.049c0.69,0.557 1.153,1.244 1.19,2.163c-4.297,8.425 -11.342,13.905 -19.507,18.186c-0.727,0.442 -1.467,0.5 -2.224,0.077c-1.67,1.079 -0.866,2.756 -0.869,4.138c-0.061,20.643 -0.061,41.29 -0.031,61.933c0,1.251 -0.368,2.204 -1.227,3.033c-1.91,1.193 -3.874,1.244 -5.889,0.29c-2.712,-3.272 -2.603,-7.424 -2.593,-11.136c0.064,-19.686 -0.998,-39.393 0.625,-59.066c0.014,-0.162 -0.571,-0.348 -0.94,-0.49c-5.963,-0.632 -11.014,-3.114 -15.125,-7.492c-1.488,-0.395 -2.992,-0.777 -2.705,-2.853" style="fill:#fbfafa;fill-rule:nonzero;"/><path d="M289.418,340.84c2.715,1.129 1.718,3.547 1.731,5.453c0.136,20.488 0.21,40.979 0.2,61.466c0,1.434 0.46,2.566 0.973,3.773c-2.64,1.214 -5.284,2.08 -7.968,0.109c4.442,0.537 7.113,-0.633 5.619,-5.826c-0.511,-1.027 -0.987,-2.092 -0.984,-3.245c0.061,-17.847 -0.541,-35.694 0.304,-53.535c0.159,-0.703 0.119,-1.396 -0.128,-2.076c-0.446,-1.751 -0.474,-3.455 0.537,-5.054c-0.061,-0.362 -0.155,-0.717 -0.284,-1.065" style="fill:#fcf7f8;fill-rule:nonzero;"/><path d="M238.657,376.143c0.081,6.346 3.157,12.026 4.097,18.199c0.251,1.636 0.251,2.948 -0.598,4.294c-1.048,0.51 -1.748,-0.007 -2.35,-0.802c-1.727,-1.217 -4.087,-1.923 -3.85,-4.736c1.768,-4.584 0.645,-9.382 1.01,-14.074c0.301,-1.116 -0.753,-3.026 1.691,-2.881" style="fill:#d21835;fill-rule:nonzero;"/><path d="M237.513,379.571c0.2,2.945 0.119,5.944 0.683,8.818c0.467,2.356 0.308,4.009 -2.052,4.993c-1.126,0.862 -2.174,0.805 -3.137,-0.264c-0.832,-0.686 -1.663,-1.376 -2.492,-2.062c5.112,-2.221 6.217,-6.488 5.866,-11.498c0.382,-0.5 0.761,-0.521 1.132,0.013" style="fill:#e41b3c;fill-rule:nonzero;"/><path d="M229.529,339.596c-0.422,1.525 2.056,3.05 -0.003,4.571c-1.42,0.348 -2.59,-0.206 -3.678,-1.038c-0.345,-2.819 1.46,-3.394 3.681,-3.533" style="fill:#ed173e;fill-rule:nonzero;"/><path d="M225.849,343.129c1.339,-0.051 2.748,-0.359 3.678,1.037c-0.095,1.092 -0.166,2.337 -1.413,2.654c-1.383,0.352 -1.707,-0.956 -2.211,-1.866c-0.02,-0.608 -0.037,-1.217 -0.054,-1.825" style="fill:#e51d3f;fill-rule:nonzero;"/><path d="M220.334,370.258c-0.088,2.343 2.714,4.656 0.067,7.022c-0.466,-0.274 -0.821,-0.649 -1.065,-1.132c-0.088,-2.036 -0.219,-4.078 0.998,-5.89" style="fill:#e8192f;fill-rule:nonzero;"/><path d="M221.639,361.333c1.555,1.255 0.876,2.871 0.355,4.527c-0.2,-0.848 -0.396,-1.697 -0.595,-2.545c0.081,-0.66 0.159,-1.322 0.24,-1.982" style="fill:#ea102f;fill-rule:nonzero;"/><path d="M219.335,376.148c0.355,0.379 0.71,0.757 1.065,1.133c-0.308,0.764 -0.616,1.524 -0.923,2.285c-0.048,-1.139 -0.095,-2.279 -0.142,-3.418" style="fill:#ef0a38;fill-rule:nonzero;"/><path d="M301.452,347.591l0,61.408c-0.308,0 -0.616,0.004 -0.92,0.004l0,-61.449c0.325,-0.467 0.632,-0.457 0.92,0.037" style="fill:#e70c31;fill-rule:nonzero;"/><path d="M351.518,396.507c-1.095,0.402 -2.194,0.808 -3.293,1.21c-3.539,-4.006 0.426,-7.793 0.511,-11.697c0.064,-3.053 1.643,-6.072 2.738,-9.73c2.986,4.442 0.278,8.475 0.237,12.411c0.382,0.321 0.646,0.723 0.811,1.193c0.379,1.978 -0.791,3.756 -0.74,5.693c-0.118,0.298 -0.206,0.605 -0.264,0.92" style="fill:#d41836;fill-rule:nonzero;"/><path d="M301.452,347.591c-0.308,0 -0.616,-0.01 -0.923,-0.037c-0.061,-1.806 -0.125,-3.611 -0.19,-5.416c0.744,-0.027 1.484,-0.054 2.225,-0.081c-0.369,1.845 -0.741,3.688 -1.112,5.534" style="fill:#ea052e;fill-rule:nonzero;"/><path d="M368.716,364.758c0.067,0.68 0.135,1.363 0.206,2.042c-0.129,0.886 -0.254,1.772 -0.49,3.425c-0.977,-2.468 -1.143,-4.057 0.284,-5.467" style="fill:#e71134;fill-rule:nonzero;"/><path d="M289.975,347.599c0,19.406 0,38.812 0,58.217c-0.365,-0.378 -0.726,-0.76 -1.088,-1.139c-1.214,-10.345 -0.433,-20.727 -0.473,-31.09c-0.031,-8.279 -0.714,-16.589 0.48,-24.848c0,-0.382 0.003,-0.764 0.003,-1.143c0.362,-0.375 0.72,-0.392 1.078,0.003" style="fill:#e80a33;fill-rule:nonzero;"/><path d="M288.893,348.739c-0.003,18.645 -0.003,37.293 -0.007,55.938c-1.416,-1.112 -1.119,-2.701 -1.119,-4.178c-0.013,-15.863 -0.013,-31.722 0,-47.585c0,-1.477 -0.294,-3.066 1.126,-4.175" style="fill:#e71a34;fill-rule:nonzero;"/><path d="M271.587,330.494c0.903,0.953 1.802,1.903 2.705,2.857c-0.328,1.879 -1.167,3.604 -3.259,2.231c-2.614,-1.711 -0.626,-3.482 0.554,-5.088" style="fill:#e11c3a;fill-rule:nonzero;"/><path d="M237.513,379.571c-0.378,-0.003 -0.753,-0.01 -1.132,-0.013c0,-2.715 0,-5.426 0,-8.506c3.056,1.295 1.998,3.428 2.275,5.091c-1.342,0.822 -1.092,2.174 -1.143,3.428" style="fill:#da1936;fill-rule:nonzero;"/><path d="M289.975,347.599c-0.358,-0.003 -0.716,-0.006 -1.078,-0.003c-0.666,-0.649 -1.312,-1.322 -2.005,-1.941c-0.693,-0.615 -2.657,-0.317 -1.717,-2.008c0.291,-0.524 1.69,-0.433 2.579,-0.625c3.036,-0.342 0.822,2.694 2.201,3.418c0.007,0.385 0.014,0.774 0.02,1.159" style="fill:#e01836;fill-rule:nonzero;"/><path d="M240.052,338.479c1.677,-1.586 3.708,-1.447 3.935,-0.92c0.676,1.592 -1.258,0.74 -1.88,1.298c-0.216,0.196 -0.913,-0.145 -2.055,-0.378" style="fill:#ea163e;fill-rule:nonzero;"/><path d="M289.957,346.439c-0.734,-1.139 -1.468,-2.278 -2.201,-3.418c0.649,-0.371 1.298,-0.743 1.944,-1.115c0.882,1.467 0.5,3.005 0.257,4.533" style="fill:#eb0733;fill-rule:nonzero;"/><path d="M325.552,298.555c-1.549,1.295 -3.094,2.586 -4.642,3.881c-0.913,2.455 -3.242,3.563 -5.088,5.014c-4.105,3.228 -4.679,6.555 -1.174,10.511c0.508,0.574 0.717,1.311 0.372,2.089c-4.696,8.966 -11.244,14.94 -22.218,13.936c-8.263,-0.754 -14.267,-5.575 -16.799,-13.622c0.503,-1.538 1.629,-2.451 3.059,-3.059c2.624,-5.075 2.306,-7.401 -1.366,-9.916c-0.395,0.237 -0.801,0.443 -1.213,0.646c-0.457,0.148 -0.889,0.088 -1.292,-0.176c-3.915,-2.583 -7.711,-5.298 -10.298,-9.348c0.173,-1.633 2.577,-1.819 2.347,-3.692c-2.103,-3.269 -1.606,-6.93 -1.569,-10.477c0.071,-6.589 -0.392,-13.192 0.284,-19.767c1.65,-4.51 5.108,-7.002 9.649,-6.174c2.731,0.501 3.945,-2.322 6.291,-1.541c1.038,0.388 1.671,1.217 2.286,2.065c2.546,3.009 3.945,-0.693 5.923,-1.027c11.065,-0.494 22.124,-1.258 33.159,0.243c2.204,8.006 0.71,16.153 0.794,24.237c0.017,1.819 -0.196,3.756 -0.5,5.96c-0.01,0.419 1.095,-0.615 0.375,-0.375c-0.419,-1.488 -0.152,-2.979 -0.017,-4.48c0.839,-6.433 0.139,-12.891 0.399,-19.324c0.091,-2.238 -0.497,-4.571 0.791,-6.674c0.663,-0.548 1.278,-0.497 1.846,0.145c0.653,12.398 -0.433,24.819 0.582,37.206c0.138,1.67 -0.491,2.921 -1.981,3.719" style="fill:#916a4b;fill-rule:nonzero;"/><path d="M315.02,320.051c-5.257,-5.95 -4.942,-9.466 1.238,-14.054c1.568,-1.163 3.103,-2.373 4.652,-3.563c-0.207,2.187 1.687,5.362 -3.253,5.051c-1.389,-0.088 -3.137,2.904 -4.422,4.696c-0.74,1.034 0.132,2.167 0.977,2.992c0.521,0.504 1.403,1.325 1.86,0.487c1.484,-2.752 5.21,-2.424 5.588,-1.427c0.788,2.072 1.332,4.993 -0.652,7.245c-0.21,0.24 -0.129,0.734 -0.183,1.109c-1.934,-0.845 -3.871,-1.69 -5.805,-2.536" style="fill:#040303;fill-rule:nonzero;"/><path d="M276.272,307.847c0.024,-0.453 0.051,-0.906 0.075,-1.359c3.174,-1.173 4.087,1.062 4.374,3.313c0.342,2.708 0.693,5.569 -0.956,8.104c-1.255,0.822 -2.509,1.64 -3.763,2.458c-0.633,-0.078 -1.265,-0.155 -1.897,-0.237c0.72,-0.825 1.44,-1.653 2.16,-2.478c0.531,-3.266 1.265,-6.531 0.007,-9.801" style="fill:#906d52;fill-rule:nonzero;"/><path d="M269.487,296.216c-1.532,0.764 -3.063,1.529 -4.592,2.296c-1.599,-1.599 -1.906,-3.709 -1.916,-5.754c-0.071,-11.529 -0.038,-23.06 0.023,-34.589c0.004,-0.683 0.531,-1.366 0.815,-2.049c0.25,0.179 0.5,0.359 0.754,0.534c2.664,2.82 0.96,6.552 2.035,9.707c0.027,8.127 0.098,16.255 -0.044,24.375c-0.044,2.539 0.484,4.432 2.925,5.48" style="fill:#976e4e;fill-rule:nonzero;"/><path d="M282.102,257.424c-1.343,0.125 -2.779,0.162 -2.891,2.001c-0.061,0.988 -0.456,2.387 -1.393,1.525c-4.689,-4.321 -7.306,0.406 -10.612,2.15c-1.707,-2.153 -1.271,-4.087 0.602,-5.872c1.977,-0.96 4.256,0.243 6.217,-0.862c2.299,-0.088 4.601,-0.176 6.904,-0.264c2.65,-1.136 5.301,-1.122 7.951,-0.007c1.528,0.014 3.056,0.024 4.588,0.037c0.771,-0.49 1.558,-0.595 2.37,-0.084c10.213,0.074 20.43,0.149 30.643,0.22c0.376,0.277 0.49,0.537 0.342,0.777c-0.139,0.234 -0.278,0.349 -0.416,0.349c-0.325,0.006 -0.649,0.01 -0.974,0.016c-10.842,1.214 -21.728,0.193 -32.584,0.599c-1.129,0.04 -2.258,-0.112 -3.276,0.531c-2.877,2.221 -5.183,0.605 -7.471,-1.116" style="fill:#906a4c;fill-rule:nonzero;"/><path d="M326.407,257.395c0.027,-0.375 0.05,-0.751 0.077,-1.126c1.89,1.413 1.197,3.472 1.211,5.281c0.064,8.371 -0.027,16.738 0.06,25.106c0.031,2.779 -0.297,5.5 1.157,8.313c0.879,1.704 0.48,4.919 -3.361,3.587c2.1,-6.65 0.852,-13.486 1.025,-20.234c0.179,-6.968 -0.095,-13.949 -0.169,-20.927" style="fill:#040303;fill-rule:nonzero;"/><path d="M276.272,307.847c3.131,3.27 2.864,6.535 -0.007,9.801c-1.538,-2.447 -1.518,-6.437 -5.913,-5.558c-0.307,-4.175 7.053,1.998 4.842,-4.233c0.358,-0.125 0.716,-0.128 1.078,-0.01" style="fill:#040303;fill-rule:nonzero;"/><path d="M288.88,256.095c-2.65,0.003 -5.301,0.006 -7.951,0.01c0.398,-0.372 0.835,-0.714 1.193,-1.119c2.847,-3.205 5.118,-3.002 6.758,1.109" style="fill:#0e0d0c;fill-rule:nonzero;"/><path d="M295.838,256.049c-0.791,0.027 -1.582,0.057 -2.37,0.084c0.892,-1.234 0.247,-4.482 3.124,-3.093c1.95,0.94 -0.758,1.897 -0.754,3.009" style="fill:#141312;fill-rule:nonzero;"/><path d="M334.567,283.657c-0.933,0.023 -1.785,0.206 -2.268,1.129c-1.005,-0.693 -2.982,-1.42 -1.417,-2.752c1.166,-0.994 2.684,0.467 3.685,1.623" style="fill:#0e0f0e;fill-rule:nonzero;"/><path d="M263.818,256.122c0.095,-3.685 1.657,-4.287 4.524,-2.157c-1.025,0.997 -2.089,1.947 -3.28,2.755c-0.456,0.203 -0.922,0.233 -1.403,0.098c-0.016,-0.25 0.038,-0.48 0.159,-0.696" style="fill:#121410;fill-rule:nonzero;"/><path d="M264.949,256.023c0.185,-2.242 1.862,-2.032 3.394,-2.056c-0.017,0.683 -0.034,1.369 -0.051,2.052c-0.105,0.213 -0.209,0.423 -0.318,0.636c-0.632,0.419 -1.318,0.48 -2.042,0.321c-0.463,-0.179 -0.791,-0.497 -0.983,-0.953" style="fill:#040a13;fill-rule:nonzero;"/><path d="M290.052,243.701c-0.386,-0.385 -0.771,-0.771 -1.16,-1.156c0.764,-1.143 1.528,-2.282 2.292,-3.421c-0.135,1.585 0.511,3.364 -1.132,4.577" style="fill:#111;fill-rule:nonzero;"/><path d="M274.024,256.367c-1.64,1.738 -3.77,0.768 -5.676,1.028c-0.257,-0.227 -0.332,-0.436 -0.227,-0.639c0.101,-0.193 0.196,-0.291 0.291,-0.291l-0.122,-0.446c1.914,0.115 3.824,0.233 5.734,0.348" style="fill:#89664b;fill-rule:nonzero;"/><path d="M254.773,321.22c0.5,0.615 0.93,1.146 1.359,1.674c-0.318,0.125 -0.73,0.439 -0.94,0.334c-0.659,-0.318 -1.244,-0.791 -1.856,-1.203c0.403,-0.227 0.805,-0.453 1.437,-0.805" style="fill:#040202;fill-rule:nonzero;"/><path d="M288.897,258.543c1.67,-1.869 3.895,-1.102 5.883,-1.115c10.217,-0.068 20.433,-0.024 30.654,-0.017c0,6.981 0.04,13.959 -0.024,20.94c-0.017,1.809 0.622,3.827 -1.116,5.301c-1.241,-6.129 -0.182,-12.329 -0.571,-18.486c-0.139,-2.211 0.598,-4.506 -0.572,-6.629c-10.537,0.047 -21.079,0.071 -31.62,0.185c-0.879,0.011 -1.755,0.623 -2.634,0.957c-0.145,-0.189 -0.29,-0.378 -0.432,-0.568c0.142,-0.189 0.287,-0.378 0.432,-0.568" style="fill:#936c4e;fill-rule:nonzero;"/><path d="M268.413,256.466c-0.037,0.308 -0.058,0.619 -0.064,0.93c-1.092,1.758 -1.265,3.702 -1.143,5.707c0,8.046 0.111,16.099 -0.054,24.146c-0.071,3.289 0.172,6.335 2.336,8.969c-2.045,-0.152 -3.915,0.22 -3.756,-3.253c0.422,-9.178 0.26,-18.388 0.331,-27.583c-0.764,-2.992 -1.109,-5.984 0.004,-8.973c0.781,0.02 1.565,0.037 2.346,0.057" style="fill:#936845;fill-rule:nonzero;"/><path d="M323.153,258.536c2.44,5.399 0.622,11.093 1.098,16.63c0.244,2.81 0.044,5.656 0.044,8.486l0,8.929c-0.382,0 -0.76,0 -1.142,0.003l0,-34.048Z" style="fill:#956849;fill-rule:nonzero;"/><path d="M279.763,317.907c0,-2.418 -0.027,-4.835 0.003,-7.252c0.031,-2.37 -0.825,-3.973 -3.418,-4.165c0.653,-1.221 1.221,-2.269 2.921,-1.079c3.618,2.526 3.932,8.959 0.494,12.496" style="fill:#926846;fill-rule:nonzero;"/><path d="M288.897,259.68c-1.91,2.39 -3.817,4.32 -5.703,-0.017c1.9,-0.903 3.803,-0.802 5.703,0.003l0,0.014Z" style="fill:#8e6748;fill-rule:nonzero;"/><path d="M266.067,256.409c0,2.992 -0.003,5.98 -0.003,8.972c-2.167,-2.471 -0.413,-6.045 -2.404,-8.567c0.429,-0.263 0.859,-0.527 1.288,-0.791c0.372,0.129 0.747,0.257 1.119,0.386" style="fill:#89664b;fill-rule:nonzero;"/><path d="M306.041,239.154c0.629,-0.825 1.254,-1.653 1.947,-2.566c0.558,1.974 0.436,3.435 -1.947,3.648c0,-0.362 0.003,-0.72 0,-1.082" style="fill:#010101;fill-rule:nonzero;"/><g><g opacity="0.5"><clipPath id="_clip13"><rect x="306.458" y="267.254" width="8.976" height="9.07"/></clipPath><g clip-path="url(#_clip13)"><path d="M310.94,267.254c2.762,0.362 4.527,1.819 4.493,4.672c-0.027,2.651 -1.657,4.304 -4.287,4.392c-2.826,0.098 -4.605,-1.555 -4.686,-4.372c-0.081,-2.85 1.721,-4.31 4.48,-4.692" style="fill-rule:nonzero;"/></g></g></g><g><g opacity="0.5"><clipPath id="_clip14"><rect x="275.299" y="267.355" width="8.977" height="9.064"/></clipPath><g clip-path="url(#_clip14)"><path d="M279.799,276.419c-2.769,-0.348 -4.54,-1.798 -4.499,-4.659c0.037,-2.637 1.659,-4.313 4.286,-4.401c2.82,-0.095 4.605,1.555 4.686,4.378c0.081,2.85 -1.704,4.317 -4.473,4.682" style="fill-rule:nonzero;"/></g></g></g><g><g opacity="0.5"><clipPath id="_clip15"><rect x="279.074" y="286.848" width="32.562" height="12.124"/></clipPath><g clip-path="url(#_clip15)"><path d="M295.625,298.972c-6.207,-0.446 -11.535,-2.566 -15.338,-7.664c-0.903,-1.214 -2.059,-2.823 -0.284,-4.091c1.491,-1.061 2.593,0.402 3.479,1.396c5.213,5.873 11.268,7.851 18.635,4.26c2.251,-1.095 3.779,-3.019 5.537,-4.682c0.889,-0.842 1.904,-1.9 3.148,-0.964c1.484,1.119 0.693,2.566 -0.098,3.702c-3.645,5.251 -8.966,7.401 -15.079,8.043" style="fill-rule:nonzero;"/></g></g></g><g><g opacity="0.5"><clipPath id="_clip16"><rect x="161.143" y="104.673" width="62.773" height="61.197"/></clipPath><g clip-path="url(#_clip16)"><path d="M192.519,124.49c-2.343,-0.03 -4.253,1.954 -4.23,4.243c0.02,2.35 1.904,4.236 4.25,4.233c2.346,-0.007 4.216,-1.903 4.229,-4.253c0.017,-2.238 -1.852,-4.26 -4.249,-4.223m14.591,0c-2.285,-0.03 -4.236,1.88 -4.229,4.25c0.01,2.336 1.92,4.226 4.263,4.226c2.289,0 4.229,-1.897 4.222,-4.26c-0.003,-2.326 -1.947,-4.263 -4.256,-4.216m-29.207,0c-2.251,-0.03 -4.236,1.87 -4.209,4.26c0.027,2.35 1.914,4.226 4.267,4.216c2.336,-0.01 4.219,-1.924 4.216,-4.27c-0.007,-2.306 -1.927,-4.253 -4.274,-4.206m-4.013,22.547c-0.267,-0.162 -0.503,-0.308 -0.743,-0.45c-2.752,-1.626 -5.214,-3.597 -7.266,-6.058c-1.89,-2.265 -3.32,-4.787 -4.084,-7.644c-1.294,-4.828 -0.645,-9.422 1.765,-13.777c1.505,-2.721 3.547,-4.986 5.96,-6.93c3.29,-2.644 6.999,-4.487 11.015,-5.731c2.617,-0.811 5.294,-1.329 8.026,-1.585c2.245,-0.21 4.493,-0.247 6.738,-0.099c5.365,0.355 10.48,1.66 15.257,4.166c3.293,1.727 6.214,3.935 8.608,6.798c1.893,2.266 3.32,4.788 4.094,7.644c1.173,4.345 0.764,8.554 -1.156,12.617c-1.342,2.84 -3.273,5.234 -5.616,7.303c-2.988,2.637 -6.406,4.544 -10.135,5.916c-2.715,0.998 -5.518,1.667 -8.391,2.039c-2.262,0.291 -4.527,0.409 -6.806,0.308c-0.433,-0.017 -0.781,0.094 -1.139,0.328c-3.614,2.363 -7.235,4.712 -10.856,7.065c-3.3,2.147 -6.599,4.291 -9.899,6.431c-0.257,0.165 -0.521,0.328 -0.801,0.439c-0.419,0.169 -0.717,-0.081 -0.642,-0.531c0.047,-0.277 0.142,-0.544 0.229,-0.811c1.255,-3.726 2.509,-7.451 3.767,-11.18c0.628,-1.863 1.261,-3.723 1.886,-5.585c0.074,-0.213 0.125,-0.433 0.189,-0.673" style="fill-rule:nonzero;"/></g></g></g><g><g opacity="0.5"><clipPath id="_clip17"><rect x="282.247" y="133.974" width="41.966" height="40.912"/></clipPath><g clip-path="url(#_clip17)"><path d="M300.395,150.045c0.01,1.572 1.261,2.84 2.826,2.843c1.569,0.003 2.83,-1.261 2.843,-2.83c0.017,-1.531 -1.261,-2.857 -2.826,-2.836c-1.603,-0.024 -2.853,1.328 -2.843,2.823m-9.761,-0.004c-0.003,1.579 1.295,2.847 2.827,2.847c1.565,0 2.843,-1.264 2.846,-2.826c0.007,-1.583 -1.298,-2.861 -2.826,-2.84c-1.542,-0.031 -2.84,1.264 -2.847,2.819m19.518,-0.006c-0.004,1.568 1.254,2.846 2.816,2.853c1.575,0.007 2.836,-1.248 2.853,-2.816c0.017,-1.599 -1.308,-2.871 -2.813,-2.85c-1.568,-0.034 -2.853,1.271 -2.856,2.813m5.663,12.708c0.422,1.247 0.845,2.492 1.264,3.736c0.838,2.491 1.677,4.983 2.515,7.475c0.061,0.179 0.125,0.358 0.156,0.541c0.05,0.3 -0.152,0.466 -0.43,0.355c-0.189,-0.075 -0.365,-0.183 -0.534,-0.295c-2.207,-1.43 -4.415,-2.863 -6.619,-4.297c-2.421,-1.572 -4.842,-3.144 -7.259,-4.723c-0.237,-0.155 -0.47,-0.233 -0.761,-0.219c-1.521,0.067 -3.039,-0.014 -4.55,-0.206c-1.92,-0.251 -3.793,-0.697 -5.609,-1.366c-2.491,-0.917 -4.777,-2.191 -6.775,-3.952c-1.569,-1.383 -2.857,-2.982 -3.756,-4.882c-1.281,-2.718 -1.555,-5.531 -0.771,-8.435c0.517,-1.911 1.471,-3.598 2.735,-5.112c1.603,-1.914 3.553,-3.391 5.754,-4.544c3.195,-1.677 6.617,-2.549 10.2,-2.786c1.501,-0.098 3.006,-0.074 4.507,0.068c1.825,0.172 3.617,0.514 5.365,1.058c2.684,0.832 5.166,2.066 7.363,3.834c1.613,1.295 2.979,2.813 3.986,4.632c1.61,2.91 2.046,5.98 1.18,9.209c-0.514,1.91 -1.467,3.597 -2.731,5.112c-1.373,1.643 -3.019,2.961 -4.859,4.05c-0.158,0.094 -0.317,0.189 -0.497,0.301c0.044,0.159 0.078,0.304 0.126,0.446" style="fill-rule:nonzero;"/></g></g></g></g></g><path d="M134.394,56.074c1.1,1.749 1.869,3.491 2.307,5.225c0.437,1.733 0.513,3.403 0.226,5.008c-0.287,1.605 -0.953,3.127 -1.997,4.564c-1.044,1.437 -2.501,2.743 -4.369,3.917l-8.506,5.346l-14.692,-23.376l8.506,-5.346c1.868,-1.174 3.677,-1.92 5.425,-2.238c1.747,-0.318 3.407,-0.258 4.978,0.18c1.571,0.438 3.042,1.23 4.415,2.376c1.372,1.146 2.608,2.594 3.707,4.344Zm-5.135,2.591c-0.622,-0.989 -1.322,-1.834 -2.099,-2.535c-0.778,-0.702 -1.631,-1.2 -2.559,-1.496c-0.928,-0.297 -1.93,-0.36 -3.007,-0.191c-1.077,0.169 -2.217,0.632 -3.42,1.388l-3.496,2.197l9.405,14.964l3.496,-2.197c1.192,-0.749 2.098,-1.572 2.717,-2.47c0.62,-0.897 0.996,-1.83 1.128,-2.8c0.132,-0.97 0.052,-1.962 -0.241,-2.976c-0.292,-1.014 -0.746,-2.009 -1.361,-2.988l-0.563,-0.896Z" style="fill:#fff;fill-rule:nonzero;"/><path d="M162.796,49.173l0.07,-0.029l-3.832,-19.036l5.542,-2.284l4.89,27.847l-6.263,2.58l-11.358,-16.726l3.794,19.843l-6.228,2.567l-16.148,-23.207l5.559,-2.291l10.569,16.26l0.071,-0.029l-3.41,-19.211l5.735,-2.363l11.009,16.079Z" style="fill:#fff;fill-rule:nonzero;"/><path d="M172.584,25.929l10.614,-2.489c1.371,-0.321 2.662,-0.383 3.875,-0.186c1.212,0.197 2.294,0.602 3.246,1.216c0.951,0.614 1.761,1.417 2.43,2.407c0.669,0.99 1.152,2.123 1.451,3.397c0.299,1.275 0.35,2.509 0.154,3.702c-0.195,1.192 -0.611,2.282 -1.246,3.268c-0.635,0.986 -1.475,1.839 -2.518,2.558c-1.043,0.719 -2.256,1.241 -3.639,1.565l-4.816,1.129l2.122,9.054l-5.372,1.259l-6.301,-26.88Zm16.055,5.55c-0.149,-0.637 -0.393,-1.177 -0.731,-1.618c-0.338,-0.442 -0.758,-0.788 -1.26,-1.04c-0.502,-0.251 -1.07,-0.398 -1.705,-0.44c-0.636,-0.043 -1.324,0.023 -2.065,0.197l-3.797,0.89l1.929,8.229l3.797,-0.89c0.741,-0.174 1.387,-0.421 1.937,-0.741c0.551,-0.32 0.995,-0.704 1.332,-1.153c0.338,-0.448 0.561,-0.945 0.667,-1.491c0.107,-0.545 0.085,-1.137 -0.064,-1.774l-0.04,-0.169Z" style="fill:#fff;fill-rule:nonzero;"/><path d="M231.089,31.711c0.115,2.064 -0.057,3.96 -0.514,5.688c-0.457,1.729 -1.2,3.226 -2.229,4.491c-1.028,1.266 -2.348,2.274 -3.958,3.025c-1.61,0.751 -3.517,1.187 -5.72,1.309l-10.031,0.555l-1.525,-27.567l10.031,-0.555c2.203,-0.122 4.147,0.102 5.83,0.671c1.683,0.569 3.105,1.425 4.267,2.569c1.163,1.144 2.066,2.55 2.711,4.218c0.645,1.668 1.024,3.533 1.138,5.596Zm-5.748,-0.222c-0.064,-1.166 -0.267,-2.244 -0.607,-3.234c-0.341,-0.991 -0.845,-1.84 -1.513,-2.549c-0.668,-0.708 -1.514,-1.25 -2.539,-1.624c-1.024,-0.374 -2.245,-0.521 -3.664,-0.443l-4.122,0.228l0.976,17.648l4.122,-0.228c1.406,-0.078 2.598,-0.359 3.574,-0.844c0.977,-0.485 1.758,-1.119 2.344,-1.904c0.585,-0.784 0.995,-1.691 1.231,-2.719c0.235,-1.029 0.321,-2.12 0.257,-3.273l-0.059,-1.058Z" style="fill:#fff;fill-rule:nonzero;"/><path d="M237.949,18.404l5.511,0.273l-1.37,27.576l-5.511,-0.274l1.37,-27.575Z" style="fill:#fff;fill-rule:nonzero;"/><path d="M254.518,33.532c-0.185,1.167 -0.219,2.311 -0.101,3.435c0.117,1.123 0.404,2.143 0.862,3.061c0.458,0.917 1.105,1.699 1.94,2.345c0.835,0.646 1.885,1.069 3.15,1.27c1.216,0.193 2.258,0.157 3.129,-0.108c0.87,-0.265 1.593,-0.654 2.169,-1.167c0.576,-0.513 1.015,-1.096 1.318,-1.75c0.303,-0.653 0.501,-1.272 0.593,-1.855l0.042,-0.266l-6.896,-1.095l0.667,-4.202l12.196,1.935l-2.372,14.947l-4.773,-0.758l0.507,-3.195c-0.423,0.479 -0.92,0.898 -1.49,1.255c-0.571,0.358 -1.194,0.643 -1.87,0.854c-0.675,0.211 -1.4,0.346 -2.173,0.405c-0.774,0.06 -1.58,0.023 -2.42,-0.111c-1.967,-0.312 -3.657,-0.95 -5.071,-1.915c-1.413,-0.966 -2.543,-2.165 -3.387,-3.599c-0.845,-1.433 -1.405,-3.043 -1.681,-4.828c-0.275,-1.785 -0.257,-3.66 0.055,-5.625c0.31,-1.953 0.904,-3.733 1.782,-5.342c0.878,-1.608 1.978,-2.954 3.299,-4.038c1.322,-1.083 2.832,-1.864 4.533,-2.341c1.7,-0.477 3.534,-0.56 5.501,-0.248c1.278,0.203 2.466,0.544 3.565,1.024c1.099,0.48 2.078,1.07 2.936,1.772c0.858,0.702 1.589,1.5 2.192,2.395c0.603,0.895 1.054,1.853 1.354,2.876l-5.204,1.961c-0.196,-0.628 -0.448,-1.224 -0.757,-1.786c-0.309,-0.563 -0.688,-1.065 -1.138,-1.507c-0.45,-0.441 -0.985,-0.819 -1.603,-1.131c-0.618,-0.313 -1.328,-0.533 -2.13,-0.66c-1.265,-0.201 -2.395,-0.123 -3.389,0.232c-0.994,0.356 -1.85,0.899 -2.57,1.63c-0.72,0.73 -1.309,1.614 -1.77,2.653c-0.46,1.038 -0.781,2.134 -0.964,3.287l-0.031,0.19Z" style="fill:#fff;fill-rule:nonzero;"/><path d="M283.333,25.004l5.324,1.449l-7.25,26.641l-5.324,-1.449l7.25,-26.641Z" style="fill:#fff;fill-rule:nonzero;"/><path d="M294.835,28.079l19.479,7.285l-1.815,4.851l-7.146,-2.673l-7.858,21.009l-5.186,-1.94l7.858,-21.009l-7.146,-2.673l1.814,-4.85Z" style="fill:#fff;fill-rule:nonzero;"/><path d="M321.939,64.322l-8.97,-4.65l-3.725,3.838l-5.203,-2.696l20.627,-20.407l6.436,3.336l-4.664,28.68l-5.473,-2.837l0.972,-5.264Zm-5.384,-8.343l6.334,3.284l2.227,-11.988l-0.067,-0.035l-8.494,8.739Z" style="fill:#fff;fill-rule:nonzero;"/><path d="M344.726,51.657l4.551,3.121l-12.698,18.513l8.912,6.113l-2.918,4.255l-13.463,-9.234l15.616,-22.768Z" style="fill:#fff;fill-rule:nonzero;"/><path d="M68.571,356.905c0.431,0.526 0.91,0.954 1.439,1.282c0.529,0.327 1.087,0.527 1.674,0.598c0.587,0.071 1.202,0.004 1.846,-0.201c0.643,-0.205 1.295,-0.577 1.955,-1.116l11.284,-9.217l2.93,3.588l-11.829,9.662c-1.016,0.829 -2.082,1.397 -3.2,1.704c-1.118,0.307 -2.229,0.371 -3.334,0.193c-1.105,-0.178 -2.179,-0.587 -3.223,-1.226c-1.044,-0.639 -2,-1.489 -2.867,-2.551c-0.868,-1.062 -1.51,-2.168 -1.928,-3.319c-0.418,-1.15 -0.605,-2.287 -0.563,-3.409c0.043,-1.122 0.326,-2.2 0.85,-3.234c0.524,-1.034 1.293,-1.966 2.308,-2.796l11.83,-9.662l2.94,3.6l-11.283,9.216c-0.66,0.539 -1.155,1.104 -1.485,1.694c-0.329,0.589 -0.517,1.179 -0.565,1.768c-0.048,0.59 0.037,1.176 0.252,1.76c0.216,0.584 0.539,1.139 0.969,1.666Z" style="fill:#fff;fill-rule:nonzero;"/><path d="M84.408,370.653c-0.02,0.462 0.011,0.964 0.093,1.507c0.082,0.543 0.222,1.091 0.42,1.645c0.198,0.554 0.466,1.099 0.805,1.637c0.34,0.537 0.769,1.05 1.287,1.538c0.967,0.911 1.901,1.404 2.801,1.479c0.901,0.076 1.628,-0.181 2.183,-0.769c0.577,-0.613 0.789,-1.291 0.637,-2.035c-0.153,-0.743 -0.634,-1.669 -1.444,-2.778l-0.44,-0.595c-0.588,-0.793 -1.134,-1.623 -1.639,-2.489c-0.504,-0.865 -0.856,-1.759 -1.055,-2.682c-0.199,-0.923 -0.188,-1.855 0.031,-2.796c0.22,-0.942 0.768,-1.878 1.644,-2.808c0.509,-0.541 1.161,-0.997 1.955,-1.367c0.794,-0.371 1.682,-0.562 2.665,-0.574c0.983,-0.012 2.031,0.206 3.144,0.654c1.113,0.448 2.247,1.216 3.403,2.305c1.367,1.288 2.372,2.666 3.014,4.133c0.642,1.468 0.941,2.887 0.897,4.256l-4.298,0.004c0.023,-0.953 -0.19,-1.92 -0.64,-2.899c-0.449,-0.979 -1.059,-1.831 -1.83,-2.557c-0.888,-0.836 -1.742,-1.319 -2.564,-1.447c-0.821,-0.128 -1.49,0.083 -2.007,0.631c-0.337,0.358 -0.537,0.732 -0.601,1.123c-0.063,0.39 -0.023,0.8 0.122,1.229c0.145,0.429 0.373,0.887 0.684,1.376c0.311,0.488 0.67,1.021 1.075,1.598l0.226,0.303c0.556,0.764 1.077,1.558 1.561,2.382c0.485,0.824 0.822,1.682 1.012,2.575c0.191,0.892 0.168,1.801 -0.067,2.728c-0.235,0.927 -0.798,1.863 -1.69,2.81c-0.809,0.859 -1.701,1.451 -2.677,1.778c-0.975,0.327 -1.973,0.449 -2.992,0.367c-1.02,-0.083 -2.022,-0.366 -3.005,-0.849c-0.983,-0.484 -1.888,-1.114 -2.713,-1.891c-0.833,-0.785 -1.538,-1.584 -2.114,-2.397c-0.576,-0.813 -1.03,-1.623 -1.36,-2.43c-0.331,-0.806 -0.568,-1.586 -0.713,-2.337c-0.145,-0.752 -0.21,-1.474 -0.196,-2.166l4.386,-0.192Z" style="fill:#fff;fill-rule:nonzero;"/><path d="M112.235,372.998l12.601,9.271l-2.554,3.472l-8.819,-6.488l-2.962,4.026l8.127,5.979l-2.544,3.459l-8.127,-5.979l-3.322,4.514l9.328,6.862l-2.545,3.459l-13.11,-9.645l13.927,-18.93Z" style="fill:#fff;fill-rule:nonzero;"/><path d="M130.884,386.172l7.847,4.384c1.206,0.674 2.173,1.446 2.899,2.315c0.727,0.869 1.236,1.773 1.527,2.711c0.292,0.939 0.384,1.882 0.275,2.829c-0.108,0.947 -0.397,1.84 -0.866,2.679c-0.378,0.677 -0.838,1.262 -1.379,1.755c-0.541,0.492 -1.125,0.885 -1.753,1.179c-0.628,0.294 -1.282,0.485 -1.963,0.574c-0.68,0.089 -1.355,0.079 -2.023,-0.032l-0.276,10.921l-4.722,-2.638l0.448,-9.436l-3.252,-1.816l-4.124,7.382l-4.1,-2.291l11.462,-20.516Zm7.318,12.668c0.229,-0.41 0.37,-0.832 0.421,-1.267c0.051,-0.435 0,-0.863 -0.153,-1.287c-0.153,-0.423 -0.411,-0.83 -0.774,-1.221c-0.364,-0.39 -0.837,-0.749 -1.422,-1.075l-3.336,-1.865l-3.229,5.78l3.336,1.865c0.585,0.326 1.14,0.539 1.665,0.639c0.526,0.099 1.01,0.101 1.454,0.005c0.443,-0.097 0.836,-0.281 1.18,-0.552c0.343,-0.271 0.629,-0.612 0.858,-1.022Z" style="fill:#fff;fill-rule:nonzero;"/><path d="M159.046,400.445l8.473,2.998c1.303,0.461 2.386,1.059 3.248,1.793c0.863,0.734 1.517,1.539 1.963,2.415c0.446,0.876 0.695,1.79 0.748,2.742c0.053,0.952 -0.081,1.881 -0.402,2.787c-0.259,0.731 -0.613,1.385 -1.063,1.962c-0.451,0.576 -0.96,1.062 -1.53,1.458c-0.569,0.395 -1.182,0.694 -1.838,0.897c-0.655,0.202 -1.322,0.306 -1.999,0.309l1.569,10.812l-5.099,-1.804l-1.149,-9.377l-3.512,-1.242l-2.82,7.972l-4.428,-1.567l7.839,-22.155Zm9.349,11.253c0.157,-0.443 0.224,-0.883 0.201,-1.32c-0.023,-0.437 -0.146,-0.851 -0.368,-1.243c-0.222,-0.391 -0.545,-0.749 -0.969,-1.073c-0.423,-0.323 -0.951,-0.597 -1.582,-0.82l-3.603,-1.275l-2.208,6.242l3.603,1.275c0.631,0.223 1.214,0.339 1.749,0.349c0.534,0.009 1.012,-0.071 1.433,-0.24c0.421,-0.17 0.778,-0.418 1.07,-0.743c0.293,-0.325 0.518,-0.709 0.674,-1.152Z" style="fill:#fff;fill-rule:nonzero;"/><path d="M182.017,408.008l15.29,3.311l-0.912,4.213l-10.7,-2.318l-1.058,4.885l9.861,2.136l-0.909,4.196l-9.861,-2.135l-1.186,5.477l11.317,2.452l-0.909,4.196l-15.907,-3.445l4.974,-22.968Z" style="fill:#fff;fill-rule:nonzero;"/><path d="M204.424,429.352c0.27,0.375 0.605,0.751 1.005,1.126c0.4,0.376 0.849,0.72 1.347,1.033c0.498,0.314 1.046,0.576 1.645,0.789c0.599,0.212 1.253,0.35 1.963,0.413c1.323,0.118 2.361,-0.072 3.116,-0.57c0.754,-0.497 1.167,-1.149 1.239,-1.954c0.074,-0.838 -0.178,-1.502 -0.758,-1.993c-0.579,-0.49 -1.53,-0.92 -2.852,-1.29l-0.714,-0.196c-0.953,-0.26 -1.895,-0.574 -2.827,-0.942c-0.932,-0.368 -1.761,-0.854 -2.488,-1.456c-0.727,-0.602 -1.295,-1.341 -1.705,-2.217c-0.409,-0.875 -0.558,-1.95 -0.444,-3.223c0.066,-0.74 0.296,-1.501 0.691,-2.283c0.395,-0.782 0.975,-1.482 1.74,-2.099c0.765,-0.617 1.723,-1.094 2.875,-1.43c1.152,-0.336 2.518,-0.434 4.099,-0.293c1.871,0.166 3.513,0.628 4.925,1.384c1.412,0.757 2.524,1.687 3.337,2.79l-3.375,2.661c-0.572,-0.764 -1.337,-1.391 -2.296,-1.882c-0.959,-0.492 -1.965,-0.784 -3.019,-0.878c-1.215,-0.108 -2.185,0.041 -2.91,0.448c-0.724,0.407 -1.12,0.986 -1.187,1.737c-0.044,0.49 0.03,0.908 0.222,1.254c0.191,0.346 0.476,0.643 0.855,0.89c0.379,0.248 0.842,0.468 1.389,0.659c0.546,0.191 1.157,0.388 1.833,0.591l0.365,0.098c0.91,0.257 1.809,0.559 2.7,0.907c0.89,0.348 1.686,0.814 2.387,1.397c0.702,0.584 1.247,1.312 1.635,2.186c0.388,0.874 0.525,1.958 0.409,3.253c-0.104,1.175 -0.439,2.193 -1.003,3.053c-0.565,0.86 -1.273,1.573 -2.126,2.139c-0.852,0.566 -1.814,0.963 -2.886,1.191c-1.072,0.228 -2.172,0.292 -3.302,0.191c-1.139,-0.101 -2.187,-0.293 -3.143,-0.576c-0.956,-0.283 -1.813,-0.639 -2.571,-1.068c-0.759,-0.43 -1.427,-0.895 -2.006,-1.396c-0.579,-0.502 -1.076,-1.029 -1.493,-1.581l3.328,-2.863Z" style="fill:#fff;fill-rule:nonzero;"/><path d="M227.784,413.976l15.635,-0.52l0.144,4.308l-10.942,0.364l0.166,4.996l10.084,-0.336l0.143,4.292l-10.084,0.335l0.186,5.602l11.573,-0.385l0.143,4.291l-16.267,0.541l-0.781,-23.488Z" style="fill:#fff;fill-rule:nonzero;"/><path d="M266.231,429.652l-8.489,1.375l-0.598,4.513l-4.924,0.797l3.741,-24.412l6.091,-0.987l11.367,21.967l-5.18,0.838l-2.008,-4.091Zm-7.912,-2.968l5.995,-0.971l-4.562,-9.322l-0.063,0.01l-1.37,10.283Z" style="fill:#fff;fill-rule:nonzero;"/><path d="M275.113,408.278l8.605,-2.597c1.323,-0.4 2.549,-0.559 3.679,-0.478c1.129,0.082 2.133,0.343 3.011,0.786c0.878,0.443 1.62,1.032 2.226,1.768c0.605,0.735 1.047,1.564 1.325,2.484c0.224,0.743 0.325,1.48 0.303,2.211c-0.021,0.731 -0.145,1.425 -0.37,2.08c-0.225,0.656 -0.541,1.259 -0.95,1.811c-0.409,0.551 -0.885,1.029 -1.429,1.432l7.663,7.787l-5.178,1.564l-6.475,-6.879l-3.566,1.076l2.444,8.096l-4.496,1.357l-6.792,-22.498Zm14.195,3.538c-0.135,-0.45 -0.342,-0.844 -0.619,-1.182c-0.277,-0.339 -0.621,-0.6 -1.032,-0.785c-0.41,-0.184 -0.882,-0.281 -1.416,-0.291c-0.533,-0.01 -1.12,0.081 -1.761,0.275l-3.659,1.104l1.914,6.339l3.659,-1.105c0.641,-0.193 1.179,-0.444 1.616,-0.753c0.437,-0.309 0.775,-0.656 1.014,-1.042c0.239,-0.386 0.38,-0.797 0.423,-1.232c0.043,-0.436 -0.003,-0.878 -0.139,-1.328Z" style="fill:#fff;fill-rule:nonzero;"/><path d="M302.073,411.96c-0.698,-1.531 -1.124,-3.069 -1.277,-4.614c-0.153,-1.546 -0.028,-3.008 0.376,-4.387c0.403,-1.379 1.084,-2.632 2.041,-3.759c0.958,-1.127 2.198,-2.038 3.72,-2.732c1.1,-0.502 2.185,-0.823 3.255,-0.962c1.069,-0.14 2.1,-0.118 3.092,0.066c0.992,0.184 1.928,0.526 2.808,1.025c0.88,0.499 1.689,1.139 2.425,1.92l-3.479,3.262c-0.299,-0.344 -0.673,-0.669 -1.121,-0.975c-0.448,-0.306 -0.947,-0.54 -1.496,-0.704c-0.55,-0.164 -1.137,-0.235 -1.762,-0.214c-0.625,0.021 -1.262,0.179 -1.911,0.475c-0.972,0.443 -1.713,1.025 -2.222,1.743c-0.509,0.718 -0.833,1.509 -0.974,2.372c-0.14,0.862 -0.125,1.762 0.047,2.698c0.172,0.936 0.458,1.842 0.857,2.717l0.054,0.119c0.403,0.885 0.902,1.699 1.497,2.442c0.594,0.744 1.262,1.343 2.003,1.797c0.741,0.455 1.55,0.725 2.426,0.812c0.876,0.087 1.801,-0.092 2.773,-0.535c0.649,-0.296 1.186,-0.673 1.611,-1.131c0.426,-0.459 0.757,-0.949 0.994,-1.471c0.236,-0.522 0.387,-1.05 0.452,-1.584c0.065,-0.534 0.066,-1.027 0.002,-1.478l4.737,-0.504c0.107,1.068 0.061,2.098 -0.139,3.09c-0.201,0.992 -0.555,1.925 -1.064,2.8c-0.509,0.874 -1.168,1.667 -1.977,2.378c-0.809,0.712 -1.763,1.318 -2.863,1.82c-1.523,0.694 -3.023,1.036 -4.499,1.025c-1.477,-0.011 -2.869,-0.319 -4.177,-0.923c-1.308,-0.604 -2.494,-1.468 -3.558,-2.592c-1.065,-1.123 -1.948,-2.455 -2.651,-3.996Z" style="fill:#fff;fill-rule:nonzero;"/><path d="M341.42,393.02l-8.602,5.516l5.343,8.332l-3.953,2.536l-12.686,-19.783l3.953,-2.535l5.025,7.836l8.603,-5.517l-5.025,-7.836l3.967,-2.543l12.686,19.782l-3.967,2.544l-5.344,-8.332Z" style="fill:#fff;fill-rule:nonzero;"/><path d="M344.236,374.254l11.933,-10.118l2.787,3.288l-8.35,7.08l3.232,3.812l7.696,-6.525l2.777,3.275l-7.696,6.525l3.625,4.275l8.832,-7.488l2.777,3.275l-12.415,10.526l-15.198,-17.925Z" style="fill:#fff;fill-rule:nonzero;"/><path d="M361.276,359.252l6.093,-6.608c0.937,-1.016 1.912,-1.776 2.927,-2.28c1.014,-0.504 2.012,-0.788 2.993,-0.853c0.981,-0.064 1.919,0.066 2.814,0.393c0.896,0.326 1.697,0.815 2.404,1.467c0.57,0.525 1.032,1.109 1.384,1.75c0.353,0.641 0.599,1.301 0.738,1.98c0.139,0.679 0.173,1.36 0.101,2.042c-0.072,0.683 -0.24,1.336 -0.503,1.96l10.556,2.815l-3.667,3.977l-9.071,-2.636l-2.525,2.738l6.217,5.732l-3.183,3.453l-17.278,-15.93Zm14.025,-4.163c-0.345,-0.318 -0.723,-0.553 -1.134,-0.704c-0.411,-0.151 -0.84,-0.201 -1.287,-0.151c-0.447,0.05 -0.903,0.206 -1.368,0.468c-0.464,0.262 -0.923,0.639 -1.377,1.131l-2.591,2.81l4.868,4.488l2.59,-2.81c0.454,-0.492 0.791,-0.982 1.01,-1.47c0.22,-0.488 0.334,-0.959 0.344,-1.412c0.01,-0.454 -0.077,-0.879 -0.261,-1.276c-0.184,-0.397 -0.449,-0.755 -0.794,-1.074Z" style="fill:#fff;fill-rule:nonzero;"/></svg>